<svg width="40" height="40" viewBox="0 0 40 40" fill="none" xmlns="http://www.w3.org/2000/svg">
<path fill-rule="evenodd" clip-rule="evenodd" d="M40 20C40 31.0457 31.0457 40 20 40C8.9543 40 0 31.0457 0 20C0 8.9543 8.9543 0 20 0C31.0457 0 40 8.9543 40 20ZM20 36.9991C29.3888 36.9991 37 29.3879 37 19.999C37 10.6102 29.3888 2.99902 20 2.99902C10.6112 2.99902 3 10.6102 3 19.999C3 29.3879 10.6112 36.9991 20 36.9991ZM20 37.9991C29.9411 37.9991 38 29.9402 38 19.999C38 10.0579 29.9411 1.99902 20 1.99902C10.0589 1.99902 2 10.0579 2 19.999C2 29.9402 10.0589 37.9991 20 37.9991ZM17.9013 18.056C17.3286 19.2378 16.2251 21.5146 15.716 21.4409C10.6549 20.4746 6.94389 10.1623 14.746 5.90011C21.0183 2.32431 26.8632 10.4025 28.1169 12.7406C29.3725 15.0797 31.4507 25.4923 27.2007 31.2115C21.6546 38.2449 17.7006 33.5714 19.5915 32.2988C20.9275 35.5644 23.3167 31.0621 22.3419 28.4828C21.823 26.686 19.9526 24.5549 19.1494 23.6398C19.0731 23.5528 19.0064 23.4768 18.9515 23.4132C18.317 22.6785 19.2701 21.127 20.4207 20.6798C20.6511 20.5904 21.2459 20.6464 21.9318 20.711C23.0668 20.8179 24.4514 20.9484 24.8475 20.4822C25.3851 19.8854 24.9615 19.1398 24.7683 18.7997C24.7084 18.6942 24.6706 18.6277 24.6905 18.6168C24.7436 18.5883 24.8299 18.5804 24.9275 18.5715C25.1601 18.5504 25.4565 18.5234 25.5178 18.197C25.6029 17.7327 25.1651 17.6127 25.1651 17.6127C25.1651 17.6127 25.6757 17.3801 25.6625 17.0709C25.6561 16.912 25.5314 16.7825 25.4116 16.6582C25.2984 16.5408 25.1897 16.428 25.1897 16.2994C25.1809 15.9406 25.399 15.8039 25.6026 15.6762C25.7703 15.5711 25.9281 15.4721 25.9414 15.2603C25.9584 14.9889 25.3745 14.3755 24.8433 13.8174C24.4586 13.4133 24.1016 13.0381 24.0202 12.8427C23.9488 12.6716 23.9687 12.3762 23.9899 12.0606C24.0263 11.5184 24.0667 10.9163 23.6561 10.7807C23.2259 10.6385 23.0698 11.0182 22.9209 11.3807C22.845 11.5654 22.771 11.7456 22.6634 11.85C22.4286 12.0778 21.7696 12.4017 21.3256 12.6199C21.1672 12.6978 21.0361 12.7622 20.9615 12.804C20.6788 12.9638 20.4642 14.2959 21.3747 14.209C20.9048 14.6389 20.626 14.3704 20.4468 14.1977C20.3966 14.1494 20.3542 14.1086 20.3177 14.0927C20.1503 14.0208 19.514 15.0864 19.48 15.5884C19.4459 16.0895 19.7986 16.7788 20.5503 16.1425C20.8144 17.2081 19.2653 17.2941 18.5726 17.3325C18.3999 17.3421 18.2805 17.3487 18.2556 17.3668C18.2244 17.3895 18.0924 17.6619 17.9013 18.056Z" fill="#891C7E"/>
</svg>
