<svg width="40" height="40" viewBox="0 0 40 40" fill="none" xmlns="http://www.w3.org/2000/svg">
<path fill-rule="evenodd" clip-rule="evenodd" d="M40 20C40 31.0457 31.0457 40 20 40C8.9543 40 0 31.0457 0 20C0 8.9543 8.9543 0 20 0C31.0457 0 40 8.9543 40 20ZM20 36.9991C29.3888 36.9991 37 29.3879 37 19.999C37 10.6102 29.3888 2.99902 20 2.99902C10.6112 2.99902 3 10.6102 3 19.999C3 29.3879 10.6112 36.9991 20 36.9991ZM20 37.9991C29.9411 37.9991 38 29.9402 38 19.999C38 10.0579 29.9411 1.99902 20 1.99902C10.0589 1.99902 2 10.0579 2 19.999C2 29.9402 10.0589 37.9991 20 37.9991ZM14.9322 21.7005C15.221 22.2705 15.7977 22.6253 16.4375 22.6253H17.4185L16.8327 25.2503H13.0625C11.9255 25.2503 11 24.3255 11 23.1878V16.0628C11 14.925 11.9255 14.0003 13.0625 14.0003H19.4465L15.0792 19.9365C14.699 20.4518 14.6427 21.1268 14.9322 21.7005ZM27.6807 16.2503H27.4999V16.0628C27.4999 14.925 26.5744 14.0003 25.4374 14.0003H23.3502L23.3473 14.0283C23.3417 14.0821 23.3361 14.1364 23.3239 14.19L22.5942 17.3753H23.7499C24.3957 17.3753 24.9747 17.7345 25.2612 18.3128C25.5477 18.8895 25.4839 19.5675 25.0947 20.082L21.1797 25.2503H25.4374C26.5744 25.2503 27.4999 24.3255 27.4999 23.1878V23.0003H27.6807C28.4044 23.0003 28.9932 22.4115 28.9932 21.6878V17.5628C28.9932 16.839 28.4044 16.2503 27.6807 16.2503ZM18.116 26.698C18.1925 26.7333 18.2728 26.7498 18.3523 26.7498C18.524 26.7498 18.6913 26.671 18.8 26.527L24.1978 19.402C24.3268 19.2317 24.3485 19.003 24.2533 18.8117C24.1588 18.6205 23.9638 18.4997 23.75 18.4997H21.1828L22.2275 13.9375C22.2875 13.6772 22.1563 13.4117 21.914 13.3007C21.6703 13.1875 21.383 13.2632 21.2263 13.4785L15.9845 20.6035C15.8585 20.7745 15.8405 21.0017 15.9358 21.1907C16.031 21.3805 16.2253 21.4997 16.4375 21.4997H18.8218L17.8033 26.065C17.7463 26.323 17.876 26.587 18.116 26.698Z" fill="#891C7E"/>
</svg>
