<svg width="40" height="40" viewBox="0 0 40 40" fill="none" xmlns="http://www.w3.org/2000/svg">
<path fill-rule="evenodd" clip-rule="evenodd" d="M40 20C40 31.0457 31.0457 40 20 40C8.9543 40 0 31.0457 0 20C0 8.9543 8.9543 0 20 0C31.0457 0 40 8.9543 40 20ZM20 36.9995C29.3888 36.9995 37 29.3884 37 19.9995C37 10.6107 29.3888 2.9995 20 2.9995C10.6112 2.9995 3 10.6107 3 19.9995C3 29.3884 10.6112 36.9995 20 36.9995ZM20 37.9995C29.9411 37.9995 38 29.9406 38 19.9995C38 10.0584 29.9411 1.9995 20 1.9995C10.0589 1.9995 2 10.0584 2 19.9995C2 29.9406 10.0589 37.9995 20 37.9995ZM20.7186 23.3288L20 23.6628L19.2814 23.3288V20.375H20.7186V23.3288ZM21.8905 22.2711V24.0763L20.0001 24.9549L18.1095 24.0764V22.2714L10 19.1849V28.687H30V19.1849L21.8905 22.2711ZM18.1095 19.2031V21.0176L10 17.9312V13.6872H16.4721V11H23.5278V13.6872H30V17.9312L21.8905 21.0174V19.2031H18.1095ZM22.3559 12.1719H17.644V13.6872H22.3559V12.1719Z" fill="#891C7E"/>
</svg>
