<svg width="30" height="30" viewBox="0 0 30 30" fill="none" xmlns="http://www.w3.org/2000/svg">
<path fill-rule="evenodd" clip-rule="evenodd" d="M30 15C30 23.2843 23.2843 30 15 30C6.71573 30 0 23.2843 0 15C0 6.71573 6.71573 0 15 0C23.2843 0 30 6.71573 30 15ZM17.8 18H14.2C13.8685 18 13.6 17.7091 13.6 17.35V14.1H10.6C10.2685 14.1 10 13.8091 10 13.45V9.55C10 9.19088 10.2685 8.9 10.6 8.9H13.6V5.65C13.6 5.29087 13.8685 5 14.2 5H17.8C18.1316 5 18.4 5.29087 18.4 5.65V8.9H21.4C21.7316 8.9 22 9.19088 22 9.55V13.45C22 13.8091 21.7316 14.1 21.4 14.1H18.4V17.35C18.4 17.7091 18.1316 18 17.8 18ZM22.8869 18.8145C23.3321 18.3701 24.0704 18.3257 24.5625 18.7255C25.0665 19.1253 25.1485 19.8361 24.7383 20.3359L20.0196 25.7962C19.9084 25.9253 19.7419 26 19.5659 26H5.58484C5.26184 26 5 25.7518 5 25.4457V19.8915C5 19.585 5.26233 19.3363 5.58594 19.3363H7.99048C8.68287 18.5922 9.60707 18.1176 10.6467 18.0191C11.7786 17.9122 12.912 18.2572 13.7641 18.9682L14.2058 19.3363H18.086C18.7305 19.3363 19.2578 19.8361 19.2578 20.4469C19.2578 21.0578 18.7305 21.5576 18.086 21.5576H14.0625C13.7389 21.5576 13.4766 21.8062 13.4766 22.1129C13.4766 22.4196 13.7389 22.6682 14.0625 22.6682H18.4728C18.7541 22.6682 19.047 22.5682 19.2578 22.3794C19.3366 22.3297 19.4606 22.2067 20.5228 21.1541C21.0468 20.6347 21.7991 19.8892 22.8869 18.8145Z" fill="#891C7E"/>
</svg>
