<svg width="30" height="30" viewBox="0 0 30 30" fill="none" xmlns="http://www.w3.org/2000/svg">
<path fill-rule="evenodd" clip-rule="evenodd" d="M15 30C23.2843 30 30 23.2843 30 15C30 6.71573 23.2843 0 15 0C6.71573 0 0 6.71573 0 15C0 23.2843 6.71573 30 15 30ZM15.8647 18.6709L18.688 17.2593V18.7294L17.96 19.4574C17.5948 19.8226 17.3936 20.3082 17.3936 20.8247V22.0171C16.7242 22.2119 15.9329 22.334 15 22.334C10.4735 22.334 9.27276 19.4622 9.22386 19.34C9.1934 19.2639 9.17776 19.1826 9.17776 19.1006V16.1922L14.1353 18.6709C14.4024 18.8044 14.7014 18.875 15 18.875C15.2986 18.875 15.5976 18.8045 15.8647 18.6709ZM25.6438 11.1874L15.2883 6.00968C15.107 5.91902 14.893 5.91902 14.7117 6.00968L4.35625 11.1874C4.13797 11.2965 4.00004 11.52 4.00004 11.764C4.00004 12.0081 4.13797 12.2311 4.35625 12.3403L14.7117 17.518C14.8024 17.5635 14.9012 17.5863 15 17.5863C15.0988 17.5863 15.1977 17.5635 15.2883 17.518L19.9771 15.1736L15.156 12.7631C14.8376 12.6037 14.7083 12.2165 14.8677 11.8981C15.0267 11.5797 15.4138 11.4508 15.7322 11.6098L20.9099 14.1986C21.0582 14.273 21.1695 14.3997 21.2253 14.5497L25.6438 12.3403C25.8621 12.2311 26 12.0081 26 11.764C26 11.52 25.8621 11.2965 25.6438 11.1874ZM18.8716 20.3692L19.9772 19.2636V15.1736L21.2254 14.5497C21.2521 14.6206 21.2663 14.6971 21.2663 14.7753V19.2636L22.3719 20.3692C22.4928 20.4901 22.5607 20.654 22.5607 20.825V23.4138C22.5607 23.7698 22.2721 24.0584 21.9162 24.0584H19.3273C18.9713 24.0584 18.6828 23.7698 18.6828 23.4138V20.825C18.6828 20.654 18.7507 20.4901 18.8716 20.3692Z" fill="#891C7E"/>
</svg>
