<svg width="30" height="30" viewBox="0 0 30 30" fill="none" xmlns="http://www.w3.org/2000/svg">
<path fill-rule="evenodd" clip-rule="evenodd" d="M15 30C23.2843 30 30 23.2843 30 15C30 6.71573 23.2843 0 15 0C6.71573 0 0 6.71573 0 15C0 23.2843 6.71573 30 15 30ZM15 5C16.6542 5 18 5.98075 18 7.18628C18 8.18885 17.0686 9.03546 15.8034 9.29213V25H14.1966V9.29213C12.9314 9.03546 12 8.18885 12 7.18628C12 5.98075 13.346 5 15 5ZM20.8766 7C19.7059 7 18.7533 7.97111 18.7533 9.1648C18.7533 9.99494 19.2143 10.717 19.8888 11.0801L17 25H18.1626L21.0005 11.3255C22.1138 11.2599 23 10.316 23 9.1648C23 7.97111 22.0475 7 20.8766 7ZM10.1113 11.0801L13 25H11.8373L8.99946 11.3255C7.88613 11.2599 7 10.316 7 9.1648C7 7.97111 7.95252 7 9.12336 7C10.2942 7 11.2467 7.97111 11.2467 9.1648C11.2467 9.99494 10.7856 10.717 10.1113 11.0801Z" fill="#891C7E"/>
</svg>
