<svg width="68" height="68" viewBox="0 0 68 68" fill="none" xmlns="http://www.w3.org/2000/svg">
<path fill-rule="evenodd" clip-rule="evenodd" d="M19.7451 6.99515C19.5473 7.19254 19.3902 7.42704 19.2831 7.68521C19.176 7.94337 19.1208 8.22014 19.1208 8.49965C19.1208 8.77916 19.176 9.05593 19.2831 9.31409C19.3902 9.57226 19.5473 9.80676 19.7451 10.0041L43.7449 33.9997L19.7451 57.9952C19.5476 58.1927 19.3908 58.4273 19.2839 58.6854C19.177 58.9436 19.122 59.2202 19.122 59.4997C19.122 59.7791 19.177 60.0557 19.2839 60.3139C19.3908 60.572 19.5476 60.8066 19.7451 61.0042C19.9427 61.2017 20.1773 61.3585 20.4354 61.4654C20.6936 61.5723 20.9702 61.6273 21.2496 61.6273C21.5291 61.6273 21.8057 61.5723 22.0639 61.4654C22.322 61.3585 22.5566 61.2017 22.7541 61.0042L48.2542 35.5042C48.452 35.3068 48.6091 35.0723 48.7162 34.8141C48.8233 34.5559 48.8785 34.2792 48.8785 33.9997C48.8785 33.7201 48.8233 33.4434 48.7162 33.1852C48.6091 32.927 48.452 32.6925 48.2542 32.4952L22.7541 6.99515C22.5568 6.79725 22.3223 6.64025 22.0641 6.53312C21.8059 6.42599 21.5292 6.37085 21.2496 6.37085C20.9701 6.37085 20.6934 6.42599 20.4352 6.53312C20.177 6.64025 19.9425 6.79725 19.7451 6.99515Z" fill="#B0A2A2"/>
</svg>
