<svg width="48" height="48" viewBox="0 0 48 48" fill="none" xmlns="http://www.w3.org/2000/svg">
<circle cx="24" cy="24" r="22.5" stroke="white" stroke-width="3"/>
<path d="M31.0622 13.2656C29.6574 13.2656 28.5142 14.4089 28.5142 15.8137C28.5142 17.2185 29.6574 18.3618 31.0622 18.3618C32.467 18.3618 33.6103 17.2185 33.6103 15.8137C33.6103 14.4089 32.4704 13.2656 31.0622 13.2656Z" fill="white"/>
<path d="M31.1125 11.3223C27.867 11.3223 25.2251 13.9642 25.2251 17.2097C25.2251 17.8132 25.3156 18.3965 25.4866 18.9464L23.7298 19.7879C22.3887 17.7394 20.0786 16.3816 17.4501 16.3816C13.3162 16.3816 9.95337 19.7444 9.95337 23.8783C9.95337 28.0123 13.3162 31.375 17.4501 31.375C19.3746 31.375 21.1314 30.6441 22.4591 29.4505L23.5386 30.3457C22.801 31.5795 22.6636 33.1419 23.3073 34.5433C24.3433 36.7997 27.0222 37.7922 29.2786 36.7562C31.5349 35.7202 32.5273 33.0413 31.4914 30.7849C30.4554 28.5285 27.7765 27.5362 25.5168 28.5722C25.1681 28.7331 24.8496 28.9343 24.5612 29.1656L23.5051 28.2871C24.4104 27.05 24.9468 25.5245 24.9468 23.875C24.9468 22.9899 24.7926 22.1382 24.5076 21.347L26.2443 20.5122C27.3038 22.0678 29.0908 23.0904 31.1125 23.0904C34.3579 23.0904 36.9999 20.4484 36.9999 17.203C36.9999 13.9609 34.3579 11.3223 31.1125 11.3223ZM25.956 29.5276C27.686 28.733 29.7412 29.4941 30.5358 31.2242C31.1628 32.5887 30.8241 34.1511 29.8049 35.1401C29.5333 33.8493 28.95 33.38 28.7823 33.2694C28.7656 33.2861 28.7488 33.2995 28.7321 33.3129C28.7153 33.3297 28.6985 33.343 28.6784 33.3598C28.6415 33.39 28.6047 33.4168 28.5644 33.447L27.7799 35.1033L27.6089 34.1578L27.8402 33.7756C27.81 33.7823 27.7832 33.789 27.753 33.7923C27.6793 33.8057 27.6022 33.8158 27.5251 33.8225C27.4815 33.8259 27.4412 33.8292 27.3977 33.8292C27.2334 33.8292 27.0724 33.8125 26.9182 33.7756L27.163 34.1612L27.0221 35.1267L26.1169 33.3934C26.0767 33.3598 26.0364 33.3263 25.9962 33.2928L25.9795 33.3062C25.3894 33.8259 25.1044 34.54 24.9669 35.1267C24.6752 34.8417 24.4305 34.4998 24.2494 34.1075C23.4649 32.3775 24.226 30.3222 25.956 29.5276ZM19.5992 26.0877C19.5489 26.1481 18.5833 26.7818 18.5833 26.7818L19.0594 27.4322L17.5507 28.6157L17.554 28.6224L17.5507 28.6191L17.5473 28.6224L17.5507 28.6157L16.0419 27.4322L16.518 26.7818C16.518 26.7818 15.5491 26.1514 15.5021 26.0877C15.415 25.9804 15.9346 25.4809 15.9346 25.4809L17.554 28.609L19.1734 25.4809C19.1667 25.4842 19.6864 25.9804 19.5992 26.0877ZM21.3929 28.0558C21.1984 27.1037 20.8934 26.423 20.5983 25.9537C20.8263 24.9009 21.0107 23.5632 20.8799 22.6244C20.8598 22.4802 20.8397 22.3427 20.8162 22.212C20.8095 22.1047 20.7995 21.9974 20.7794 21.8834C20.7089 21.4777 20.5882 21.0888 20.4206 20.7301C20.1624 20.093 19.8205 19.6538 19.3578 19.3621C18.8716 18.9866 18.2782 18.7621 17.601 18.7621C17.2623 18.7621 16.9371 18.8157 16.632 18.9163C15.6832 19.1107 15.2675 19.6974 15.1132 19.9154C14.9724 20.1165 14.8551 20.3513 14.7545 20.6094C14.6606 20.8173 14.5902 21.0386 14.5433 21.2699C14.4025 21.7996 14.3019 22.393 14.1979 23.0032C14.0269 23.999 13.8492 25.0316 13.4939 25.9C13.4838 25.9268 13.4871 25.9604 13.5073 25.9805C13.5274 26.004 13.5542 26.014 13.5844 26.0106C13.9599 25.9402 14.2449 25.843 14.4829 25.605C14.3019 26.0844 13.6146 26.4398 13.6045 26.4431C13.5777 26.4566 13.5643 26.4834 13.5609 26.5102C13.5576 26.5404 13.571 26.5672 13.5944 26.5806C13.6078 26.5906 13.7352 26.6745 13.9431 26.7784C13.742 27.2176 13.6045 27.6569 13.5106 28.0625C12.3975 27.0131 11.7001 25.5245 11.7001 23.8783C11.7001 20.7066 14.2784 18.1283 17.4501 18.1283C20.6218 18.1283 23.2 20.7066 23.2 23.8783C23.2 25.5212 22.5027 27.0064 21.3929 28.0558ZM34.2674 20.4317C33.9355 18.638 33.1375 17.9809 32.9129 17.8266C32.8894 17.8467 32.8693 17.8668 32.8458 17.887C32.8224 17.9071 32.7989 17.9272 32.7755 17.9473C32.7252 17.9875 32.6749 18.0244 32.6246 18.0613L31.5551 20.2574L31.3438 18.99L31.659 18.4804C31.6188 18.4871 31.5819 18.4972 31.5417 18.5039C31.4411 18.5206 31.3405 18.534 31.2365 18.5407C31.1795 18.5441 31.1225 18.5474 31.0655 18.5474C30.8476 18.5474 30.6331 18.5206 30.4285 18.4703L30.7504 18.99L30.5492 20.2775L29.3657 17.9506C29.3121 17.907 29.2584 17.8635 29.2081 17.8132L29.1847 17.8333C28.3834 18.5274 27.9911 19.4829 27.8033 20.2708C27.0557 19.4661 26.5997 18.3865 26.5997 17.2063C26.5997 14.7186 28.6248 12.6902 31.1158 12.6902C33.6069 12.6902 35.632 14.7153 35.632 17.2063C35.6253 18.4703 35.1056 19.6136 34.2674 20.4317Z" fill="white"/>
<path d="M27.3641 29.8663C26.3113 29.8764 25.4631 30.7447 25.4765 31.7975C25.4865 32.8502 26.3515 33.6985 27.4043 33.6851C28.4571 33.6751 29.3053 32.81 29.2919 31.7573C29.2818 30.7045 28.4168 29.8562 27.3641 29.8663Z" fill="white"/>
<path d="M17.5471 28.6149H17.5507L17.5471 28.6113V28.6149Z" fill="white"/>
</svg>
