<svg width="170" height="170" viewBox="0 0 170 170" fill="none" xmlns="http://www.w3.org/2000/svg">
<g clip-path="url(#clip0)">
<g clip-path="url(#clip1)">
<path d="M96.9709 81.7854C95.8139 81.6797 93.8737 82.3291 95.3689 85.7729C96.7039 88.3556 99.3739 91.165 99.7299 92.9775C100.086 94.79 100.931 97.7352 97.5939 101.859C94.9239 104.94 86.2463 113.141 84.6443 115.679C82.8643 117.944 75.8356 126.561 78.5923 136.93C81.9052 149.392 87.9304 153.056 91.5864 155.327C94.0473 156.856 95.2799 156.233 94.8794 154.103C94.4071 151.592 89.7173 148.304 90.6074 146.083C91.4974 143.863 94.3574 148.936 96.8819 152.744C97.9633 154.375 98.7064 155.236 99.7299 156.233C101.528 157.984 108.986 164.707 117.886 160.266" stroke="#A9336C" stroke-width="2"/>
<path d="M80.8271 54.5121C81.2509 58.3103 80.0031 60.6164 79.3262 61.2947C79.2526 61.37 79.2379 61.6383 79.7676 62.1086C80.9154 63.2842 82.5487 62.3799 82.8136 63.3747C83.0785 64.3695 82.6812 64.5503 82.8136 65.4095C82.946 66.2686 84.3145 66.2234 84.0055 66.6303C83.7583 66.9559 83.7554 67.399 83.7848 67.5799C83.8289 67.6402 84.1115 67.8964 84.8884 68.439C86.3452 70.0669 86.2128 71.1973 86.4335 72.9608C86.6101 74.3716 88.3023 74.1214 89.1263 73.8199C90.3476 73.2472 93.1965 71.966 94.821 71.4234C96.6751 71.3782 98.6616 72.4182 99.2355 75.8999C99.6946 78.6853 97.5727 80.919 96.4543 81.6877C97.3225 82.2304 100.18 83.1257 104.665 82.366C109.15 81.6064 109.801 83.4964 109.565 84.5364C108.624 87.7318 106.625 94.7465 106.166 97.2425C105.592 100.363 107.27 105.291 109.124 103.528C111.031 101.502 111.184 103.859 111.022 105.291L106.166 119.716C105.872 120.801 105.46 123.93 106.166 127.764C106.873 131.599 110.728 135.24 112.567 136.582C111.979 134.215 111.04 128.298 111.993 123.559C113.185 117.636 116.055 111.35 117.865 107.688C119.313 104.758 119.321 101.282 119.145 99.9104L117.865 92.5399C117.232 88.6512 115.887 79.9876 115.569 76.4425C115.172 72.0112 114.907 65.4547 114.907 64.5956C115.216 60.7521 113.789 60.5712 112.876 60.7521C111.876 61.0083 109.813 61.1952 109.565 59.8929C109.609 56.7729 110.139 57.4512 111.331 53.6529C112.523 49.8547 110.757 46.5538 108.506 49.3573C106.254 52.1608 104.356 49.9451 102.944 48.5434C101.536 47.507 102.364 49.3442 102.632 49.9388L102.635 49.9451C102.899 50.5329 103.827 52.0703 102.37 52.0703C94.4237 53.0199 87.2722 37.9625 86.9632 36.832C86.6101 35.1319 85.9626 35.5207 85.683 35.9277C84.962 36.8923 83.4405 37.863 83.1226 34.0286C82.8048 30.1941 81.7247 27.4268 81.2244 26.5225C81.3303 28.3673 77.7075 34.1642 75.8829 36.832C74.8528 38.1132 72.9781 41.0282 73.7198 42.439C74.6468 44.2025 74.1612 42.9364 75.0883 45.0164C75.8299 46.6804 76.9865 45.7097 77.4721 45.0164C77.8988 43.8407 78.973 41.1187 79.8559 39.6355C81.4098 37.4651 81.1508 39.4245 80.8271 40.6755C79.9295 42.6651 78.2049 47.0241 78.4874 48.5434C78.8406 50.4425 79.8559 52.5677 80.8271 54.5121Z" stroke="#A9336C" stroke-width="2"/>
<path d="M81.3958 27.0068C80.6113 24.5646 80.4006 19.4745 83.5715 17.3285C86.729 15.1915 88.594 22.9251 94.2292 27.1311C96.0941 28.1713 96.627 26.7241 96.0941 25.8648C95.5613 25.0055 90.8536 18.9566 92.3189 16.4239C93.7842 13.8913 102.576 25.1525 104.707 23.1626C105.418 22.1676 100.4 19.047 101.999 17.1023C103.278 15.5466 107.268 18.5646 109.103 20.2681C112.004 23.1927 118.366 28.6349 120.604 27.0068C122.842 25.3786 124.703 28.1676 125.355 29.7656C125.399 29.9314 125.754 30.3173 126.82 30.5344C128.152 30.8057 129.973 30.8057 130.994 32.1625C132.015 33.5193 131.482 33.8811 131.616 35.2379C131.749 36.5946 133.17 39.1273 133.303 40.077C133.436 41.0268 133.88 41.2529 132.548 42.7001C131.216 44.1474 128.951 44.8257 127.619 47.087C127.442 47.7383 127.841 48.2026 128.063 48.3534C128.522 48.7905 128.969 49.9905 127.086 51.293C126.838 51.6548 127.072 51.896 127.353 52.1523C128.079 52.814 129.168 54.2779 127.259 55.2729C125.976 55.7252 125.088 55.6799 124.555 56.3131C124.16 56.7825 125.666 57.6777 126.376 58.2354C127.442 59.0719 128.285 61.1085 125.976 62.2152C124.467 62.9389 120.826 63.0065 119.494 63.4588C118.161 63.911 116.607 63.911 115.142 66.6246" stroke="#A9336C" stroke-width="2"/>
<path d="M100.285 33.2006C105.6 39.3261 118.798 50.9146 121.632 50.8057C125.175 50.6696 114.059 43.682 113.483 41.4133C112.907 39.1446 115.653 41.6855 117.823 43.0468C119.994 44.408 120.702 42.6838 119.905 41.4133C119.108 40.1428 112.376 31.7487 114.059 30.7051C115.742 29.6615 117.602 30.9319 123.359 31.6579C126.46 32.3385 124.068 37.4658 125.175 42.23C125.618 43.319 126.637 42.593 129.471 39.19" stroke="#A9336C" stroke-width="2"/>
<path d="M106.693 52.6255C106.854 53.0478 107.643 53.3404 109.507 51.1325C110.431 50.3181 110.387 54.5258 108.276 56.6975C107.045 57.7381 106.033 57.3761 106.209 56.5618C106.35 55.9102 106.825 55.8378 107.045 55.8831C107.44 55.8831 108.188 56.3536 108.012 58.2358C107.792 60.5885 107.836 67.5794 105.505 67.8728C104.582 67.6013 105.637 63.3484 109.068 64.1175C109.932 64.404 110.343 66.1082 108.364 67.8728C108.232 67.9934 107.965 68.1148 107.836 68.1442C107.44 68.2347 106.781 67.6918 110.563 66.244L110.123 67.6013C110.988 67.1941 112.726 66.3706 112.762 66.3345C112.8 66.2952 108.767 69.5589 109.966 71.99M109.966 71.99C110.149 72.3611 110.387 72.7245 111.003 72.9853C111.75 73.302 112.278 72.8043 112.278 72.3971C112.278 71.99 111.393 73.1211 109.966 71.99Z" stroke="#A9336C" stroke-width="2"/>
<path d="M85.5121 54.4825L84.9128 56.8219C85.0358 56.5155 85.6227 55.836 86.9871 55.5687C88.3515 55.3013 89.7374 54.0648 90.2598 53.48C88.5267 54.3489 86.3725 54.5104 85.5121 54.4825Z" fill="#A9336C"/>
<path d="M86.0002 51.3755C86.107 51.8993 85.8666 52.6995 85.7329 53.0342C85.7062 52.7898 85.1651 50.7208 85.4323 50.5898C85.6327 50.5462 85.8666 50.7208 86.0002 51.3755Z" stroke="#A9336C" stroke-width="2"/>
<path d="M87.5864 65.8437C85.1876 67.2171 85.0669 68.1326 85.1876 68.4073L84.1466 67.8122C84.0863 67.7511 83.9384 67.5558 83.8298 67.2628C83.7212 66.9698 83.9957 66.5914 84.1466 66.4388C82.988 66.0726 82.8492 65.3706 82.9246 65.0654C84.3729 66.0176 86.0928 66.0726 87.5864 65.8437Z" fill="#A9336C"/>
<path d="M104.073 62.1685C103.968 63.3107 103.213 66.1028 101.194 67.572C98.9007 69.2413 97.1915 70.2517 94.4929 71.5257" stroke="#A9336C" stroke-width="2"/>
<path d="M77.2994 94.9652C80.0949 82.6296 85.2611 81.5746 88.092 81.8C88.9324 81.9202 90.8786 82.5935 91.9401 84.3248C92.6036 85.2717 94.5056 87.9318 93.8421 98.3467C93.1786 108.762 92.0728 121.747 93.3555 129.186C94.6383 136.625 96.9383 142.622 100.919 147.761C104.9 152.901 109.721 156.553 114.543 153.532C116.223 150.737 112.685 146.86 111.844 145.823M77.2994 94.9652C73.8051 110.385 71.505 120.169 68.4973 123.821C66.0793 122.829 62.7471 119.041 64.8703 110.836C65.4453 109.799 69.8242 107.544 73.9378 101.683C76.4059 98.1664 76.9013 96.0172 77.2994 94.9652Z" stroke="#A9336C" stroke-width="2"/>
<path d="M83.1304 47.6132C83.343 48.4845 84.0752 49.3625 84.4148 49.6925C85.2297 48.6231 88.7995 47.4646 90.4825 47.019H87.6037C85.584 47.732 83.78 47.7122 83.1304 47.6132Z" fill="#A9336C"/>
<path d="M112.461 136.358C113.725 137.669 115.351 140.886 114.087 142.188C113.328 142.694 111.332 141.194 110.429 140.38C110.007 140.019 109.092 139.513 108.803 140.38C108.514 141.248 109.525 142.941 110.067 143.679L110.88 144.764L111.874 145.938" stroke="#A9336C" stroke-width="2"/>
<path d="M73.6619 23.5146C55.9128 25.8168 20.3032 42.6748 20.3032 87.5674C20.3032 113.868 40.2431 144.714 78.7861 148.278" stroke="#A9336C" stroke-width="2"/>
<path d="M134.038 48.6899C144.621 61.8347 159.793 105.836 120.225 136.581" stroke="#A9336C" stroke-width="2"/>
<path d="M94.5176 65.0652C94.039 64.8166 93.3789 64.0552 93.3789 62.9109C93.3789 62.2066 93.8245 60.5495 96.1019 58.271C98.4784 56.1581 97.9833 56.6553 99.6171 55.0396" stroke="#A9336C" stroke-width="2"/>
<path d="M83.9013 143.043C81.8731 138.677 79.512 127.724 86.2932 118.834C88.0976 118.188 86.7548 121.831 86.2932 123.768C85.8316 125.705 84.4049 129.901 84.6566 135.526C84.7784 138.247 85.412 138.524 85.7896 138.155C86.1472 137.806 86.0414 134.005 86.8807 132.944C87.9298 132.206 87.9857 135.281 87.9298 136.725C87.9717 138.385 88.3242 141.503 89.3985 140.691C90.4727 139.879 91.6085 137.248 92.0421 136.034L90.5315 129.993" stroke="#A9336C" stroke-width="2"/>
</g>
</g>
<defs>
<clipPath id="clip0">
<rect width="170" height="170" fill="white"/>
</clipPath>
<clipPath id="clip1">
<rect width="160.41" height="160.41" fill="white" transform="translate(18.7437 9.58984)"/>
</clipPath>
</defs>
</svg>
