<svg width="177" height="38" viewBox="0 0 177 38" fill="none" xmlns="http://www.w3.org/2000/svg">
<path d="M33.6226 0C23.3284 0 15.1079 8.512 15.1079 19C15.1079 29.564 23.4025 38 33.6226 38C43.8426 38 52.1372 29.488 52.1372 19C52.2853 8.512 43.8426 0 33.6226 0ZM33.6226 26.068C29.8456 26.068 26.7351 22.8 26.7351 19C26.7351 15.2 29.9196 11.932 33.6226 11.932C37.3255 11.932 40.51 15.2 40.51 19C40.51 22.8 37.4736 26.068 33.6226 26.068Z" fill="#8B3FFD"/>
<path d="M15.1079 5.54785V33.2119H8.44268L0 5.54785H15.1079Z" fill="#8B3FFD"/>
<path d="M171.297 10.4883L167.224 20.8243C167.076 20.9763 167.076 21.2043 167.076 21.2803L166.928 21.5083L166.78 21.2803C166.78 21.1283 166.632 20.9003 166.632 20.8243L162.558 10.4883H157.3L164.188 28.1963L161.225 34.9603H166.484L176.185 10.5643H171.297V10.4883Z" fill="black"/>
<path d="M132.417 11.4004C131.454 10.7164 130.343 10.1844 128.936 10.1084C126.566 9.88041 124.344 10.7164 122.863 12.2364V10.3364H118.049V28.0444H122.863V18.7724C122.863 16.7204 123.233 16.1124 123.53 15.6564C124.122 14.6684 125.159 14.2124 126.492 14.2124C127.751 14.2124 128.936 14.8204 129.528 15.8084C129.899 16.4924 129.973 17.4804 129.973 17.9364C129.973 19.5324 129.973 28.0444 129.973 28.0444H134.787V17.3284C134.787 14.5164 133.972 12.6164 132.417 11.4004Z" fill="black"/>
<path d="M108.866 10.5638C106.496 9.72778 103.978 9.87978 101.608 10.9438C100.053 11.6278 98.6461 12.8438 97.8314 14.4398C97.0168 15.7318 96.6465 17.4798 96.6465 19.2278C96.6465 20.9758 97.0168 22.7238 97.8314 24.0158C98.6461 25.3078 99.6829 26.5238 101.09 27.2838C102.497 27.9678 104.126 28.4998 105.682 28.4998C106.496 28.4998 107.311 28.3478 108.126 28.1198C108.792 27.8918 109.533 27.6638 110.199 27.2838C111.606 26.4478 112.791 25.3838 113.458 24.0158C114.272 22.7238 114.643 20.9758 114.643 19.2278C114.865 15.2758 112.643 11.9318 108.866 10.5638ZM110.273 19.4558C110.125 21.0518 109.681 22.3438 108.718 23.1798C108.052 23.7878 106.941 24.1678 105.682 24.2438C104.423 24.2438 103.46 23.8638 102.645 23.1798C101.682 22.3438 101.238 21.0518 101.09 19.4558C100.942 17.6318 101.682 16.1878 102.941 15.2758C103.608 14.8198 104.571 14.4398 105.534 14.4398C106.57 14.4398 107.385 14.8198 108.2 15.2758C109.681 16.1118 110.421 17.7078 110.273 19.4558Z" fill="black"/>
<path d="M91.1659 11.4004C90.2031 10.7164 89.0923 10.1844 87.6852 10.1084C87.463 10.1084 87.0927 10.1084 86.8705 10.1084C85.0191 10.1084 83.3898 10.9444 81.9826 12.6164L81.7605 12.9964H81.3161C80.9458 12.3884 80.5015 11.9324 80.0571 11.5524C79.0944 10.8684 77.9835 10.3364 76.5764 10.2604C74.3546 10.0324 72.5772 10.7164 71.096 12.3884V10.5644H66.2822V28.2724H71.096V19.0004V18.7724C71.096 16.8724 71.3182 16.3404 71.6885 15.7324C72.281 14.7444 73.3178 14.1364 74.5027 14.2884C75.6877 14.2884 76.7245 14.8964 77.317 15.8844C77.7613 16.5684 77.7613 17.4804 77.7613 18.3164V28.1964H82.5751V18.6204C82.5751 16.7964 82.7973 16.1884 83.1676 15.5804C83.7601 14.5924 84.7969 14.1364 85.9818 14.1364C87.1667 14.1364 88.0554 14.7444 88.6479 15.7324C89.0182 16.3404 89.0923 17.0244 89.0923 17.5564C89.0923 17.7844 89.0923 18.0124 89.0923 18.1644V28.0444H93.9061V17.1764C93.9061 16.1884 93.758 15.2764 93.5358 14.4404C92.9433 13.2244 92.2027 12.1604 91.1659 11.4004Z" fill="black"/>
<path d="M152.783 22.7242C152.116 23.4082 150.413 24.7762 148.191 24.8522C146.34 25.0042 144.932 24.3962 143.822 23.2562C143.377 22.8002 143.007 22.0402 142.785 21.3562H156.041V21.2802C156.189 20.5962 156.263 19.9882 156.263 19.2282C156.263 18.6202 156.115 17.7842 155.893 16.7202C155.301 14.6682 154.116 13.1482 152.635 11.9322C150.857 10.6402 149.228 10.2602 148.783 10.2602C145.377 9.65225 141.526 11.2482 139.526 14.4402C138.119 16.7202 138.267 19.0002 138.267 19.7602C138.267 20.5962 138.415 23.2562 140.489 25.6882C142.933 28.4242 146.34 28.5762 147.376 28.7282C152.042 28.8802 155.227 25.8402 155.967 25.2322L152.783 22.7242ZM144.636 15.2762C145.303 14.8202 146.191 14.4402 147.228 14.4402C148.265 14.4402 149.08 14.8202 149.894 15.2762C150.561 15.8842 151.153 16.5682 151.524 17.4042H143.081C143.229 16.5682 143.748 15.7322 144.636 15.2762Z" fill="black"/>
</svg>
