<svg width="150" height="35" viewBox="0 0 150 35" fill="none" xmlns="http://www.w3.org/2000/svg">
<path d="M78.2479 9.63209H73.4039L69.9759 15.5671H68.2114L68.155 2.72266H63.5693V25.9201H68.155L68.2114 19.5533H69.9646L74.5165 25.9201H79.5968L73.6622 17.4827L78.2479 9.63209Z" fill="black"/>
<path d="M112.955 17.2716C112.024 16.6777 111.014 16.2119 109.954 15.8875L108.942 15.5111L108.673 15.4114C108.044 15.1788 107.38 14.9353 107.358 14.3041C107.352 14.1172 107.394 13.9318 107.481 13.7653C107.567 13.5987 107.695 13.4565 107.852 13.3518C108.185 13.1264 108.574 12.9961 108.976 12.9754C109.854 12.9157 110.725 13.1713 111.426 13.6951L111.55 13.7726L114 10.9933L113.877 10.8937C113.572 10.6258 113.241 10.3884 112.888 10.1851C112.255 9.82883 111.569 9.57817 110.854 9.44317C109.823 9.22728 108.759 9.22728 107.729 9.44317C106.733 9.573 105.789 9.95444 104.987 10.5504C104.473 10.9457 104.045 11.4367 103.725 11.9953C103.405 12.5538 103.2 13.1691 103.121 13.8058C102.98 14.9549 103.276 16.1146 103.952 17.0612C104.85 18.0408 106.024 18.7347 107.324 19.0543L107.526 19.1208L107.987 19.2758C109.651 19.8294 110.123 20.0509 110.392 20.3831C110.518 20.5502 110.589 20.7511 110.595 20.9588C110.595 21.745 109.617 22.0661 108.954 22.2654C108.49 22.3512 108.014 22.3424 107.554 22.2396C107.093 22.1368 106.66 21.9421 106.279 21.6675C105.663 21.2616 105.136 20.7383 104.728 20.1284C104.47 20.3942 101.929 22.8634 101.974 22.9077L102.053 23.0184C103.277 24.528 104.992 25.576 106.908 25.9859C107.346 26.0693 107.789 26.1248 108.235 26.152H108.695C110.21 26.1832 111.693 25.7286 112.921 24.8565C113.753 24.2773 114.39 23.468 114.754 22.5312C114.975 21.9023 115.052 21.2333 114.982 20.5713C114.913 19.9094 114.697 19.2706 114.349 18.7C113.993 18.131 113.518 17.6438 112.955 17.2716Z" fill="black"/>
<path d="M127.769 17.2718C126.841 16.6779 125.835 16.2122 124.779 15.8877L123.756 15.5113L123.498 15.4116C122.857 15.179 122.206 14.9354 122.172 14.3043C122.175 14.1177 122.222 13.9344 122.31 13.769C122.398 13.6037 122.524 13.4609 122.678 13.352C123.01 13.1265 123.399 12.9963 123.801 12.9756C124.679 12.9179 125.549 13.1733 126.252 13.6953L126.364 13.7728L128.814 10.9935L128.702 10.8939C128.394 10.6234 128.06 10.3858 127.701 10.1853C127.073 9.82949 126.39 9.57876 125.678 9.44338C124.644 9.22721 123.576 9.22721 122.543 9.44338C121.548 9.57704 120.604 9.9581 119.8 10.5507C119.284 10.9422 118.851 11.4304 118.527 11.9872C118.203 12.544 117.994 13.1583 117.912 13.795C117.765 14.9445 118.061 16.1065 118.744 17.0504C119.641 18.03 120.816 18.7238 122.115 19.0435L122.306 19.1099L122.767 19.2649C124.442 19.8185 124.914 20.04 125.184 20.3722C125.313 20.5365 125.381 20.74 125.375 20.948C125.375 21.7342 124.408 22.0553 123.745 22.2546C123.28 22.3406 122.801 22.3319 122.339 22.2292C121.877 22.1263 121.441 21.9315 121.059 21.6567C120.448 21.2448 119.922 20.7225 119.508 20.1175C119.261 20.3833 116.72 22.8525 116.754 22.8968L116.844 23.0075C118.068 24.5172 119.783 25.5652 121.7 25.975C122.137 26.0592 122.581 26.1147 123.026 26.1411H123.487C125.001 26.1724 126.484 25.7177 127.713 24.8456C128.544 24.2665 129.181 23.4572 129.545 22.5203C129.765 21.8914 129.844 21.2224 129.774 20.5605C129.704 19.8985 129.488 19.2598 129.14 18.6892C128.789 18.127 128.322 17.644 127.769 17.2718Z" fill="black"/>
<path d="M93.309 9.63122V11.2257H93.1071C91.8518 9.9875 90.1511 9.28722 88.3753 9.27689C87.2864 9.25566 86.2048 9.46066 85.2022 9.87844C84.199 10.2963 83.2962 10.9176 82.5529 11.7018C81.0541 13.3554 80.2505 15.5091 80.3052 17.7254C80.2471 19.9789 81.049 22.1718 82.5529 23.8708C83.2787 24.6556 84.1668 25.2773 85.1582 25.6939C86.149 26.1104 87.2193 26.3119 88.2964 26.2847C90.0749 26.2518 91.7853 25.6052 93.1291 24.4577H93.309V25.886H98.0746V9.63122H93.309ZM93.5452 17.814C93.5932 19.1239 93.1488 20.4052 92.2973 21.4127C91.8896 21.8628 91.386 22.219 90.8227 22.4563C90.2599 22.6935 89.6503 22.806 89.0385 22.7857C88.4447 22.7955 87.8559 22.6732 87.3169 22.4278C86.7778 22.1823 86.3018 21.8202 85.9251 21.3683C85.0838 20.3401 84.6524 19.0448 84.711 17.7254C84.6727 16.4457 85.1125 15.1967 85.9471 14.2153C86.3317 13.7703 86.811 13.4144 87.3512 13.1733C87.8915 12.9321 88.4791 12.8115 89.0717 12.8202C89.6802 12.8015 90.2847 12.916 90.8424 13.1553C91.4001 13.3947 91.8975 13.7529 92.2973 14.2043C93.1488 15.2161 93.5926 16.5008 93.5452 17.814Z" fill="black"/>
<path d="M145.144 9.63203V11.2265H144.941C143.689 9.99103 141.993 9.29091 140.221 9.27769C139.131 9.25775 138.048 9.46319 137.043 9.88086C136.039 10.2986 135.134 10.9192 134.388 11.7026C132.889 13.3562 132.085 15.51 132.14 17.7262C132.082 19.9797 132.884 22.1727 134.388 23.8716C135.114 24.6564 136.002 25.2782 136.993 25.6947C137.984 26.1112 139.054 26.3127 140.131 26.2855C141.91 26.2526 143.62 25.6061 144.964 24.4585H145.144V25.8869H149.91V9.63203H145.144ZM145.38 17.8148C145.433 19.1255 144.988 20.4087 144.132 21.4135C143.725 21.8636 143.221 22.2199 142.658 22.4571C142.094 22.6944 141.485 22.8069 140.873 22.7865C140.279 22.7964 139.691 22.674 139.152 22.4286C138.613 22.1832 138.137 21.821 137.76 21.3692C136.919 20.3409 136.487 19.0456 136.546 17.7262C136.508 16.4465 136.947 15.1975 137.782 14.2162C138.167 13.7711 138.646 13.4153 139.186 13.1741C139.726 12.9329 140.314 12.8123 140.907 12.821C141.515 12.8024 142.12 12.9168 142.677 13.1561C143.235 13.3955 143.732 13.7537 144.132 14.2051C144.988 15.2144 145.433 16.5008 145.38 17.8148Z" fill="black"/>
<path d="M32.2666 0C22.3732 0 14.5034 7.86394 14.5034 17.5C14.5034 27.2468 22.4856 35 32.2666 35C42.0476 35 50.0297 27.1361 50.0297 17.5C50.0297 7.86394 42.0476 0 32.2666 0ZM32.2666 23.9241C28.669 23.9241 25.6335 20.9336 25.6335 17.3892C25.6335 13.8449 28.669 10.8544 32.2666 10.8544C35.8642 10.8544 38.8997 13.8449 38.8997 17.3892C38.7872 21.0443 35.8642 23.9241 32.2666 23.9241Z" fill="url(#paint0_linear)"/>
<path d="M14.3904 4.98438V30.4591H8.09459L0 4.98438H14.3904Z" fill="url(#paint1_linear)"/>
<defs>
<linearGradient id="paint0_linear" x1="32.2666" y1="0" x2="32.2666" y2="35" gradientUnits="userSpaceOnUse">
<stop stop-color="#0160D1"/>
<stop offset="1" stop-color="#00479C"/>
</linearGradient>
<linearGradient id="paint1_linear" x1="7.19521" y1="4.98438" x2="7.19521" y2="30.4591" gradientUnits="userSpaceOnUse">
<stop stop-color="#0160D1"/>
<stop offset="1" stop-color="#00479C"/>
</linearGradient>
</defs>
</svg>
