<svg width="73" height="54" viewBox="0 0 73 54" fill="none" xmlns="http://www.w3.org/2000/svg">
<path d="M44.4561 42.1176C44.2405 42.3962 39.6249 36.8569 39.4554 36.4079C39.2858 35.959 38.3761 16.3043 38.5422 16.1381C38.7083 15.972 39.4556 15.972 39.8712 16.1381C40.2867 16.3042 40.7296 16.4649 41.6159 16.5535C42.5022 16.6421 43.1974 16.462 43.2774 16.7196C43.3567 16.9753 43.4644 21.0172 43.6921 25.3592C44.0713 32.5866 44.5907 41.9435 44.4561 42.1176Z" fill="black"/>
<path d="M27.7598 47.1513C27.4922 47.4209 23.691 41.3626 23.5541 40.8793C23.4172 40.396 24.0869 21.7872 24.4675 21.274C24.7928 20.8354 25.332 21.1122 26.1201 21.0757L26.5442 21.0248C26.9925 20.9361 27.4357 20.8647 27.7904 20.8586C28.2041 20.8516 28.588 20.4286 28.539 21.0248C28.4899 21.6211 28.0275 46.8817 27.7598 47.1513Z" fill="black"/>
<path d="M50.3251 49.442C50.8368 49.2206 51.627 48.8599 51.627 48.8599C51.627 48.8599 52.557 48.5274 52.6498 48.3611C52.7426 48.1948 52.3557 48.0646 52.1849 47.8622C51.851 47.4665 51.7058 47.2167 51.441 46.7813C51.0058 46.0659 50.7674 45.6503 50.5111 44.8689C50.1816 43.864 50.2128 43.2533 50.1392 42.2082C50.0639 41.1388 50.1392 40.5359 50.1392 39.4643C50.1392 38.3278 50.064 37.6887 50.1392 36.5542C50.2127 35.4445 50.2989 34.8225 50.5111 33.7272C50.7081 32.7104 50.8943 32.1534 51.162 31.1496C51.4051 30.238 51.5363 29.7254 51.8129 28.8215C51.9525 28.3655 52.278 27.7406 52.1849 27.6574C52.0917 27.5743 51.4598 27.3289 50.9761 27.1586C50.2705 26.9102 49.8639 26.7732 49.1163 26.6597C48.3994 26.5508 48.1866 26.5396 48.0008 26.6227C47.815 26.7059 47.5352 27.0292 47.2566 27.6574C46.9779 28.2857 47.0709 28.2025 46.513 29.1171C45.9551 30.0317 46.1749 29.7823 45.5831 30.6969C44.9914 31.6115 45.0252 31.6577 44.2813 32.6925C43.5374 33.7272 42.8865 34.7711 42.6075 35.0206C42.3286 35.27 41.2127 35.7689 40.7476 35.6857C40.2825 35.6026 40.2342 35.5195 39.8179 35.1037C39.4016 34.688 39.167 34.0228 38.981 33.7734C38.7951 33.5239 38.4747 32.3608 38.1442 31.5284C37.7899 30.6363 37.2143 28.7845 37.2143 28.7845C37.2143 28.7845 36.7879 26.9868 36.3772 25.4956C36.1624 24.7156 36.0936 24.333 35.9123 23.5463C35.5286 21.8816 35.407 20.9543 35.2614 19.2596C35.1277 17.7042 35.0833 16.7453 35.0752 15.1854C35.0662 13.4308 35.0426 12.4498 35.0752 10.6954C35.1018 9.2669 35.1684 7.1201 35.0752 7.03695C34.9821 6.95381 34.1685 7.03695 33.5875 7.03695C32.8612 7.03695 32.4527 6.99798 31.7277 7.03695C30.8869 7.08215 29.6818 7.20325 29.589 7.2864C29.4962 7.36954 29.7703 9.36342 29.868 10.6954C29.9964 12.4478 30.0359 13.432 30.1469 15.1854C30.2539 16.874 30.278 17.8229 30.4259 19.509C30.5456 20.8748 30.5716 21.3823 30.6119 22.7518C30.6539 24.1815 30.6401 25.2297 30.6119 26.6597C30.5939 27.5687 30.6523 28.0793 30.6119 28.9878C30.5742 29.8339 30.5633 30.3118 30.4259 31.1496C30.2801 32.0382 30.183 32.5418 29.868 33.3946C29.5823 34.1678 29.3642 34.5872 28.9381 35.307C28.6409 35.809 28.4702 36.0918 28.1012 36.5542C27.6229 37.1534 27.2707 37.4317 26.7064 37.9677C26.1784 38.4692 26.0006 38.9068 25.3116 39.2149C25.0034 39.3526 24.8161 39.5058 24.4747 39.4643C24.1846 39.4291 23.8072 39.6383 23.5884 39.4643C23.2721 39.2126 22.6746 38.5127 22.6746 38.5127L22.0101 36.8232C22.0101 36.8232 21.6016 35.5832 21.5116 34.8295C21.4383 34.2152 21.3455 33.2511 21.3455 33.2511L21.0963 31.1496L20.9301 28.4889V26.2729C20.9301 26.2729 21.0083 25.7525 21.0131 25.5253C21.0242 25.0048 20.9401 24.7777 20.847 24.6946C20.7538 24.6114 20.0163 24.7776 20.0163 24.7776L18.9364 24.9438C18.9364 24.9438 17.7661 24.9666 17.6866 24.9967C17.6071 25.0269 17.0914 25.3591 17.0361 25.4956C16.9241 25.7721 16.963 25.7841 16.9431 26.0776C16.9188 26.4342 16.9431 26.6813 16.9431 27.0385V28.4889C16.9431 29.2033 16.9261 29.6501 16.9431 30.3643C16.9608 31.1117 16.9114 31.5315 16.8501 32.2767C16.7965 32.928 16.6641 33.9397 16.6641 33.9397L16.3851 35.7689L16.1992 38.5127L16.0289 40.7277L15.6966 42.9706V44.6321L15.4474 46.2105L15.1151 47.4566L14.6997 48.6196C14.6997 48.6196 14.1083 50.2809 14.2013 50.4472C14.2943 50.6135 16.1087 51.12 16.4778 51.2712C17.1154 51.5324 17.4925 51.6388 18.1516 51.8532C19.2631 52.2149 19.891 52.413 21.0342 52.6847C22.4734 53.0267 23.3158 53.1414 24.7651 53.3388L24.8466 53.3499C26.0757 53.5173 26.7696 53.5868 28.0082 53.6825C29.4572 53.7944 30.2734 53.841 31.7277 53.8488C32.9266 53.8552 33.603 53.8692 34.7963 53.7656C35.9231 53.6679 36.5522 53.5539 37.6549 53.3542L37.6789 53.3499C39.1118 53.0904 39.9018 52.8845 41.3054 52.5184C42.5511 52.1935 43.2419 51.9864 44.4669 51.6038C45.454 51.2955 46.0072 51.1204 46.9776 50.7723C48.3053 50.296 49.0374 49.9992 50.3251 49.442Z" fill="black"/>
<path d="M50.7532 42.7216L50.0055 42.5924L49.8394 41.5586L50.7532 41.817C50.7532 41.817 51.667 42.2047 51.667 42.3339C51.667 42.4632 50.7532 42.7216 50.7532 42.7216Z" fill="black"/>
<path d="M50.9197 45.0478L50.172 44.9186L50.0059 43.8848L50.9197 44.1432C50.9197 44.1432 51.8335 44.5309 51.8335 44.6601C51.8335 44.7893 50.9197 45.0478 50.9197 45.0478Z" fill="black"/>
<path d="M11.299 46.3274C11.3873 46.6929 10.0965 49.3802 9.69867 49.7894C9.30084 50.1987 0.352591 52.4085 0.196185 52.3143C0.124831 52.2713 0.402583 51.52 0.660586 50.6971C0.803978 50.2397 0.845546 49.7602 0.992878 49.3679C1.16153 48.9188 1.34846 48.584 1.4241 48.5274C1.6847 48.3323 11.2108 45.9619 11.299 46.3274Z" fill="black"/>
<path d="M13.4994 36.9018C13.5749 37.1334 10.6856 39.0226 10.4746 39.0721C10.2636 39.1216 1.90637 36.9894 1.33366 36.516C1.33366 36.516 2.07283 35.8264 2.40481 35.5771C2.73679 35.3278 3.1026 34.6744 3.40168 34.4141C3.89504 33.9846 4.09286 33.8963 4.20755 33.8825C4.5198 33.8447 13.4239 36.6702 13.4994 36.9018Z" fill="black"/>
<path d="M14.4311 26.7273C14.3914 26.9902 10.7756 27.6134 10.5537 27.5711C10.3318 27.5287 3.19012 21.258 3.18671 21.0642C3.18331 20.8705 6.83203 19.5967 7.14336 19.6947C7.45469 19.7928 14.4707 26.4645 14.4311 26.7273Z" fill="black"/>
<path d="M64.4967 46.9592C64.2066 47.0796 54.8325 45.8543 54.8325 45.8543C55.3197 45.1293 55.9841 44.3817 55.9841 44.3817C56.3164 44.1325 56.5656 43.7171 56.8148 43.3017C57.064 42.8864 56.9899 42.7343 57.1932 42.6442C57.3965 42.5541 66.4771 43.1038 66.5972 43.2621C66.6592 43.3439 65.8949 44.2119 65.3715 45.1293L64.8793 46.1589C64.697 46.5973 64.5789 46.925 64.4967 46.9592Z" fill="black"/>
<path d="M56.2132 34.7255C55.9499 34.6115 55.7585 30.8979 55.829 30.6931C55.8995 30.4883 63.1745 25.3019 63.3726 25.354C63.4336 25.3701 63.4804 25.8111 63.5895 26.3637L63.6725 26.7456C63.7658 27.1344 63.9744 27.6376 64.0566 28.0493C64.2255 28.8956 64.3414 29.4986 64.2834 29.6145C64.1451 29.8908 56.4765 34.8395 56.2132 34.7255Z" fill="black"/>
<path d="M44.7726 47.6226C45.2967 47.7676 45.559 48.0718 46.1018 48.038C47.156 47.9722 47.4617 46.9913 47.9294 46.0442C48.5211 44.8459 48.2069 43.9735 48.2617 42.6382C48.3015 41.6658 48.304 41.1184 48.2617 40.146C48.2263 39.3332 48.1671 38.8797 48.0955 38.0692C48.0353 37.3875 48.0257 37.0022 47.9294 36.3247C47.8317 35.6381 47.7629 34.5801 47.5971 34.5801C47.4313 34.5801 47.2523 35.8181 46.9325 36.5739C46.6045 37.349 46.3424 37.7478 45.9356 38.4846C45.6828 38.9425 45.7063 39.3574 45.271 39.6476C45.015 39.8183 44.8192 39.9818 44.5234 39.8968C44.2359 39.8142 44.1982 39.5591 44.0249 39.3153C43.5607 38.6622 43.5948 38.1403 43.2773 37.4046C42.7598 36.2058 42.1139 34.3309 41.782 34.414C41.45 34.4971 41.4468 35.283 41.2005 35.8262C40.8229 36.6588 40.5458 37.0939 40.1205 37.9031C39.8302 38.4555 39.6218 39.2322 39.3729 39.3153C39.1239 39.3984 38.301 38.5677 37.6283 38.0692C36.7368 37.4085 36.1673 37.1121 35.3853 36.3247C34.3516 35.2837 33.3913 33.251 33.2254 33.251C33.0596 33.251 32.812 33.9551 32.5609 34.414C31.8014 35.8015 31.548 36.6669 30.8163 38.0692C30.1443 39.3571 29.1545 41.1429 28.9887 41.3091C28.8229 41.4752 28.5172 41.1957 28.2411 41.0598C27.7454 40.8159 27.5461 40.5423 27.1611 40.146C26.4777 39.4426 25.9978 38.0692 25.7489 38.0692C25.5 38.0692 25.3672 39.124 25.1674 39.8137C24.9812 40.4561 25.0486 40.8758 24.752 41.4752C24.4351 42.1156 23.7548 42.7213 23.589 42.8875C23.4231 43.0536 22.7844 42.8648 22.3429 42.6382C21.7914 42.3552 21.5118 41.7244 21.2629 41.4752C21.014 41.226 20.4319 41.0598 20.3491 41.0598C20.2664 41.0598 19.8528 42.043 19.6845 42.7213C19.4808 43.5424 19.5502 44.0358 19.5184 44.8812C19.4879 45.6917 19.4238 46.1525 19.5184 46.958C19.5918 47.5836 19.6015 48.3703 19.8507 48.5364C20.0999 48.7026 20.8612 48.2256 21.5121 48.038C22.0945 47.8701 23.0075 47.6226 23.0075 47.6226C23.0075 47.6226 24.3233 47.3666 25.1674 47.2072C26.0427 47.042 26.5305 46.9311 27.4103 46.7919C28.7975 46.5723 29.5831 46.495 30.9825 46.3765C32.0512 46.2861 32.6514 46.225 33.7239 46.2104C35.3811 46.1877 36.3135 46.2748 37.9606 46.4596C39.2328 46.6023 39.9382 46.7446 41.2005 46.958C42.5995 47.1946 43.405 47.2442 44.7726 47.6226Z" fill="white"/>
<path d="M18.687 45.4629C18.687 45.4629 21.7025 44.5159 23.6714 44.0506C27.1856 43.2203 29.2178 43.0121 32.8094 42.6384C36.3319 42.2719 38.3239 42.2263 41.8644 42.14C44.686 42.0711 49.0917 42.14 49.0917 42.14" stroke="black" stroke-width="1.32917"/>
<path d="M18.687 47.7891C18.687 47.7891 21.7025 46.8421 23.6714 46.3768C27.1856 45.5464 29.2178 45.3383 32.8094 44.9646C36.3319 44.598 38.3239 44.5525 41.8644 44.4661C44.686 44.3973 49.0917 44.4661 49.0917 44.4661" stroke="black" stroke-width="1.32917"/>
</svg>
