<svg width="60" height="50" viewBox="0 0 60 50" fill="none" xmlns="http://www.w3.org/2000/svg">
<path fill-rule="evenodd" clip-rule="evenodd" d="M29.4976 36.7612C31.081 35.3166 32.3451 33.557 33.2088 31.5953C34.0724 29.6336 34.5165 27.513 34.5126 25.3696C34.5166 23.2261 34.0725 21.1056 33.2088 19.1438C32.3452 17.1821 31.0811 15.4225 29.4976 13.9779C26.7898 11.5062 23.1979 10 19.2562 10C10.8307 10 4 16.8811 4 25.3696C4 33.8578 10.8307 40.7391 19.2562 40.7391C23.1979 40.7391 26.7901 39.2329 29.4976 36.7612Z" fill="#3A9BD9"/>
<path fill-rule="evenodd" clip-rule="evenodd" d="M39.7448 10C35.8032 10 32.2106 11.5062 29.5034 13.9779C28.9513 14.4824 28.4366 15.0262 27.9631 15.6052H31.0427C31.4655 16.1219 31.8542 16.6656 32.2066 17.2327H26.8001C26.4746 17.7572 26.1809 18.3007 25.9205 18.8603H33.0848C33.3314 19.3899 33.5475 19.9332 33.7321 20.4875H25.2745C25.0971 21.0214 24.9493 21.5647 24.8315 22.1148H34.1753C34.4041 23.1846 34.5192 24.2756 34.5188 25.3696C34.5188 27.0759 34.2419 28.7176 33.7324 30.2513H25.2745C25.4584 30.8058 25.6741 31.3492 25.9205 31.8789H33.0848C32.8249 32.4385 32.5315 32.982 32.2063 33.5064H26.8001C27.152 34.0735 27.5405 34.6172 27.9629 35.1339H31.0427C30.5698 35.7132 30.0554 36.2571 29.5034 36.7615C32.2106 39.2332 35.8032 40.7394 39.7448 40.7394C48.1701 40.7394 55.001 33.858 55.001 25.3698C55.001 16.8811 48.1701 10 39.7448 10Z" fill="#CC2131"/>
<path fill-rule="evenodd" clip-rule="evenodd" d="M52.9688 33.9371C52.9688 33.6629 53.1893 33.4404 53.4618 33.4404C53.7339 33.4404 53.9544 33.6629 53.9544 33.9371C53.9544 34.2107 53.7339 34.4332 53.4618 34.4332C53.3307 34.4327 53.2051 34.3802 53.1126 34.2872C53.0201 34.1942 52.9684 34.0682 52.9688 33.9371ZM53.4616 34.3138C53.6682 34.3138 53.8358 34.1456 53.8358 33.9368C53.8358 33.728 53.6682 33.5593 53.4616 33.5593C53.2544 33.5593 53.0868 33.728 53.0868 33.9368C53.0868 34.1456 53.2547 34.3138 53.4616 34.3138ZM53.3951 34.1546H53.2939V33.7179H53.4771C53.515 33.7179 53.5537 33.719 53.5872 33.7403C53.6046 33.7526 53.6188 33.7689 53.6284 33.7879C53.6381 33.8069 53.6429 33.828 53.6426 33.8493C53.6426 33.8984 53.6139 33.9447 53.5676 33.9621L53.6475 34.1543H53.5352L53.4692 33.9818H53.3953V34.1546V33.9076H53.4512C53.4714 33.9076 53.4943 33.9087 53.5125 33.8986C53.5206 33.8931 53.5272 33.8856 53.5317 33.8768C53.5362 33.868 53.5384 33.8583 53.5382 33.8485C53.5378 33.8397 53.5354 33.8311 53.5312 33.8235C53.5269 33.8158 53.5209 33.8092 53.5136 33.8043C53.4962 33.7937 53.4678 33.7964 53.4488 33.7964H53.3956V34.1546H53.3951Z" fill="#CC2131"/>
<path fill-rule="evenodd" clip-rule="evenodd" d="M49.7433 28.7005C49.7433 28.4263 49.9639 28.2039 50.2359 28.2039C50.5079 28.2039 50.7284 28.4263 50.7284 28.7005C50.7284 28.9747 50.5079 29.1966 50.2359 29.1966C49.9639 29.1966 49.7433 28.9745 49.7433 28.7005ZM50.2356 29.0772C50.4422 29.0772 50.6099 28.9085 50.6099 28.7003C50.6099 28.4915 50.4422 28.3227 50.2356 28.3227C50.0285 28.3227 49.8614 28.4915 49.8614 28.7003C49.8614 28.9085 50.0287 29.0772 50.2356 29.0772ZM50.1691 28.918H50.068V28.4819H50.2511C50.289 28.4819 50.3283 28.4825 50.3613 28.5043C50.3787 28.5164 50.3928 28.5327 50.4025 28.5516C50.4121 28.5705 50.417 28.5915 50.4166 28.6128C50.4166 28.6624 50.3883 28.7082 50.3416 28.7256L50.4215 28.9178H50.3097L50.2432 28.7452H50.1694V28.918V28.6711H50.2253C50.246 28.6711 50.2689 28.6727 50.2866 28.6626C50.2946 28.657 50.3011 28.6495 50.3056 28.6407C50.31 28.632 50.3123 28.6223 50.3122 28.6125C50.312 28.6036 50.3097 28.5949 50.3054 28.5871C50.3012 28.5793 50.2951 28.5727 50.2877 28.5678C50.2702 28.5577 50.2419 28.5599 50.2233 28.5599H50.1697V28.918H50.1691ZM17.3562 29.1966H15.4575L16.5859 23.2065L13.9878 29.1966H12.2564L11.9399 23.2409L10.808 29.1966H9.08447L10.5572 21.4046H13.5201L13.6768 26.2286L15.7658 21.4046H18.8532L17.3562 29.1966ZM38.5763 29.1189C38.0568 29.2626 37.6507 29.3244 37.2118 29.3244C36.2404 29.3244 35.7099 28.8335 35.7099 27.933C35.7099 27.7547 35.7296 27.565 35.7658 27.3644L35.8814 26.7448L35.9702 26.2433L36.8504 21.4043H38.7388L38.4651 22.8596H39.4341L39.1738 24.4001H38.2007L37.7003 27.0441C37.6817 27.1305 37.6709 27.2183 37.6678 27.3066C37.6678 27.6339 37.8643 27.7762 38.3157 27.7762C38.5319 27.7762 38.6995 27.7566 38.8279 27.7171L38.5763 29.1189ZM44.1221 22.9116C43.9629 22.8484 43.9255 22.8484 43.907 22.8432C43.8064 22.8209 43.7527 22.8078 43.7435 22.8061C43.6804 22.7951 43.6164 22.7898 43.5524 22.7903C42.929 22.7903 42.4796 23.07 41.8984 23.8193L42.0661 22.859H40.3464L39.1891 29.1963H41.0892C41.769 25.3206 42.0601 24.6419 42.9715 24.6419C43.0402 24.6419 43.1196 24.6474 43.2117 24.658L43.4336 24.7035L44.1221 22.9116ZM31.0492 24.8616C31.0492 25.6622 31.497 26.2136 32.5121 26.6279C33.29 26.9462 33.4102 27.0395 33.4102 27.3273C33.4102 27.7217 33.0673 27.8997 32.3077 27.8997C31.7342 27.8997 31.2013 27.822 30.5861 27.6489L30.3225 29.1107L30.4076 29.1252L30.7595 29.1901C30.8729 29.2097 31.0399 29.2285 31.2615 29.2454C31.7184 29.2811 32.0719 29.298 32.321 29.298C34.3479 29.298 35.2842 28.6288 35.2842 27.1834C35.2842 26.3136 34.8928 25.8036 33.9303 25.4196C33.1249 25.0987 33.0316 25.0276 33.0316 24.7319C33.0316 24.3903 33.3511 24.2148 33.9717 24.2148C34.3493 24.2148 34.8639 24.2505 35.352 24.3099L35.6257 22.8429C35.1285 22.7748 34.3741 22.7189 33.9355 22.7189C31.7865 22.7192 31.0427 23.6928 31.0492 24.8616ZM23.5289 29.1966H21.951L21.9878 28.5397C21.5073 29.0598 20.8667 29.3062 19.9961 29.3062C18.9671 29.3062 18.2609 28.6002 18.2609 27.5753C18.2609 26.0315 19.4878 25.1317 21.5964 25.1317C21.8125 25.1317 22.087 25.1489 22.3699 25.1805C22.4288 24.9723 22.4449 24.8823 22.4449 24.7689C22.4449 24.3494 22.1137 24.1924 21.227 24.1924C20.6849 24.1924 20.0722 24.2611 19.6491 24.3691L19.3861 24.4364L19.2157 24.4773L19.479 23.0525C20.4257 22.8083 21.0504 22.7159 21.7523 22.7159C23.3842 22.7159 24.2466 23.3597 24.2466 24.5749C24.2466 24.8875 24.218 25.1249 24.0923 25.8303L23.6955 28.0785L23.6287 28.4819L23.5802 28.8041L23.5477 29.0246L23.5289 29.1966ZM22.1437 26.3733C22.0029 26.3558 21.8612 26.347 21.7193 26.3471C20.6432 26.3471 20.0981 26.6712 20.0981 27.3112C20.0981 27.7056 20.3641 27.9575 20.7792 27.9575C21.5533 27.9578 22.111 27.3104 22.1437 26.3733ZM29.758 29.0598C29.1239 29.2319 28.4695 29.3183 27.8124 29.3168C25.6896 29.3152 24.5832 28.3415 24.5832 26.4777C24.5832 24.3023 25.9908 22.7007 27.9015 22.7007C29.4647 22.7007 30.4629 23.5977 30.4629 25.0042C30.4629 25.4711 30.3948 25.9263 30.2299 26.5687H26.4545C26.4429 26.6344 26.4368 26.701 26.4362 26.7677C26.4362 27.5023 26.9991 27.8771 28.1019 27.8771C28.78 27.8771 29.3931 27.7531 30.0737 27.4761L29.758 29.0598ZM28.7468 25.289C28.7571 25.1571 28.7626 25.0491 28.7626 24.9657C28.7626 24.4511 28.4298 24.1491 27.8645 24.1491C27.2604 24.1491 26.8284 24.5541 26.6532 25.2852L28.7468 25.289ZM50.0244 26.3234C49.7401 28.4315 48.2788 29.3664 46.3362 29.3664C44.188 29.3664 43.3204 28.0537 43.3204 26.4453C43.3204 24.1993 44.7899 22.6775 47.0593 22.6775C49.0292 22.6775 50.0751 23.9289 50.0751 25.5376C50.0751 25.929 50.0745 25.9549 50.0244 26.3234ZM48.0689 25.5125C48.0689 24.8496 47.8018 24.2238 47.0233 24.2238C46.0543 24.2238 45.4539 25.3776 45.4539 26.3962C45.4539 27.2553 45.8655 27.8327 46.5442 27.8204C46.9557 27.8204 47.8334 27.2556 48.0071 26.2692C48.0477 26.0391 48.0689 25.7867 48.0689 25.5125Z" fill="white"/>
</svg>
