<svg width="25" height="21" viewBox="0 0 25 21" fill="none" xmlns="http://www.w3.org/2000/svg">
<path d="M0.369884 10.2912C1.7769 10.2912 3.19842 10.2912 4.60543 10.2766C4.91004 8.90832 5.49025 7.64189 6.14299 6.41913C6.78122 5.19637 7.47747 4.0027 8.30428 2.91095C9.00053 1.99388 9.81282 1.03315 10.9732 0.683792C11.8726 0.407215 13.1635 0.407208 13.9758 0.931248C14.7881 1.44073 14.8317 2.35781 14.4255 3.15843C13.8018 4.33752 12.8879 5.53116 12.0321 6.53557C11.1908 7.53998 10.1464 8.29693 9.07306 9.05388C8.55087 9.4178 8.02868 9.78171 7.43396 10.0292C7.21638 10.1165 6.9988 10.2038 6.76671 10.2621C8.15922 10.2475 9.53722 10.233 10.9297 10.2184C10.9587 10.1456 11.0023 10.0728 11.0893 10.0292C12.2642 9.30134 13.7293 9.08298 15.0492 8.73362C16.4998 8.35515 17.9503 7.88934 19.4443 7.7001C20.6483 7.53998 21.8957 7.59822 23.0271 8.09314C23.941 8.48617 24.9854 9.28678 24.9999 10.3931C25.0144 11.5431 23.9265 12.1545 22.9546 12.4019C21.7072 12.7222 20.3872 12.8532 19.0962 12.8532C16.3112 12.8677 13.5697 12.2272 11.0603 11.019C9.23261 11.0481 7.39044 11.0627 5.56278 11.0773C6.1575 11.3393 6.7377 11.6304 7.31791 11.9361C8.53636 12.5766 9.72579 13.2753 10.8137 14.105C11.7275 14.8038 12.6849 15.6189 13.033 16.7835C13.3086 17.686 13.3086 18.9815 12.7864 19.7967C12.2787 20.6119 11.3649 20.6556 10.5671 20.248C9.39217 19.622 8.20274 18.705 7.20187 17.8461C6.20101 17.0018 5.44674 15.9537 4.69246 14.8766C4.32983 14.3525 3.9672 13.8285 3.72061 13.2316C3.44501 12.6057 3.32896 11.9361 3.09688 11.2956C3.08237 11.2665 3.05337 11.2374 3.03886 11.2228C3.00985 11.1792 2.98084 11.1355 2.96633 11.0918C2.09602 11.0918 1.2402 11.0918 0.369884 11.0918C-0.123295 11.0773 -0.123295 10.2912 0.369884 10.2912ZM7.8256 8.95197C8.73943 8.41338 9.63876 7.74377 10.4366 7.05961C11.2779 6.33177 11.9451 5.44383 12.5688 4.52676C13.0765 3.78437 14.7011 2.08123 13.3231 1.48441C11.0168 0.494555 9.27613 2.77994 8.18823 4.4394C7.15836 6.01153 6.1575 7.75833 5.59179 9.59247C6.02695 9.24311 6.4476 8.8792 6.81023 8.47161C7.46297 7.71467 8.04318 6.89948 8.6524 6.11342C9.62426 4.84699 10.335 3.31855 11.4664 2.19769C11.8291 1.84833 12.3803 2.40147 12.0176 2.75083C10.8572 3.90081 10.1029 5.50205 9.10207 6.81215C8.56537 7.51087 8.02868 8.2387 7.46297 8.92287C7.34693 9.06843 7.21638 9.19945 7.08583 9.33046C7.34693 9.19945 7.59352 9.09754 7.8256 8.95197ZM17.8778 12.0234C18.9076 12.0817 19.952 12.0671 20.9819 11.9361C21.9102 11.8342 24.2311 11.6886 24.2166 10.364C24.2021 9.21401 22.5195 8.61718 21.6201 8.47161C20.4452 8.26782 19.2413 8.45705 18.0953 8.73362C16.9639 9.0102 15.8325 9.33046 14.7011 9.6216C14.0194 9.81083 13.2796 9.95638 12.5978 10.1893C14.7736 10.1602 16.9639 10.1165 19.1397 10.0583C19.6474 10.0437 19.6474 10.8298 19.1397 10.8443C17.08 10.9026 15.0347 10.9317 12.975 10.9608C14.5561 11.5576 16.2097 11.9216 17.8778 12.0234ZM4.8085 13.5956C5.3452 14.5126 6.01244 15.4151 6.69419 16.2158C7.41945 17.06 8.30428 17.7297 9.21811 18.3556C9.95788 18.8651 11.655 20.4954 12.2497 19.1125C13.2361 16.798 10.9587 15.0512 9.30514 13.9595C7.73857 12.9405 5.99794 11.9215 4.18478 11.3538C4.61993 11.8924 5.0841 12.4019 5.63531 12.8386C6.50562 13.5373 7.39044 14.2361 8.30428 14.9057C9.59525 15.8518 11.0458 16.6234 11.626 18.21C11.8 18.6904 11.0458 18.8942 10.8717 18.4138C10.2625 16.7835 8.31878 15.9246 7.02781 14.9202C6.33156 14.3816 5.6353 13.8576 4.96806 13.3044C4.77949 13.1589 4.60543 12.9987 4.44587 12.8241C4.54741 13.1006 4.66345 13.3627 4.8085 13.5956Z" fill="#891C7E"/>
</svg>
