<svg width="25" height="20" viewBox="0 0 25 20" fill="none" xmlns="http://www.w3.org/2000/svg">
<path d="M0.369884 9.7912C1.7769 9.7912 3.19842 9.7912 4.60543 9.77665C4.91004 8.40832 5.49025 7.14189 6.14299 5.91913C6.78122 4.69637 7.47747 3.5027 8.30428 2.41095C9.00053 1.49388 9.81282 0.533152 10.9732 0.183792C11.8726 -0.0927851 13.1635 -0.0927922 13.9758 0.431248C14.7881 0.940732 14.8317 1.85781 14.4255 2.65843C13.8018 3.83752 12.8879 5.03116 12.0321 6.03557C11.1908 7.03998 10.1464 7.79693 9.07306 8.55388C8.55087 8.9178 8.02868 9.28171 7.43396 9.52917C7.21638 9.61651 6.9988 9.70385 6.76671 9.76208C8.15922 9.74752 9.53722 9.73297 10.9297 9.71842C10.9587 9.64563 11.0023 9.57284 11.0893 9.52917C12.2642 8.80134 13.7293 8.58298 15.0492 8.23362C16.4998 7.85515 17.9503 7.38934 19.4443 7.2001C20.6483 7.03998 21.8957 7.09822 23.0271 7.59314C23.941 7.98617 24.9854 8.78678 24.9999 9.89309C25.0144 11.0431 23.9265 11.6545 22.9546 11.9019C21.7072 12.2222 20.3872 12.3532 19.0962 12.3532C16.3112 12.3677 13.5697 11.7272 11.0603 10.519C9.23261 10.5481 7.39044 10.5627 5.56278 10.5773C6.1575 10.8393 6.7377 11.1304 7.31791 11.4361C8.53636 12.0766 9.72579 12.7753 10.8137 13.605C11.7275 14.3038 12.6849 15.1189 13.033 16.2835C13.3086 17.186 13.3086 18.4815 12.7864 19.2967C12.2787 20.1119 11.3649 20.1556 10.5671 19.748C9.39217 19.122 8.20274 18.205 7.20187 17.3461C6.20101 16.5018 5.44674 15.4537 4.69246 14.3766C4.32983 13.8525 3.9672 13.3285 3.72061 12.7316C3.44501 12.1057 3.32896 11.4361 3.09688 10.7956C3.08237 10.7665 3.05337 10.7374 3.03886 10.7228C3.00985 10.6792 2.98084 10.6355 2.96633 10.5918C2.09602 10.5918 1.2402 10.5918 0.369884 10.5918C-0.123295 10.5773 -0.123295 9.7912 0.369884 9.7912ZM7.8256 8.45197C8.73943 7.91338 9.63876 7.24377 10.4366 6.55961C11.2779 5.83177 11.9451 4.94383 12.5688 4.02676C13.0765 3.28437 14.7011 1.58123 13.3231 0.984409C11.0168 -0.00544514 9.27613 2.27994 8.18823 3.9394C7.15836 5.51153 6.1575 7.25833 5.59179 9.09247C6.02695 8.74311 6.4476 8.3792 6.81023 7.97161C7.46297 7.21467 8.04318 6.39948 8.6524 5.61342C9.62426 4.34699 10.335 2.81855 11.4664 1.69769C11.8291 1.34833 12.3803 1.90147 12.0176 2.25083C10.8572 3.40081 10.1029 5.00205 9.10207 6.31215C8.56537 7.01087 8.02868 7.7387 7.46297 8.42287C7.34693 8.56843 7.21638 8.69945 7.08583 8.83046C7.34693 8.69945 7.59352 8.59754 7.8256 8.45197ZM17.8778 11.5234C18.9076 11.5817 19.952 11.5671 20.9819 11.4361C21.9102 11.3342 24.2311 11.1886 24.2166 9.86398C24.2021 8.71401 22.5195 8.11718 21.6201 7.97161C20.4452 7.76782 19.2413 7.95705 18.0953 8.23362C16.9639 8.5102 15.8325 8.83046 14.7011 9.1216C14.0194 9.31083 13.2796 9.45638 12.5978 9.68929C14.7736 9.66018 16.9639 9.61652 19.1397 9.5583C19.6474 9.54374 19.6474 10.3298 19.1397 10.3443C17.08 10.4026 15.0347 10.4317 12.975 10.4608C14.5561 11.0576 16.2097 11.4216 17.8778 11.5234ZM4.8085 13.0956C5.3452 14.0126 6.01244 14.9151 6.69419 15.7158C7.41945 16.56 8.30428 17.2297 9.21811 17.8556C9.95788 18.3651 11.655 19.9954 12.2497 18.6125C13.2361 16.298 10.9587 14.5512 9.30514 13.4595C7.73857 12.4405 5.99794 11.4215 4.18478 10.8538C4.61993 11.3924 5.0841 11.9019 5.63531 12.3386C6.50562 13.0373 7.39044 13.7361 8.30428 14.4057C9.59525 15.3518 11.0458 16.1234 11.626 17.71C11.8 18.1904 11.0458 18.3942 10.8717 17.9138C10.2625 16.2835 8.31878 15.4246 7.02781 14.4202C6.33156 13.8816 5.6353 13.3576 4.96806 12.8044C4.77949 12.6589 4.60543 12.4987 4.44587 12.3241C4.54741 12.6006 4.66345 12.8627 4.8085 13.0956Z" fill="#49A65D"/>
</svg>
