<svg width="100" height="100" viewBox="0 0 100 100" fill="none" xmlns="http://www.w3.org/2000/svg">
<path d="M84.9999 8.63342C84.9946 3.86734 81.1326 0.00534059 76.3665 0H23.6337C18.8676 0.00534059 15.0056 3.86734 15.0002 8.63342V91.3666C15.0056 96.1327 18.8676 99.9947 23.6337 100H93.3335C94.2536 100 94.9998 99.2538 94.9998 98.333V85.7666C97.1185 83.8768 98.3316 81.1729 98.3331 78.3333V59.9998C98.3331 57.2388 96.0946 55.0003 93.3335 55.0003H91.6665C90.8052 55.0049 89.9606 55.2345 89.2152 55.6664C88.3035 54.2175 86.7127 53.3363 84.9999 53.3333V8.63342ZM80.8816 54.0001C79.9699 52.5505 78.3792 51.6701 76.6671 51.667H75.0001C74.4309 51.6724 73.8671 51.7761 73.3331 51.973V40.8333C73.3293 39.8529 73.0813 38.8893 72.6098 38.0302C73.0813 37.0895 73.3285 36.0519 73.3331 34.9998C73.3834 31.3751 70.4911 28.3936 66.8664 28.3333H34.8001C33.0659 28.3356 31.4088 29.0504 30.2171 30.3101C29.0032 31.5689 28.3273 33.2512 28.3334 34.9998C28.283 38.6246 31.1753 41.6061 34.8001 41.6664H61.667V78.3333C61.67 78.8918 61.7204 79.4495 61.8165 80.0003H18.3335V16.6664H81.6667V53.64C81.3951 53.7369 81.1326 53.8574 80.8816 54.0001ZM62.2552 38.3331H34.8001C33.0163 38.2744 31.6155 36.7844 31.6667 34.9998C31.6628 34.1148 32.0039 33.2619 32.6165 32.6233C33.1826 32.019 33.9723 31.6734 34.8001 31.6666H66.8664C68.6509 31.7253 70.0517 33.2153 69.9998 34.9998C70.0006 35.1669 69.9891 35.334 69.9655 35.5003C69.381 35.2348 68.7539 35.0769 68.1138 35.0334C67.7499 34.9503 67.3722 34.9564 67.0121 35.0502C64.9575 35.2264 63.1486 36.4754 62.2552 38.3331ZM23.6337 3.33328H76.3665C79.2924 3.3371 81.6628 5.70755 81.6667 8.63342V13.3331H18.3335V8.63342C18.3373 5.70755 20.7078 3.3371 23.6337 3.33328ZM18.3335 91.3666V83.3336H63.0204C63.5491 84.243 64.2175 85.0639 65.0002 85.7666V96.6667H23.6337C20.7078 96.6629 18.3373 94.2924 18.3335 91.3666ZM91.6665 96.6667H68.3335V87.7502C69.4032 88.1332 70.5308 88.3301 71.6668 88.3331H88.3332C89.47 88.3301 90.5969 88.1332 91.6665 87.7502V96.6667ZM86.667 58.3336V61.6669C86.667 62.587 87.4131 63.3331 88.3332 63.3331C89.2541 63.3331 90.0003 62.587 90.0003 61.6669V59.9998C90.0003 59.0797 90.7464 58.3336 91.6665 58.3336H93.3335C94.2536 58.3336 94.9998 59.0797 94.9998 59.9998V78.3333C94.9998 82.0152 92.0152 84.9998 88.3332 84.9998H71.6668C67.9849 84.9998 65.0002 82.0152 65.0002 78.3333V40.8333C65.0018 40.6654 65.0186 40.4984 65.0498 40.3336C65.3054 39.0747 66.4735 38.2141 67.7514 38.3438C69.0293 38.4727 70.0013 39.5493 69.9998 40.8333V61.6669C69.9998 62.587 70.7459 63.3331 71.6668 63.3331C72.5869 63.3331 73.3331 62.587 73.3331 61.6669V56.6666C73.3331 55.7465 74.08 55.0003 75.0001 55.0003H76.6671C77.5872 55.0003 78.3334 55.7465 78.3334 56.6666V61.6669C78.3334 62.587 79.0795 63.3331 80.0004 63.3331C80.9205 63.3331 81.6667 62.587 81.6667 61.6669V58.3336C81.6667 57.4127 82.4128 56.6666 83.3337 56.6666H84.9999C85.9208 56.6666 86.667 57.4127 86.667 58.3336Z" fill="#891C7E"/>
<path d="M51.6671 84.9999H48.333C46.4921 84.9999 44.9998 86.4922 44.9998 88.3332V91.6664C44.9998 93.5074 46.4921 94.9997 48.333 94.9997H51.6671C53.5081 94.9997 55.0004 93.5074 55.0004 91.6664V88.3332C55.0004 86.4922 53.5081 84.9999 51.6671 84.9999ZM48.333 91.6664V88.3332H51.6671V91.6664H48.333Z" fill="#891C7E"/>
<path d="M26.667 48.333C26.667 49.2539 27.4131 50 28.3333 50H33.3336C34.2537 50 34.9998 49.2539 34.9998 48.333C34.9998 47.4129 34.2537 46.6667 33.3336 46.6667H28.3333C27.4131 46.6667 26.667 47.4129 26.667 48.333Z" fill="#891C7E"/>
<path d="M40 50H56.6664C57.5873 50 58.3335 49.2539 58.3335 48.333C58.3335 47.4129 57.5873 46.6667 56.6664 46.6667H40C39.0792 46.6667 38.333 47.4129 38.333 48.333C38.333 49.2539 39.0792 50 40 50Z" fill="#891C7E"/>
<path d="M33.3336 53.3333H28.3333C27.4131 53.3333 26.667 54.0794 26.667 55.0003C26.667 55.9204 27.4131 56.6665 28.3333 56.6665H33.3336C34.2537 56.6665 34.9998 55.9204 34.9998 55.0003C34.9998 54.0794 34.2537 53.3333 33.3336 53.3333Z" fill="#891C7E"/>
<path d="M40 56.6665H56.6664C57.5873 56.6665 58.3335 55.9204 58.3335 55.0003C58.3335 54.0794 57.5873 53.3333 56.6664 53.3333H40C39.0792 53.3333 38.333 54.0794 38.333 55.0003C38.333 55.9204 39.0792 56.6665 40 56.6665Z" fill="#891C7E"/>
<path d="M33.3336 59.9999H28.3333C27.4131 59.9999 26.667 60.746 26.667 61.6669C26.667 62.587 27.4131 63.3332 28.3333 63.3332H33.3336C34.2537 63.3332 34.9998 62.587 34.9998 61.6669C34.9998 60.746 34.2537 59.9999 33.3336 59.9999Z" fill="#891C7E"/>
<path d="M40 63.3332H56.6664C57.5873 63.3332 58.3335 62.587 58.3335 61.6669C58.3335 60.746 57.5873 59.9999 56.6664 59.9999H40C39.0792 59.9999 38.333 60.746 38.333 61.6669C38.333 62.587 39.0792 63.3332 40 63.3332Z" fill="#891C7E"/>
<path d="M33.3336 66.6664H28.3333C27.4131 66.6664 26.667 67.4125 26.667 68.3334C26.667 69.2535 27.4131 69.9997 28.3333 69.9997H33.3336C34.2537 69.9997 34.9998 69.2535 34.9998 68.3334C34.9998 67.4125 34.2537 66.6664 33.3336 66.6664Z" fill="#891C7E"/>
<path d="M40 69.9997H56.6664C57.5873 69.9997 58.3335 69.2535 58.3335 68.3334C58.3335 67.4125 57.5873 66.6664 56.6664 66.6664H40C39.0792 66.6664 38.333 67.4125 38.333 68.3334C38.333 69.2535 39.0792 69.9997 40 69.9997Z" fill="#891C7E"/>
<path d="M6.6665 8.33362C7.58737 8.33362 8.33353 7.58746 8.33353 6.6666V5.00034C8.33353 4.07947 7.58737 3.33331 6.6665 3.33331C5.7464 3.33331 5.00024 4.07947 5.00024 5.00034V6.6666C5.00024 7.58746 5.7464 8.33362 6.6665 8.33362Z" fill="#891C7E"/>
<path d="M5.00024 15.0002C5.00024 15.9203 5.7464 16.6664 6.6665 16.6664C7.58737 16.6664 8.33353 15.9203 8.33353 15.0002V13.3331C8.33353 12.413 7.58737 11.6669 6.6665 11.6669C5.7464 11.6669 5.00024 12.413 5.00024 13.3331V15.0002Z" fill="#891C7E"/>
<path d="M1.66702 11.6669H3.33328C4.25415 11.6669 5.00031 10.9207 5.00031 9.99988C5.00031 9.07977 4.25415 8.33362 3.33328 8.33362H1.66702C0.746155 8.33362 0 9.07977 0 9.99988C0 10.9207 0.746155 11.6669 1.66702 11.6669Z" fill="#891C7E"/>
<path d="M11.6668 8.33362H9.99976C9.07965 8.33362 8.3335 9.07977 8.3335 9.99988C8.3335 10.9207 9.07965 11.6669 9.99976 11.6669H11.6668C12.5869 11.6669 13.333 10.9207 13.333 9.99988C13.333 9.07977 12.5869 8.33362 11.6668 8.33362Z" fill="#891C7E"/>
<path d="M93.3335 23.333C94.2536 23.333 94.9998 22.5868 94.9998 21.6667V19.9997C94.9998 19.0796 94.2536 18.3334 93.3335 18.3334C92.4127 18.3334 91.6665 19.0796 91.6665 19.9997V21.6667C91.6665 22.5868 92.4127 23.333 93.3335 23.333Z" fill="#891C7E"/>
<path d="M91.6665 30.0003C91.6665 30.9204 92.4127 31.6665 93.3335 31.6665C94.2536 31.6665 94.9998 30.9204 94.9998 30.0003V28.3333C94.9998 27.4131 94.2536 26.667 93.3335 26.667C92.4127 26.667 91.6665 27.4131 91.6665 28.3333V30.0003Z" fill="#891C7E"/>
<path d="M90.0003 23.333H88.3333C87.4131 23.333 86.667 24.0799 86.667 25C86.667 25.9201 87.4131 26.6671 88.3333 26.6671H90.0003C90.9204 26.6671 91.6665 25.9201 91.6665 25C91.6665 24.0799 90.9204 23.333 90.0003 23.333Z" fill="#891C7E"/>
<path d="M98.333 23.333H96.6668C95.7459 23.333 94.9998 24.0799 94.9998 25C94.9998 25.9201 95.7459 26.6671 96.6668 26.6671H98.333C99.2539 26.6671 100 25.9201 100 25C100 24.0799 99.2539 23.333 98.333 23.333Z" fill="#891C7E"/>
<path d="M8.33353 73.333C8.33353 72.4129 7.58737 71.6667 6.6665 71.6667C5.7464 71.6667 5.00024 72.4129 5.00024 73.333V75C5.00024 75.9201 5.7464 76.6671 6.6665 76.6671C7.58737 76.6671 8.33353 75.9201 8.33353 75V73.333Z" fill="#891C7E"/>
<path d="M6.6665 80.0003C5.7464 80.0003 5.00024 80.7465 5.00024 81.6666V83.3336C5.00024 84.2537 5.7464 84.9998 6.6665 84.9998C7.58737 84.9998 8.33353 84.2537 8.33353 83.3336V81.6666C8.33353 80.7465 7.58737 80.0003 6.6665 80.0003Z" fill="#891C7E"/>
<path d="M1.66702 80.0003H3.33328C4.25415 80.0003 5.00031 79.2541 5.00031 78.3333C5.00031 77.4131 4.25415 76.667 3.33328 76.667H1.66702C0.746155 76.667 0 77.4131 0 78.3333C0 79.2541 0.746155 80.0003 1.66702 80.0003Z" fill="#891C7E"/>
<path d="M9.99976 80.0003H11.6668C12.5869 80.0003 13.333 79.2541 13.333 78.3333C13.333 77.4131 12.5869 76.667 11.6668 76.667H9.99976C9.07965 76.667 8.3335 77.4131 8.3335 78.3333C8.3335 79.2541 9.07965 80.0003 9.99976 80.0003Z" fill="#891C7E"/>
<path d="M23.333 19.9997C22.4129 19.9997 21.6667 20.7458 21.6667 21.6667V23.333C21.6667 24.2538 22.4129 25 23.333 25C24.2539 25 25 24.2538 25 23.333V21.6667C25 20.7458 24.2539 19.9997 23.333 19.9997Z" fill="#891C7E"/>
<path d="M23.333 26.667C22.4129 26.667 21.6667 27.4131 21.6667 28.3333V41.6664C21.6667 42.5873 22.4129 43.3334 23.333 43.3334C24.2539 43.3334 25 42.5873 25 41.6664V28.3333C25 27.4131 24.2539 26.667 23.333 26.667Z" fill="#891C7E"/>
</svg>
