<svg width="164" height="35" viewBox="0 0 164 35" fill="none" xmlns="http://www.w3.org/2000/svg">
<path d="M155.284 24.3235C153.428 23.8465 151.646 23.9933 149.975 24.5069C151.72 21.8287 152.5 18.7102 151.572 15.3349C150.124 9.94175 145.781 5.28238 140.881 2.64084C131.154 -2.60556 116.454 0.402866 111.962 11.2625C109.252 17.8297 114.412 23.9566 120.76 25.5342C126.366 26.9283 134.792 25.0572 134.458 17.8664C134.384 16.5823 132.38 16.5823 132.454 17.8664C132.862 26.0111 120.723 24.7637 116.454 21.2784C113.93 19.1871 112.519 15.8118 113.559 12.6567C114.487 9.75832 116.862 7.22684 119.35 5.5025C129.261 -1.43154 143.442 2.56745 148.676 13.3171C150.198 16.4722 150.495 19.7742 148.713 22.8559C147.191 25.4608 144.741 27.5153 142.18 29.0195C136.834 32.1747 130.561 33.0185 124.435 32.6883C117.79 32.2848 110.626 30.7072 104.686 27.6254C106.728 27.6254 108.696 27.0751 109.661 25.4241C110.44 24.1033 110.403 22.8926 109.475 21.6819C108.324 20.1043 106.468 19.8475 104.649 19.7742C103.35 19.7008 103.35 21.6819 104.649 21.7553C105.726 21.792 107.693 21.9021 108.102 23.1861C108.51 24.4335 107.211 25.2407 106.134 25.4608C104.092 25.8277 101.939 25.4608 100.009 24.8004C99.8975 24.7637 99.749 24.7271 99.6377 24.7271C96.2595 22.7459 92.6587 21.0582 88.6495 22.0121C86.4964 22.5258 84.4175 23.9566 84.0834 26.2313C83.7864 28.2491 84.7145 30.8173 86.2736 32.1747C89.9116 35.4033 95.3315 35.44 98.9695 32.3582C99.9346 31.5143 98.524 30.1202 97.5588 30.964C95.0345 33.0919 91.8049 33.202 88.9464 31.6244C86.5335 30.3036 84.5289 26.4881 87.4616 24.5803C90.5056 22.6358 95.1459 24.2868 97.9672 25.9378C100.863 27.6254 103.535 29.4965 106.654 30.7439C118.422 35.44 134.124 37.4211 145.001 29.5699C145.187 29.4598 145.335 29.313 145.484 29.203C145.558 29.1663 145.632 29.1296 145.669 29.0929C148.713 26.7082 153.131 24.6537 156.695 27.2585C158.365 28.4692 160.036 31.1108 157.586 32.5049C156.62 33.0552 155.358 33.2387 154.282 32.8718C153.613 32.615 151.386 31.0007 152.797 30.1569C153.91 29.4965 152.908 27.8088 151.794 28.4325C148.973 30.0835 150.941 33.5322 153.279 34.5594C155.915 35.7335 160.295 34.5228 160.852 31.3676C161.446 28.0657 158.217 25.0572 155.284 24.3235Z" fill="#FFE0EF"/>
<path d="M161.632 19.4434C163.117 18.4895 164.193 17.2788 163.971 15.7746C163.674 13.9769 161.001 13.9769 159.664 14.3071C158.848 14.5272 158.142 14.8941 157.511 15.4077C157.474 15.371 157.474 15.2976 157.437 15.2609C156.954 14.4905 156.175 14.2337 155.358 14.7106C152.871 16.1781 154.059 19.7736 153.354 22.0115C153.019 23.0755 154.467 23.6258 155.098 22.8921C156.249 22.3417 157.289 23.5157 158.402 23.6992C159.219 23.8459 160.221 23.7359 161.001 23.5157C162.226 23.1855 163.674 22.0849 163.117 20.6541C162.894 20.1038 162.337 19.7002 161.632 19.4434ZM159.553 16.4717C159.924 16.2882 161.298 15.8113 161.706 16.1781C162.152 16.6184 161.149 17.2054 160.815 17.4622C159.961 18.1226 158.959 18.6362 157.92 19.0031C157.14 19.0765 156.398 19.2599 155.655 19.5168C155.655 19.2966 155.655 19.0765 155.655 18.8197C156.101 19.1866 156.88 19.1866 157.251 18.6362C157.845 17.7557 158.551 16.9119 159.553 16.4717ZM159.998 21.7547C158.959 21.9015 158.328 21.5713 157.586 21.2044C157.808 21.131 158.068 21.0577 158.328 20.9843C159.033 20.9109 159.739 20.9843 160.407 21.1677C161.669 21.5346 160.889 21.608 159.998 21.7547Z" fill="#FFE0EF"/>
<path d="M78.1439 23.2597C74.1347 20.0311 68.1951 22.2691 64.2231 24.6538C64.1488 24.6538 64.0374 24.6905 63.9632 24.7272C62.0328 25.4243 59.8797 25.7912 57.838 25.3876C56.91 25.2041 55.5736 24.5437 55.8334 23.4064C56.1675 21.9022 58.0979 21.7554 59.3229 21.6821C60.6222 21.6087 60.6222 19.6275 59.3229 19.7009C57.541 19.7743 55.7592 20.0311 54.5713 21.5353C53.6061 22.7827 53.5318 24.0301 54.3114 25.3876C55.2766 27.0385 57.1698 27.5889 59.1744 27.5889C54.7569 29.7535 50.0423 31.1843 45.1422 32.0281C38.8685 33.1288 32.2236 33.2022 26.1727 31.0375C24.0939 30.3038 21.7923 29.1665 19.7877 27.6989C19.7505 27.6622 19.7505 27.6622 19.7134 27.6256C19.4536 27.4054 19.1566 27.222 18.8967 27.0018C16.1497 24.7639 14.108 21.8655 14.0337 18.4535C13.8852 12.6201 19.0823 7.15355 23.8711 4.47531C29.0311 1.61363 35.1563 1.17336 40.6504 3.33796C46.5528 5.686 53.7546 12.5467 49.4855 19.1873C47.3695 22.4525 43.2118 23.9934 39.3882 24.0668C35.6389 24.1402 31.3698 22.1223 31.5926 17.8665C31.6668 16.5824 29.6622 16.5824 29.588 17.8665C29.291 23.9934 35.8245 26.5616 41.0587 25.9379C46.6271 25.2775 52.2326 21.6454 52.7894 15.7386C53.3091 10.0886 48.2976 5.06231 43.6202 2.56752C38.6087 -0.110722 32.5949 -0.771118 27.1379 0.953227C21.8665 2.6042 17.1891 6.23635 14.3678 10.9691C11.6208 15.5185 11.3609 20.2879 14.0337 24.5071C12.4746 24.0301 10.8041 23.8834 9.05933 24.2502C5.97818 24.9106 2.60005 27.9924 3.15688 31.3311C3.67659 34.4129 7.83429 35.6236 10.47 34.633C12.92 33.7158 15.1103 30.1204 12.1776 28.396C11.0639 27.7356 10.0616 29.46 11.1753 30.1203C12.5859 30.9642 10.3586 32.5785 9.6904 32.8353C8.61386 33.2388 7.3517 33.0187 6.38652 32.4684C3.89933 31.0742 5.56983 28.4327 7.27745 27.222C10.6927 24.7639 14.8504 26.4882 17.8573 28.7262C26.9894 36.3573 40.9103 35.6603 51.7871 32.5785C55.5736 31.5145 59.1744 30.1204 62.5526 28.1392C66.042 26.0847 69.68 23.333 74.0233 23.7733C76.1393 23.9934 78.3666 25.3142 77.9212 27.7356C77.6613 29.0931 77.0302 30.3405 75.8795 31.1476C72.9839 33.1655 69.2346 33.3122 66.4504 30.9642C65.4852 30.1571 64.0374 31.5512 65.0397 32.3583C68.455 35.2567 72.9839 35.3668 76.7333 32.9453C79.8144 30.8541 81.3736 25.8645 78.1439 23.2597Z" fill="#FFE0EF"/>
<path d="M5.57002 23.7374C6.68369 23.554 7.72311 22.3432 8.8739 22.9303C9.50498 23.6641 10.9528 23.1137 10.6187 22.0497C9.91333 19.8116 11.0641 16.216 8.61405 14.7484C7.90872 14.3448 7.12916 14.4548 6.64657 15.1153C6.57232 15.2253 6.49808 15.2987 6.46095 15.4088C5.82987 14.9318 5.12455 14.5282 4.34498 14.3448C2.97146 13.9778 0.372896 14.0145 0.0387948 15.8124C-0.221061 17.3167 0.855487 18.5641 2.34038 19.4814C1.67218 19.7382 1.07822 20.1418 0.855487 20.7289C0.298653 22.1598 1.74642 23.2972 2.97146 23.5907C3.78815 23.7741 4.75333 23.8842 5.57002 23.7374ZM2.22901 16.2893C2.45175 15.7757 3.75102 16.1793 4.12225 16.326C5.27304 16.7296 6.08973 17.6102 6.72081 18.6375C7.09203 19.1879 7.8716 19.1879 8.31707 18.821C8.31707 19.0411 8.31707 19.2612 8.31707 19.4814C7.61175 19.2245 6.83218 19.0411 6.05261 18.9677C5.01319 18.6008 4.01088 18.0872 3.15707 17.4267C2.86009 17.2433 2.0434 16.6929 2.22901 16.2893ZM4.01088 21.7562C3.3798 21.6461 1.93203 21.6828 3.60254 21.2058C4.27074 21.0224 4.93894 20.949 5.64426 20.9857H5.68139C5.94124 21.0591 6.2011 21.1691 6.46095 21.2425C5.71851 21.536 5.08743 21.9029 4.01088 21.7562Z" fill="#FFE0EF"/>
<path d="M89.355 15.5935C89.1694 14.3828 88.2413 13.319 87.0163 13.0988C86.3481 12.9888 85.7912 13.1355 85.3086 13.429C84.7518 10.971 83.2669 8.4764 80.4827 9.2468C78.4039 9.83378 77.5872 12.4018 77.4387 14.603C75.9167 14.2361 74.3947 14.9331 74.2833 17.0243C74.172 19.8491 78.5524 22.2337 80.5941 23.3709C80.9653 23.5911 81.3366 23.5177 81.5964 23.3342C81.8192 23.3709 82.0419 23.3709 82.2646 23.2242C84.9374 21.7567 89.9489 19.3722 89.355 15.5935ZM87.3133 16.8408C87.1648 17.6112 86.2367 18.3083 85.4943 18.8219C85.4571 18.6751 85.3829 18.4917 85.2344 18.3816C84.8632 18.0148 84.1579 17.9781 83.8238 18.3816C83.4525 18.8585 83.0442 19.2988 82.6358 19.739C82.376 17.9781 82.6358 16.2171 82.5987 14.4195C82.5987 13.1355 80.5941 13.1355 80.5941 14.4195C80.6312 15.9603 80.4456 17.4645 80.557 19.0053C80.4085 18.7852 80.26 18.5284 80.0744 18.3083C79.3691 17.2444 77.6615 18.2349 78.3297 19.2988C78.441 19.4822 78.5524 19.6656 78.7009 19.8858C78.4782 19.7023 78.2183 19.5189 77.9956 19.3355C77.5501 18.9686 76.919 18.5284 76.6592 18.0148C76.2879 17.281 76.1394 15.5568 77.6986 17.0243C78.4781 17.758 79.5176 16.9876 79.3691 16.0704C79.1835 14.8598 79.4433 13.2823 80.1115 12.2184C81.0767 10.6776 82.673 11.9616 83.1184 13.0988C83.4897 14.0527 83.5268 15.0065 83.4897 15.997C83.4525 16.9875 84.8632 17.3177 85.3458 16.5106C85.9769 15.3367 87.6102 15.5201 87.3133 16.8408Z" fill="#FFE0EF"/>
</svg>
