<svg width="300" height="22" viewBox="0 0 300 22" fill="none" xmlns="http://www.w3.org/2000/svg">
<path d="M137.573 14.8399C127.616 13.9976 117.659 14.2608 107.702 14.2082C97.5796 14.1029 87.4568 13.4712 77.3894 12.8921C67.3219 12.3131 57.1991 11.7867 47.0763 11.9446C42.0426 11.9973 37.0089 12.2605 32.0305 12.7342C29.5966 12.9974 27.052 13.1553 24.6181 13.6817C23.4012 13.945 21.963 14.2608 21.2992 15.3663C20.6907 16.4718 20.8567 17.4719 21.7417 18.4195C23.014 19.525 23.9544 19.4197 24.6181 18.1037C24.1203 16.3138 26.9967 15.5768 27.4946 17.3667C28.1584 19.8408 26.0563 21.9992 23.4012 21.9992C20.6354 22.0518 18.3121 19.6302 18.0356 17.1561C17.759 14.1029 20.0269 11.8919 22.9587 11.1023C23.1799 11.0496 23.4565 10.997 23.6778 10.9444C23.3459 10.8391 23.0693 10.6812 22.7927 10.5232C19.8057 8.89135 18.4781 5.52229 20.5248 2.62699C22.2396 0.205477 26.3329 -0.794678 28.9328 0.889856C31.8092 2.78496 30.7029 6.15397 27.9924 7.68058C26.3329 8.62813 24.8394 6.154 26.4989 5.20645C29.7072 3.41663 24.5075 1.67947 22.9034 4.36419C21.3545 6.83835 24.5075 8.4176 26.5542 8.83874C30.3157 9.62836 34.7409 9.47042 38.613 9.41778H38.6684C59.7436 8.20702 80.8189 10.6812 101.894 11.2602C113.787 11.5761 125.735 10.997 137.573 12.0499C139.454 12.1552 139.454 14.9978 137.573 14.8399Z" fill="#A9336C"/>
<path d="M18.4793 12.1012C15.8241 13.891 12.0627 14.9965 8.85435 14.8386C5.42478 14.6806 2.82493 12.575 0.446354 10.4167C-0.383382 9.67967 0.0591511 8.6268 0.833571 8.20566C3.65467 6.20528 7.74803 5.94212 11.2329 5.88948C14.22 5.88948 17.8155 6.67906 19.1431 9.52171C19.3643 9.94284 19.309 10.4166 19.1431 10.7325C19.1984 11.2589 18.9771 11.7853 18.4793 12.1012ZM3.98657 9.67966C5.64605 11.0483 7.47147 12.1538 9.90536 11.9959C10.6245 11.9433 11.3436 11.838 12.0627 11.6801C11.4542 11.6801 10.7904 11.6274 10.1819 11.6274C8.24589 11.5221 8.24589 8.73213 10.1819 8.78477C11.2329 8.83742 12.2839 8.8374 13.3349 8.8374C10.4032 8.2057 6.36515 8.67946 3.98657 9.67966Z" fill="#A9336C"/>
<path d="M277.246 10.5229C276.914 10.6808 276.582 10.8388 276.25 10.9967C278.684 11.5231 280.897 12.4707 281.726 14.9448C282.722 17.7875 280.897 21.2091 277.744 21.8935C274.812 22.5252 271.769 20.2616 272.544 17.3663C273.042 15.5765 275.918 16.3661 275.42 18.1033C276.029 19.4194 277.024 19.5246 278.297 18.4191C279.071 17.6822 279.237 16.8925 278.905 16.0503C278.518 14.3657 277.024 13.9973 275.42 13.6288C272.986 13.1024 270.497 12.9444 268.008 12.6812C263.03 12.2074 257.996 11.9442 252.962 11.8916C242.839 11.7336 232.772 12.2601 222.649 12.8391C212.526 13.4182 202.459 14.0499 192.336 14.1552C182.379 14.2605 172.422 13.9446 162.466 14.7869C160.529 14.9448 160.585 12.1022 162.466 11.9443C172.976 11.0494 183.541 11.4178 194.051 11.2599C204.782 11.102 215.458 10.365 226.134 9.7859C236.81 9.20684 247.486 8.78572 258.162 9.20686C259.213 9.2595 260.319 9.31217 261.37 9.36481H261.425C265.297 9.41745 269.667 9.62803 273.484 8.78576C275.476 8.36463 277.744 7.31174 277.301 5.04815C277.08 3.73211 275.697 2.88987 274.314 2.83723C273.042 2.78459 270.718 3.62687 273.484 5.15347C275.144 6.10102 273.65 8.52252 271.991 7.62761C269.28 6.15364 268.174 2.73192 271.05 0.836819C273.65 -0.847713 277.744 0.152502 279.458 2.57402C281.505 5.52195 280.233 8.89101 277.246 10.5229Z" fill="#A9336C"/>
<path d="M299.538 10.47C297.159 12.6283 294.56 14.7339 291.13 14.8919C287.922 15.0498 284.105 13.8916 281.505 12.1545C281.007 11.786 280.786 11.3122 280.841 10.8384C280.675 10.4699 280.62 10.0488 280.841 9.62771C282.224 6.8377 285.82 5.99542 288.751 5.99542C292.181 5.99542 296.274 6.25864 299.151 8.31167C299.981 8.68016 300.368 9.68034 299.538 10.47ZM286.871 8.89071C287.866 8.89071 288.862 8.89072 289.858 8.83808C291.794 8.7328 291.794 11.5755 289.858 11.6807C289.194 11.7334 288.585 11.7334 287.922 11.7334C288.641 11.8913 289.36 11.9966 290.079 12.0492C292.458 12.1545 294.283 11.1016 295.998 9.73296C294.117 8.99598 291.683 8.94337 289.913 8.83808C288.973 8.78544 287.922 8.73279 286.871 8.89071Z" fill="#A9336C"/>
<path d="M154.28 15.5744C153.726 16.5219 152.62 16.9957 151.569 17.3116C150.905 17.5748 150.186 17.7853 149.412 17.838C148.693 17.8906 147.918 17.7327 147.365 17.2589C147.31 17.2063 147.254 17.1536 147.199 17.101C146.923 16.9957 146.646 16.7851 146.48 16.5746C146.314 16.364 146.204 16.1008 146.148 15.8376C146.038 15.4164 146.093 14.9427 146.204 14.4689C146.369 13.9425 146.646 13.5214 146.978 13.1002C147.31 12.6265 147.642 12.1527 148.029 11.7316C149.246 10.5208 151.127 10.047 152.841 10.4155C153.45 10.5734 154.058 10.8366 154.446 11.3104C154.833 11.7315 154.943 12.3632 154.943 12.9423C154.943 13.5213 154.777 14.0478 154.611 14.6269C154.556 14.9427 154.446 15.2585 154.28 15.5744Z" fill="#A9336C"/>
</svg>
