<svg width="40" height="40" viewBox="0 0 40 40" fill="none" xmlns="http://www.w3.org/2000/svg">
<path fill-rule="evenodd" clip-rule="evenodd" d="M20 40C31.0457 40 40 31.0457 40 20C40 8.9543 31.0457 0 20 0C8.9543 0 0 8.9543 0 20C0 31.0457 8.9543 40 20 40ZM37 19.9997C37 29.3886 29.3888 36.9997 20 36.9997C10.6112 36.9997 3 29.3886 3 19.9997C3 10.6109 10.6112 2.9997 20 2.9997C29.3888 2.9997 37 10.6109 37 19.9997ZM38 19.9997C38 29.9409 29.9411 37.9997 20 37.9997C10.0589 37.9997 2 29.9409 2 19.9997C2 10.0586 10.0589 1.9997 20 1.9997C29.9411 1.9997 38 10.0586 38 19.9997ZM27.2498 11.3992L28.8817 9.81808C29.1791 9.52983 29.1791 9.06251 28.8817 8.77426C28.5842 8.486 28.1019 8.48605 27.8044 8.77426L26.1726 10.3554C25.8751 10.6436 25.8751 11.111 26.1726 11.3992C26.47 11.6874 26.9523 11.6875 27.2498 11.3992ZM29.1589 14.8825H30.7907C31.2114 14.8825 31.5524 15.213 31.5524 15.6206C31.5524 16.0283 31.2114 16.3587 30.7907 16.3587H29.1589C28.7383 16.3587 28.3972 16.0283 28.3972 15.6206C28.3972 15.213 28.7383 14.8825 29.1589 14.8825ZM21.8157 9.24392C22.2364 9.24392 22.5775 8.91345 22.5775 8.50582V6.92466C22.5775 6.51703 22.2364 6.18655 21.8157 6.18655C21.3951 6.18655 21.054 6.51703 21.054 6.92466V8.50582C21.054 8.91345 21.3951 9.24392 21.8157 9.24392ZM8.22301 25.6302C7.92554 25.342 7.92579 24.8744 8.22301 24.5864L9.4995 23.3497L13.8402 27.5558L12.5638 28.7926C12.2663 29.0809 11.7839 29.0808 11.4866 28.7926L8.22301 25.6302ZM21.4111 25.182L16.0624 27.621L19.7188 31.164C20.0162 31.4522 20.4986 31.4523 20.796 31.164L23.6516 28.397C23.9491 28.1087 23.9491 27.6414 23.6516 27.3531L21.4111 25.182ZM17.6053 8.56893C17.8496 8.52764 18.0995 8.60416 18.2749 8.77412L28.8814 19.0517C29.0568 19.2217 29.1358 19.4637 29.0931 19.7005C29.0505 19.9373 28.8915 20.1392 28.6671 20.2415L14.9173 26.5114L10.5765 22.3052L17.047 8.98177C17.1527 8.76428 17.3609 8.61026 17.6053 8.56893Z" fill="#891C7E"/>
</svg>
