<svg width="60" height="60" viewBox="0 0 60 60" fill="none" xmlns="http://www.w3.org/2000/svg">
<path d="M54.4564 34.7285C53.7955 34.703 51.9516 35.5003 49.8635 38.8939C47.2534 43.1359 43.3432 45.7686 41.3931 43.3549C39.4431 40.9412 39.1231 36.8088 43.7488 30.3062L35.2129 39.4416L36.8858 27.9254C35.0357 31.8627 30.5006 39.9945 27.1608 41.0236" stroke="#FFE0EF" stroke-width="3.25596"/>
<path d="M28.9512 40.2234C31.937 35.6297 34.7064 24.5184 29.6373 24.4458C24.5682 24.3732 19.145 32.8888 17.0671 37.1557C16.1841 39.2585 14.8599 43.7334 16.627 44.811C18.394 45.8885 19.8342 42.9936 20.3334 41.4114C21.3475 37.502 23.0406 26.9885 20.1656 18.2927C17.2906 9.59689 13.296 8.06656 11.8921 8.3424" stroke="#FFE0EF" stroke-width="3.14615"/>
<circle cx="30" cy="30" r="27.1736" stroke="#FFE0EF" stroke-width="5.65271"/>
</svg>
