<svg width="100" height="100" viewBox="0 0 100 100" fill="none" xmlns="http://www.w3.org/2000/svg">
<path d="M89.5736 10.6012H81.2375C80.4285 10.6012 79.7726 11.2569 79.7726 12.066C79.7726 12.8752 80.4285 13.5309 81.2375 13.5309H89.5736C93.7074 13.5309 97.0703 16.9026 97.0703 21.0467V76.9922C97.0703 81.1365 93.7072 84.508 89.5736 84.508H10.4264C6.29258 84.5084 2.92969 81.1367 2.92969 76.9924V66.6223C2.92969 65.8131 2.27383 65.1574 1.46484 65.1574C0.655859 65.1574 0 65.8131 0 66.6223V76.9924C0 82.7522 4.67715 87.4379 10.4264 87.4379H40.1652L37.2156 97.0703H30.7191C29.9102 97.0703 29.2543 97.726 29.2543 98.5352C29.2543 99.3444 29.9102 100 30.7191 100H69.2805C70.0894 100 70.7453 99.3444 70.7453 98.5352C70.7453 97.726 70.0894 97.0703 69.2805 97.0703H62.784L59.8346 87.4381H89.5732C95.3224 87.4381 99.9996 82.7524 99.9996 76.9926V21.0469C100 15.2871 95.3226 10.6012 89.5736 10.6012ZM40.2797 97.0703L43.2293 87.4381H56.7709L59.7203 97.0703H40.2797Z" fill="#891C7E"/>
<path d="M1.46484 61.2737C2.27383 61.2737 2.92969 60.618 2.92969 59.8088V21.0469C2.92969 16.9026 6.29258 13.5311 10.4264 13.5311H14.6801C15.4891 13.5311 16.1449 12.8754 16.1449 12.0662C16.1449 11.257 15.4891 10.6014 14.6801 10.6014H10.4264C4.67715 10.6012 0 15.2871 0 21.0469V59.8088C0 60.6178 0.655859 61.2737 1.46484 61.2737Z" fill="#891C7E"/>
<path d="M94.1554 20.8039C94.1554 18.2463 92.0777 16.1656 89.5238 16.1656H84.3103C83.5013 16.1656 82.8455 16.8213 82.8455 17.6305C82.8455 18.4397 83.5013 19.0953 84.3103 19.0953H89.5238C90.4623 19.0953 91.2257 19.8619 91.2257 20.8039V49.5272C91.2257 50.3364 91.8816 50.992 92.6906 50.992C93.4996 50.992 94.1554 50.3364 94.1554 49.5272V20.8039Z" fill="#891C7E"/>
<path d="M94.1554 71.1832V56.4235C94.1554 55.6143 93.4995 54.9586 92.6906 54.9586C91.8816 54.9586 91.2257 55.6143 91.2257 56.4235V71.1832C91.2257 72.1254 90.4622 72.892 89.5238 72.892H10.4761C9.53765 72.892 8.77417 72.1254 8.77417 71.1832V20.8039C8.77417 19.8619 9.53765 19.0953 10.4761 19.0953H13.2349C14.0439 19.0953 14.6998 18.4397 14.6998 17.6305C14.6998 16.8213 14.0439 16.1656 13.2349 16.1656H10.4761C7.92222 16.1656 5.84448 18.2463 5.84448 20.8039V71.1832C5.84448 73.741 7.92222 75.8217 10.4761 75.8217H89.5238C92.0777 75.8217 94.1554 73.741 94.1554 71.1832Z" fill="#891C7E"/>
<path d="M12.5107 78.7062C11.7018 78.7062 11.0459 79.3619 11.0459 80.1711C11.0459 80.9803 11.7018 81.6359 12.5107 81.6359H18.4949C19.3039 81.6359 19.9598 80.9803 19.9598 80.1711C19.9598 79.3619 19.3039 78.7062 18.4949 78.7062H12.5107Z" fill="#891C7E"/>
<path d="M24.2295 78.7062C23.4205 78.7062 22.7646 79.3619 22.7646 80.1711C22.7646 80.9803 23.4205 81.6359 24.2295 81.6359H30.2137C31.0227 81.6359 31.6785 80.9803 31.6785 80.1711C31.6785 79.3619 31.0227 78.7062 30.2137 78.7062H24.2295Z" fill="#891C7E"/>
<path d="M50.0843 67.1572C56.0349 67.1572 61.8822 65.5824 66.9943 62.6029C71.954 59.7123 76.1193 55.5732 79.0398 50.6334C79.4515 49.9369 79.2206 49.0387 78.5244 48.627C77.8277 48.2154 76.9296 48.4461 76.5179 49.1424C74.7304 52.1658 72.4322 54.8607 69.7472 57.1041C68.5427 56.5621 67.2923 56.0738 66.0023 55.6408C69.1275 49.9037 70.9206 42.699 71.1238 35.0439H80.7271C80.5921 37.9143 80.0601 40.7313 79.1404 43.4381C78.88 44.2041 79.29 45.0361 80.056 45.2965C80.2122 45.3494 80.371 45.3746 80.5275 45.3746C81.1374 45.3746 81.707 44.9904 81.9142 44.3807C83.0935 40.9107 83.6913 37.2766 83.6913 33.5791C83.6911 15.0633 68.6152 0 50.0843 0C44.7265 0 39.6052 1.22266 34.8624 3.63398C30.6916 5.75469 26.9546 8.77656 23.9921 12.4146C23.5296 12.2689 23.0376 12.1904 22.5275 12.1904C19.8341 12.1904 17.6431 14.3803 17.6431 17.0719C17.6431 18.4311 18.2019 19.6621 19.1017 20.548C17.3597 24.6717 16.4773 29.0494 16.4773 33.5785C16.4773 52.0939 31.5533 67.1572 50.0843 67.1572ZM19.4417 35.0436H29.0449C29.248 42.6986 31.0412 49.9033 34.1664 55.6404C32.881 56.0719 31.6351 56.5582 30.4347 57.0979C24.0492 51.7639 19.8603 43.8883 19.4417 35.0436ZM33.1558 59.1275C33.9912 58.7963 34.848 58.4912 35.7242 58.2129C36.7205 59.6936 37.7935 61.0023 38.9296 62.1305C36.8902 61.3324 34.9566 60.3225 33.1558 59.1275ZM48.6195 64.127C44.9994 63.6289 41.5693 61.2914 38.7191 57.383C41.8498 56.6367 45.1783 56.2072 48.6195 56.1123V64.127ZM48.6195 53.1816C44.5832 53.2873 40.6835 53.8297 37.0427 54.7834C33.9593 49.3879 32.1826 42.46 31.9757 35.0436H48.6197V39.0598C46.6398 39.683 45.1999 41.5352 45.1999 43.717C45.1999 45.8986 46.6398 47.7508 48.6197 48.374V53.1816H48.6195ZM51.5492 64.127V56.1123C54.9904 56.2072 58.3189 56.6367 61.4496 57.383C58.5992 61.2914 55.1693 63.6289 51.5492 64.127ZM67.0267 59.133C66.5337 59.4602 66.031 59.7732 65.5189 60.0717C64.1429 60.8736 62.7085 61.5641 61.2304 62.1389C62.3697 61.0088 63.4456 59.6971 64.4443 58.2127C65.3253 58.4928 66.1869 58.7998 67.0267 59.133ZM68.6814 25.1398C67.6035 25.1398 66.7267 24.2643 66.7267 23.1881C66.7267 22.1119 67.6036 21.2363 68.6814 21.2363C69.7593 21.2363 70.6363 22.1119 70.6363 23.1881C70.6363 24.2643 69.7593 25.1398 68.6814 25.1398ZM80.7267 32.1139H71.1234C71.0826 30.5898 70.9781 29.073 70.8111 27.5807C72.4404 26.7885 73.566 25.1172 73.566 23.1881C73.566 20.5582 71.4744 18.4074 68.8662 18.3102C68.0861 15.8566 67.1234 13.577 66.0029 11.5168C67.288 11.0854 68.5337 10.5992 69.7339 10.0598C76.1193 15.3934 80.3082 23.2689 80.7267 32.1139ZM67.0126 8.02969C66.1773 8.36094 65.3206 8.66582 64.4445 8.94434C63.6165 7.71641 62.7242 6.59277 61.7746 5.58652C61.5917 5.39277 61.4072 5.20391 61.221 5.01973C63.2671 5.81875 65.2068 6.83125 67.0126 8.02969ZM51.5492 3.03281C55.1894 3.5457 58.6353 5.95156 61.4412 9.77617C58.3128 10.5213 54.9873 10.95 51.5492 11.0449V3.03281ZM51.5492 13.9756C55.5845 13.8699 59.4832 13.3277 63.1232 12.3746C64.2574 14.358 65.2427 16.609 66.038 19.0848C64.6906 19.9547 63.797 21.4689 63.797 23.1879C63.797 25.6176 65.5826 27.6383 67.9111 28.0086C68.0595 29.3605 68.1537 30.7334 68.1927 32.1137H51.5492V13.9756ZM51.5492 35.0436H68.1929C67.9859 42.4598 66.2093 49.3877 63.1259 54.7834C59.4851 53.8299 55.5855 53.2873 51.5492 53.1816V48.374C53.529 47.7508 54.9687 45.8986 54.9687 43.717C54.9687 41.5352 53.5289 39.6832 51.5492 39.0598V35.0436ZM50.0843 41.7652C51.1623 41.7652 52.039 42.6408 52.039 43.717C52.039 44.7932 51.1621 45.6686 50.0843 45.6686C49.0064 45.6686 48.1294 44.7932 48.1294 43.717C48.1294 42.6408 49.0064 41.7652 50.0843 41.7652ZM48.6195 3.03086V11.0449C45.173 10.9498 41.8398 10.5191 38.705 9.7709C41.5042 5.93906 44.9484 3.53867 48.6195 3.03086ZM36.1902 6.2457C37.1076 5.7793 38.0404 5.36172 38.9878 4.99297C37.8238 6.13652 36.7316 7.45977 35.7275 8.94551C34.846 8.66562 33.9841 8.35859 33.1441 8.0252C34.1251 7.37324 35.1425 6.77832 36.1902 6.2457ZM22.5273 15.1201C23.6052 15.1201 24.4822 15.9957 24.4822 17.0719C24.4822 18.148 23.6052 19.0236 22.5273 19.0236C21.4494 19.0236 20.5726 18.148 20.5726 17.0719C20.5726 15.9957 21.4496 15.1201 22.5273 15.1201ZM21.7175 21.8863C21.981 21.9305 22.2515 21.9535 22.5273 21.9535C25.2207 21.9535 27.4119 19.7637 27.4119 17.0721C27.4119 15.9543 27.0339 14.9232 26.3992 14.0994C27.6115 12.6316 28.9623 11.276 30.4242 10.0551C31.6279 10.5967 32.8775 11.0844 34.1665 11.5172C32.7384 14.1387 31.5537 17.1424 30.6775 20.4594C30.4708 21.2416 30.9376 22.043 31.7197 22.2496C31.8451 22.2828 31.9708 22.2986 32.0947 22.2986C32.7435 22.2986 33.3365 21.8643 33.5101 21.2074C34.3888 17.8799 35.5886 14.9053 37.03 12.3709C40.6746 13.3266 44.5783 13.8701 48.6191 13.9758V32.1141H31.9755C32.0187 30.5922 32.1287 29.0781 32.3041 27.5957C32.3992 26.7924 31.8251 26.0639 31.0216 25.9688C30.2201 25.8758 29.49 26.448 29.3947 27.2512C29.2056 28.8469 29.0884 30.477 29.0447 32.1139H19.4408C19.6054 28.5721 20.3689 25.1428 21.7175 21.8863Z" fill="#891C7E"/>
<path d="M21.3127 58.3375H15.0352C14.2262 58.3375 13.5703 58.9932 13.5703 59.8024C13.5703 60.6115 14.2262 61.2672 15.0352 61.2672H21.3127C22.1217 61.2672 22.7775 60.6115 22.7775 59.8024C22.7775 58.9932 22.1217 58.3375 21.3127 58.3375Z" fill="#891C7E"/>
<path d="M13.5703 66.6383C13.5703 67.4475 14.2262 68.1031 15.0352 68.1031H25.2129C26.0219 68.1031 26.6777 67.4475 26.6777 66.6383C26.6777 65.8291 26.0219 65.1735 25.2129 65.1735H15.0352C14.2262 65.1735 13.5703 65.8291 13.5703 66.6383Z" fill="#891C7E"/>
</svg>
