<svg width="30" height="30" viewBox="0 0 30 30" fill="none" xmlns="http://www.w3.org/2000/svg">
<g clip-path="url(#clip0)">
<path d="M21.2154 9.24959L16.8721 11.757V6.74219H13.1276V11.757L8.78436 9.24959L6.91211 12.4924L11.2554 15L6.91211 17.5076L8.78436 20.7504L13.1276 18.243V23.2578H16.8721V18.243L21.2154 20.7504L23.0876 17.5076L18.7444 15L23.0876 12.4924L21.2154 9.24959Z" fill="#891C7E"/>
<path d="M25.6066 4.39339C22.7735 1.56029 19.0066 0 15 0C10.9934 0 7.22649 1.56029 4.39339 4.39339C1.56029 7.22649 0 10.9934 0 15C0 19.0066 1.56029 22.7735 4.39339 25.6066C7.22649 28.4397 10.9934 30 15 30C19.0066 30 22.7735 28.4397 25.6066 25.6066C28.4397 22.7735 30 19.0066 30 15C30 10.9934 28.4397 7.22649 25.6066 4.39339ZM25.489 16.864L21.8589 23.1516L18.6301 21.2876V25.0156H11.3699V21.2876L8.1411 23.1516L4.51103 16.864L7.73987 15L4.51103 13.136L8.1411 6.84837L11.3699 8.71239V4.98436H18.6301V8.71239L21.8589 6.84837L25.489 13.136L22.2601 15L25.489 16.864Z" fill="#891C7E"/>
</g>
<defs>
<clipPath id="clip0">
<rect width="30" height="30" fill="white"/>
</clipPath>
</defs>
</svg>
