<svg width="68" height="68" viewBox="0 0 68 68" fill="none" xmlns="http://www.w3.org/2000/svg">
<path fill-rule="evenodd" clip-rule="evenodd" d="M48.2549 6.99515C48.4527 7.19254 48.6098 7.42704 48.7169 7.68521C48.824 7.94337 48.8792 8.22014 48.8792 8.49965C48.8792 8.77916 48.824 9.05593 48.7169 9.31409C48.6098 9.57226 48.4527 9.80676 48.2549 10.0041L24.2551 33.9997L48.2549 57.9952C48.4524 58.1927 48.6092 58.4273 48.7161 58.6854C48.823 58.9436 48.878 59.2202 48.878 59.4997C48.878 59.7791 48.823 60.0557 48.7161 60.3139C48.6092 60.572 48.4524 60.8066 48.2549 61.0042C48.0573 61.2017 47.8227 61.3585 47.5646 61.4654C47.3064 61.5723 47.0298 61.6273 46.7504 61.6273C46.4709 61.6273 46.1943 61.5723 45.9361 61.4654C45.678 61.3585 45.4434 61.2017 45.2459 61.0042L19.7458 35.5042C19.548 35.3068 19.3909 35.0723 19.2838 34.8141C19.1767 34.5559 19.1215 34.2792 19.1215 33.9997C19.1215 33.7201 19.1767 33.4434 19.2838 33.1852C19.3909 32.927 19.548 32.6925 19.7458 32.4952L45.2459 6.99515C45.4432 6.79725 45.6777 6.64025 45.9359 6.53312C46.1941 6.42599 46.4708 6.37085 46.7504 6.37085C47.0299 6.37085 47.3066 6.42599 47.5648 6.53312C47.823 6.64025 48.0575 6.79725 48.2549 6.99515Z" fill="#B0A2A2"/>
</svg>
