<svg width="200" height="50" viewBox="0 0 200 50" fill="none" xmlns="http://www.w3.org/2000/svg">
<path d="M120.504 22.5133C118.339 21.5996 115.952 21.4255 113.61 21.5996C115.378 20.0331 116.35 17.9445 115.113 15.3772C113.389 11.7656 109.368 11.5481 106.098 12.897C106.452 10.1557 106.186 7.37086 105.082 4.8036C104.021 2.32337 101.723 -0.809538 98.5859 0.191257C95.4485 1.14854 94.0786 5.49982 93.6367 8.32816C93.2832 10.8084 93.5041 13.2016 94.2553 15.5513C91.5598 14.4635 88.3782 14.2024 86.2571 16.291C84.4011 18.1185 84.9314 20.0331 86.2571 21.556C80.5566 21.0774 73.4421 21.5125 74.591 28.3441C75.4748 33.6961 82.28 36.1328 87.4502 35.045C86.8315 37.4817 87.2734 40.1795 89.041 42.0941C91.1179 44.3568 93.3274 43.8346 95.095 42.2682C95.7578 46.1843 97.7905 50.7967 102.298 49.8829C106.363 49.0561 107.203 44.1827 106.628 40.1795C108.794 41.2238 111.312 41.2673 113.124 39.1352C115.069 36.8726 114.096 34.6534 112.55 32.6953C114.627 33.261 116.748 33.6091 118.957 33.6961C121.874 33.8267 125.321 33.7831 125.807 30.2586C125.851 30.1716 125.851 30.041 125.851 29.954C125.807 26.56 123.553 23.8187 120.504 22.5133ZM116.615 31.0854C114.008 30.7373 111.489 29.9975 109.103 28.9532C107.866 28.4311 106.717 29.7365 107.645 30.7808C108.926 32.2602 112.461 34.5229 111.71 36.8726C110.605 40.1795 106.761 37.7428 105.479 36.1328C104.596 35.0015 103.093 36.4374 103.624 37.5687C104.64 39.8314 105.391 47.5332 101.414 47.5332C97.8347 47.5767 97.2602 41.6155 97.216 39.2223C97.216 38.0474 95.6252 37.6558 95.0066 38.6131C94.5205 39.3963 93.6809 40.7017 92.7529 41.0498C91.3389 41.5284 90.4109 40.0055 90.0132 39.0482C89.2178 37.1336 89.5271 35.132 90.6318 33.435C91.2947 32.4342 90.0132 31.2159 88.9968 31.8251C85.3291 34.0007 77.2424 32.4777 76.8889 27.4303C76.4912 21.5995 87.3176 23.8622 90.7202 24.2538C91.8691 24.3844 92.3994 22.5133 91.3389 22.0782C89.6155 21.382 85.3733 18.9888 88.8643 17.3353C91.1179 16.2475 94.167 17.6399 95.9346 18.9888C96.9509 19.772 98.4975 18.8147 97.7905 17.5529C95.6694 13.7237 94.6089 7.06628 98.0114 3.45472C100.84 0.452334 102.961 5.06468 103.535 7.41437C104.154 9.8946 103.977 12.3748 103.27 14.8116C103.005 15.7253 104.154 16.7696 105.038 16.1169C107.114 14.507 111.224 12.9405 112.815 16.0734C114.627 19.598 109.766 21.469 107.159 22.2523C105.921 22.6004 106.098 24.7325 107.468 24.5584C112.329 23.9493 123.332 22.0347 123.465 29.6929C122.89 32.1732 118.471 31.3464 116.615 31.0854Z" fill="#FFE0EF"/>
<path d="M103.535 28.3C104.065 26.0808 101.061 22.9044 98.9395 24.5579C97.9231 25.3411 98.9836 26.6465 100.044 26.4724C100.486 26.6465 100.972 26.9076 101.149 27.2122C101.768 28.5611 99.7349 28.6916 99.1604 28.474C97.9673 28.0389 97.658 26.7335 97.4812 25.6457C97.1277 22.9479 100.354 22.4693 102.165 23.7311C103.403 24.6014 104.596 22.5563 103.358 21.686C101.061 20.076 97.7463 20.2936 95.8904 22.5128C94.167 24.5144 95.095 28.4305 97.0835 29.997C99.1604 31.6505 102.828 31.0848 103.535 28.3Z" fill="#FFE0EF"/>
<path d="M92.0456 27.2988C89.35 27.3423 86.3893 27.7339 83.8705 26.6896C82.4565 26.124 81.8378 28.3866 83.2519 28.9523C85.9916 30.0401 89.1732 29.6485 92.0456 29.605C93.548 29.6485 93.548 27.2988 92.0456 27.2988Z" fill="#FFE0EF"/>
<path d="M101.68 34.175C101.503 32.6956 99.1165 32.6956 99.2933 34.175C99.6026 36.8293 100.133 39.3965 100.928 41.9203C101.37 43.3562 103.668 42.747 103.226 41.3111C102.519 39.0049 101.989 36.6117 101.68 34.175Z" fill="#FFE0EF"/>
<path d="M113.61 25.5152C111.224 25.3412 108.926 25.4717 106.584 25.8198C105.082 26.0374 105.7 28.3 107.203 28.0825C109.324 27.7779 111.445 27.6909 113.61 27.8649C115.113 27.9955 115.113 25.6458 113.61 25.5152Z" fill="#FFE0EF"/>
<path d="M101.149 18.2053C100.619 16.4647 100.088 14.7678 100.398 12.9402C100.619 11.5913 100.795 10.2859 100.663 8.89353C100.53 7.4141 98.1441 7.37058 98.2767 8.89353C98.4092 10.634 97.9231 12.2005 97.8348 13.8975C97.7464 15.551 98.3208 17.2915 98.8069 18.8579C99.293 20.2504 101.591 19.6412 101.149 18.2053Z" fill="#FFE0EF"/>
<path d="M95.1392 30.9549C93.5483 32.3038 92.4436 34.1313 92.0017 36.1764C91.6924 37.6559 93.9902 38.265 94.2996 36.7856C94.6531 35.0886 95.4927 33.6962 96.8184 32.6084C97.9673 31.6076 96.2881 29.9541 95.1392 30.9549Z" fill="#FFE0EF"/>
<path d="M106.805 32.1733C106.098 31.9557 105.48 31.5206 105.082 30.9114C104.286 29.6495 102.21 30.8244 103.005 32.0862C103.756 33.2176 104.861 34.0878 106.187 34.4359C107.645 34.8276 108.308 32.5649 106.805 32.1733Z" fill="#FFE0EF"/>
<path d="M104.993 20.7293C106.407 19.7285 107.91 18.9018 109.456 18.162C110.87 17.5529 109.633 15.5077 108.263 16.1169C106.672 16.8131 105.214 17.6834 103.8 18.6842C102.519 19.598 103.712 21.6431 104.993 20.7293Z" fill="#FFE0EF"/>
<path d="M95.2274 21.5561C95.5809 20.9904 95.3599 20.2942 94.7855 19.9461C94.1226 19.511 93.4156 19.1194 92.7528 18.6842C92.2225 18.3361 91.4271 18.5537 91.1178 19.1194C90.7642 19.685 90.9852 20.3812 91.5597 20.7293C92.2225 21.1645 92.9295 21.5561 93.5924 21.9912C94.1226 22.3393 94.918 22.0782 95.2274 21.5561Z" fill="#FFE0EF"/>
<path d="M199.735 26.6464C199.294 25.6456 198.498 24.9929 197.526 24.6448C197.88 24.2097 198.145 23.644 198.189 23.0348C198.277 21.4249 196.642 20.25 195.228 19.8584C191.472 18.7706 185.109 21.7294 183.164 24.9494C183.076 25.1234 182.988 25.2975 182.988 25.4715C165.268 26.6899 147.504 26.6464 129.828 25.3845C128.281 25.254 128.325 27.6037 129.828 27.7342C147.592 29.0396 165.444 29.0396 183.209 27.8213C185.374 29.2137 188.29 29.7358 190.809 30.2145C193.063 30.6496 196.112 31.2588 198.277 30.3015C199.78 29.6053 200.398 28.1693 199.735 26.6464ZM197.084 28.2564C197.04 28.4304 195.493 28.3869 195.317 28.3869C193.902 28.3869 192.444 28.1693 191.03 27.8648C189.174 27.4731 186.921 27.0815 185.153 26.2113C185.153 26.1678 185.197 26.1678 185.197 26.1242C186.258 24.3402 188.909 23.2089 190.809 22.5997C191.605 22.3386 192.754 21.9905 193.549 21.9905C195.272 21.9905 196.465 23.2089 194.344 24.0356C193.991 24.1662 193.77 24.3837 193.682 24.6883C193.24 25.3845 193.549 26.5594 194.609 26.5159C195.317 26.5159 197.305 27.4732 197.084 28.2564Z" fill="#FFE0EF"/>
<path d="M169.466 30.6071C166.726 30.2155 164.163 30.6071 161.467 30.4766C160.584 30.433 159.965 31.5209 160.451 32.2606C161.291 33.5225 162.263 34.6103 162.881 36.0027C163.367 37.047 163.898 37.9172 164.649 38.831C165.842 40.354 167.61 42.4426 169.775 42.3991C171.498 42.3556 172.117 40.7456 172.073 39.3096C172.029 38.5264 171.852 37.7867 171.498 37.0905C171.763 37.047 172.029 36.96 172.294 36.8294C173.531 36.2203 174.768 34.4797 174.282 33.0873C173.708 31.3033 171.012 30.8246 169.466 30.6071ZM168.935 33.9576C168.184 33.5224 167.477 33.9576 167.256 34.5668C166.947 35.0889 166.947 35.7851 167.61 36.1767C168.361 36.6119 168.935 37.2645 169.289 38.0043C169.421 38.2218 169.996 39.7013 169.51 39.8753C168.67 40.1799 167.079 38.0478 166.593 37.3951C165.754 36.3508 165.312 35.263 164.649 34.0881C164.384 33.6095 164.075 33.1308 163.765 32.6957C165.179 32.6522 166.593 32.5217 168.052 32.6957C168.626 32.7392 171.675 32.9568 171.808 33.74C172.117 35.524 169.377 34.2187 168.935 33.9576Z" fill="#FFE0EF"/>
<path d="M145.338 24.7317C148.167 24.253 150.995 24.2095 153.734 23.4263C155.414 22.9912 157.579 22.1209 158.33 20.4239C158.949 18.9445 157.844 17.7696 156.474 17.204C155.723 16.8994 154.928 16.7253 154.088 16.7688C154.132 16.5513 154.176 16.3337 154.176 16.0726C154.176 14.6802 153.027 12.7221 151.481 12.6351C149.757 12.5046 148.343 14.4627 147.504 15.681C145.869 18.0307 145.25 20.5545 144.013 23.0347C143.483 23.9485 144.278 24.8622 145.338 24.7317ZM148.255 18.9445C148.697 18.0742 149.183 17.2475 149.757 16.4642C150.111 15.768 150.685 15.3329 151.437 15.2459C151.702 16.4642 151.304 17.291 150.244 17.7696C149.492 18.2918 149.625 19.2056 150.111 19.6842C150.42 20.1193 150.995 20.3804 151.569 19.9453C152.365 19.3796 153.027 19.2055 154.044 19.162C154.928 19.1185 155.767 18.988 155.458 19.8147C155.104 20.8155 153.072 21.1201 152.099 21.3377C150.774 21.6423 149.581 21.5552 148.255 21.7293C147.813 21.7728 147.371 21.8598 146.885 21.9469C147.371 20.9896 147.725 19.9453 148.255 18.9445Z" fill="#FFE0EF"/>
<path d="M70.2163 25.3853C52.4964 26.6471 34.7322 26.6907 17.0565 25.4723C17.0565 25.2982 17.0123 25.1242 16.8797 24.9501C14.9353 21.7737 8.57207 18.7278 4.81597 19.8592C1.89947 20.7294 1.45757 22.905 2.65068 24.5585C1.63432 24.9066 0.750552 25.5593 0.264468 26.6471C-0.398373 28.1701 0.220273 29.606 1.72271 30.3022C3.888 31.303 6.93705 30.6503 9.19071 30.2152C11.6653 29.7366 14.626 29.2144 16.7913 27.822C34.5555 29.0404 52.408 28.9968 70.1721 27.735C71.7188 27.6044 71.763 25.2547 70.2163 25.3853ZM9.01397 27.8655C7.73248 28.1266 6.45098 28.3006 5.16948 28.3442C4.72759 28.3442 3.84379 28.5182 3.44609 28.3006C2.65068 28.3441 2.73906 27.996 3.75542 27.3869C4.06474 26.6036 4.63921 26.299 5.39043 26.5166C6.49517 26.5166 6.80448 25.3418 6.3184 24.6891C6.18583 24.428 5.96488 24.1669 5.65556 24.0364C3.53446 23.2096 4.68341 21.9913 6.45099 21.9913C7.33478 21.9913 8.3953 22.3394 9.19071 22.6005C11.135 23.2532 13.7422 24.341 14.8028 26.125C14.8028 26.1685 14.847 26.1685 14.847 26.212C13.1236 27.1258 10.8699 27.5174 9.01397 27.8655Z" fill="#FFE0EF"/>
<path d="M38.5324 30.4766C35.9252 30.6071 33.3622 30.2155 30.7108 30.6071C29.12 30.8246 26.3361 31.3033 25.7174 33.0873C25.2313 34.4362 26.3803 35.9592 27.485 36.6554C27.8385 36.8729 28.1921 37.0035 28.5456 37.047C28.2362 37.6562 28.0595 38.3089 28.0153 39.0051C27.8827 40.528 28.4572 42.312 30.2689 42.3555C32.3017 42.3991 33.9808 40.528 35.1298 39.1356C36.8532 37.047 38.0905 34.5232 39.5929 32.2171C40.0348 31.4773 39.4162 30.433 38.5324 30.4766ZM33.4064 37.4821C32.7878 38.2218 31.9481 39.5272 30.9318 39.7013C30.4457 40.1364 30.2248 39.9624 30.3131 39.2226C30.3573 38.9616 30.4015 38.7005 30.4457 38.4829C30.7108 37.5256 31.5062 36.6989 32.3458 36.2202C33.0087 35.8286 33.0529 35.0889 32.6994 34.6103C32.4784 34.0011 31.7714 33.5225 31.0202 34.0011C30.5341 34.3057 29.4735 34.9584 28.9433 34.8278C28.8549 34.7843 28.1037 34.2186 28.1037 34.0881C28.1479 33.1308 31.4179 32.9133 31.904 32.8698C33.3622 32.7392 34.7763 32.8262 36.1903 32.8698C35.9252 33.2179 35.6601 33.6095 35.4391 33.9576C34.7763 35.1324 34.3786 36.3073 33.4064 37.4821Z" fill="#FFE0EF"/>
<path d="M46.31 23.4271C49.0498 24.1668 51.9221 24.2538 54.706 24.7324C55.7224 24.9065 56.5178 23.9927 56.0317 22.9919C54.8386 20.6422 54.22 18.249 52.7617 15.9864C51.8779 14.681 50.3755 12.5054 48.5195 12.5924C47.0171 12.6794 45.9565 14.5504 45.8682 15.8993C45.8682 16.2039 45.8682 16.465 45.9565 16.7696C45.1169 16.7696 44.3215 16.9001 43.5703 17.2047C42.2446 17.7704 41.0957 18.9017 41.7144 20.4247C42.4656 22.1217 44.6308 22.9919 46.31 23.4271ZM48.4312 19.9896C49.0056 20.4247 49.5801 20.1636 49.9336 19.7285C50.4639 19.2498 50.5964 18.2926 49.801 17.8139C48.7405 17.3353 48.3428 16.5085 48.6079 15.2902C49.3591 15.4207 49.9336 15.8123 50.2871 16.5085C50.8616 17.2918 51.3476 18.162 51.7895 18.9888C52.3198 19.9896 52.7175 20.9904 53.1152 22.0347C52.7175 21.9476 52.3198 21.9041 51.9221 21.8171C50.5522 21.643 49.3149 21.7301 47.9009 21.4255C46.9287 21.2079 45.5147 20.9904 44.8076 20.2942C43.0842 18.5536 47.3706 19.2498 48.4312 19.9896Z" fill="#FFE0EF"/>
</svg>
