<svg width="58" height="50" viewBox="0 0 58 50" fill="none" xmlns="http://www.w3.org/2000/svg">
<path fill-rule="evenodd" clip-rule="evenodd" d="M29.0122 35.8181C31.6201 38.304 35.1222 39.8118 38.9316 39.8118C47.1127 39.8118 53.7343 32.909 53.7343 24.419C53.7343 15.9031 47.1127 9 38.9316 9C35.1222 9 31.6201 10.5075 29.0122 12.9936C26.021 15.8234 24.1289 19.8965 24.1289 24.419C24.1292 28.9415 26.021 33.0148 29.0122 35.8181Z" fill="#E9B040"/>
<path fill-rule="evenodd" clip-rule="evenodd" d="M51.77 32.9877C51.77 32.7231 51.9746 32.5117 52.2301 32.5117C52.5111 32.5117 52.7154 32.7234 52.7154 32.9877C52.7154 33.279 52.5108 33.4904 52.2301 33.4904C51.9746 33.4904 51.77 33.279 51.77 32.9877ZM52.2301 33.3848C52.4347 33.3848 52.6131 33.1993 52.6131 32.988C52.6131 32.7766 52.4344 32.6179 52.2301 32.6179C52.0508 32.6179 51.8723 32.7766 51.8723 32.988C51.8723 33.1993 52.0511 33.3848 52.2301 33.3848ZM52.1789 33.2261H52.0766V32.7763H52.2554C52.2812 32.7763 52.3324 32.7763 52.3577 32.8031C52.4088 32.8292 52.4088 32.856 52.4088 32.9089C52.4088 32.9618 52.3836 33.0147 52.3324 33.0147L52.4347 33.2264H52.3065L52.2554 33.0409H52.1789V33.2261V32.9615H52.2812C52.3065 32.9615 52.3065 32.9347 52.3065 32.9086C52.3065 32.8818 52.3065 32.8818 52.2812 32.8557H52.1789V33.2261Z" fill="#E9B040"/>
<path fill-rule="evenodd" clip-rule="evenodd" d="M33.7938 22.7795C33.7427 22.2242 33.6404 21.6953 33.5381 21.1397H24.4876C24.5899 20.5844 24.7434 20.0555 24.8966 19.5264H33.1036C32.9254 18.9696 32.7207 18.4223 32.49 17.8866H25.536C25.7918 17.3264 26.0733 16.7791 26.3797 16.2468H31.621C31.2838 15.6819 30.9079 15.1428 30.4963 14.6334H27.5047C27.9675 14.0488 28.4717 13.5007 29.0132 12.9936C26.38 10.534 22.9028 9 19.0679 9C10.9123 9 4.26514 15.9031 4.26514 24.419C4.26514 32.909 10.9123 39.8118 19.0679 39.8118C22.9028 39.8118 26.3797 38.304 29.0132 35.8181C29.5464 35.3199 30.0422 34.7805 30.4963 34.2045H27.5047C27.0955 33.6756 26.7378 33.1468 26.3797 32.5647H31.621C31.9506 32.0417 32.2412 31.4935 32.4903 30.9249H25.536C25.3058 30.396 25.0759 29.8672 24.8966 29.3113H33.1036C33.2823 28.7824 33.4105 28.2274 33.5378 27.6715C33.6401 27.1426 33.7424 26.5876 33.7935 26.0317C33.8454 25.4955 33.8711 24.9569 33.8706 24.418C33.8706 23.8637 33.845 23.3083 33.7938 22.7795Z" fill="#CC2131"/>
<path fill-rule="evenodd" clip-rule="evenodd" d="M51.77 27.9894C51.77 27.6987 51.9746 27.4873 52.2301 27.4873C52.5111 27.4873 52.7154 27.699 52.7154 27.9894C52.7154 28.254 52.5108 28.4921 52.2301 28.4921C51.9746 28.4921 51.77 28.2537 51.77 27.9894ZM52.2301 28.3595C52.4347 28.3595 52.6131 28.2008 52.6131 27.9894C52.6131 27.778 52.4344 27.6193 52.2301 27.6193C52.0508 27.6193 51.8723 27.778 51.8723 27.9894C51.8723 28.2008 52.0511 28.3595 52.2301 28.3595ZM52.1789 28.2008H52.0766V27.7777H52.3577C52.4088 27.8045 52.4088 27.8574 52.4088 27.9103C52.4088 27.9365 52.3836 27.9894 52.3324 28.0162L52.4347 28.2011H52.3065L52.2554 28.0423H52.1789V28.2008V27.9629H52.2301C52.2554 27.9629 52.2812 27.9629 52.2812 27.9362C52.3065 27.9362 52.3065 27.91 52.3065 27.8833C52.3065 27.8833 52.3065 27.8571 52.2812 27.8571C52.2812 27.8303 52.2554 27.8571 52.2301 27.8571H52.1789V28.2008Z" fill="white"/>
<path fill-rule="evenodd" clip-rule="evenodd" d="M23.9765 28.8623C23.4908 28.9943 23.1328 29.074 22.775 29.074C22.008 29.074 21.5476 28.5713 21.5476 27.672C21.5476 27.4871 21.5732 27.3019 21.5988 27.0903L21.7011 26.4823L21.7778 25.9796L22.4681 21.6423H24.002L23.823 22.5945H24.7946L24.5644 24.1814H23.5928L23.1839 26.7731C23.1583 26.9057 23.1583 26.9847 23.1583 27.0377C23.1583 27.3816 23.3118 27.5136 23.6951 27.5136C23.8742 27.5136 24.0273 27.4874 24.1808 27.4607L23.9765 28.8623ZM28.9365 28.8094C28.3741 28.9682 27.8629 29.0472 27.3002 29.0472C25.5616 29.0472 24.5644 28.095 24.5644 26.2178C24.5644 24.0223 25.7406 22.4355 27.3766 22.4355C28.6804 22.4355 29.5241 23.3347 29.5241 24.7361C29.5241 25.2126 29.473 25.6621 29.3454 26.2968H26.1496C26.124 26.4027 26.124 26.4556 26.124 26.5085C26.124 27.249 26.6096 27.6191 27.5301 27.6191C28.118 27.6191 28.6293 27.4871 29.1919 27.2229L28.9365 28.8094ZM27.9905 25.0274V24.7099C27.9905 24.1811 27.7091 23.89 27.2235 23.89C26.7119 23.89 26.3542 24.2866 26.2007 25.0271H27.9905V25.0274ZM11.7046 28.9414H10.1195L11.0399 22.9382L8.96916 28.9414H7.86998L7.7421 22.9646L6.77049 28.9414H5.21094L6.46358 21.1396H8.79013L8.84128 25.9535L10.4008 21.1396H12.9576L11.7046 28.9414ZM15.5655 26.1119C15.412 26.0852 15.3608 26.0852 15.2585 26.0852C14.3381 26.0852 13.878 26.4553 13.878 27.0373C13.878 27.4342 14.1082 27.6988 14.466 27.6988C15.233 27.6988 15.5396 27.0373 15.5655 26.1119ZM16.8437 28.9414H15.4632L15.4887 28.2806C15.1307 28.7827 14.645 29.0472 13.8013 29.0472C13.0343 29.0472 12.3696 28.3335 12.3696 27.3019C12.3696 27.0112 12.4208 26.7469 12.4975 26.4823C12.753 25.5034 13.699 24.8955 15.1562 24.8687C15.3353 24.8687 15.6163 24.8687 15.8721 24.8955C15.9229 24.6838 15.9229 24.6041 15.9229 24.4721C15.9229 24.0488 15.5907 23.9165 14.8493 23.9165C14.3892 23.9165 13.8777 23.9959 13.5199 24.1282L13.2898 24.1811L13.1875 24.2072L13.4176 22.7791C14.1591 22.541 14.6959 22.4355 15.2841 22.4355C16.6646 22.4355 17.4061 23.0966 17.4061 24.3131C17.4061 24.6306 17.4316 24.8687 17.3293 25.5563L16.9716 27.8308L16.9204 28.2277L16.8948 28.5452L16.8693 28.7568L16.8437 28.9414ZM36.6575 22.6471C37.1176 22.6471 37.5268 22.7794 38.0892 23.0701L38.3703 21.3774C38.2168 21.2981 38.1656 21.2981 37.9613 21.2187L37.3225 21.0335C37.1179 20.9806 36.8625 20.9541 36.5808 20.9541C35.7879 20.9541 35.3279 20.9806 34.8425 21.2716C34.5868 21.4568 34.2543 21.6949 33.8962 22.118L33.6916 22.065L32.0553 23.255L32.1323 22.5939H30.4446L29.448 28.9411H31.059L31.6467 25.5298C31.6467 25.5298 31.8772 25.0533 31.9792 24.8951C32.2861 24.4983 32.5415 24.4983 32.8737 24.4983H33.0019C32.9483 24.9013 32.9225 25.3079 32.9249 25.7147C32.9249 27.7776 34.0497 29.0737 35.7882 29.0737C36.223 29.0737 36.607 29.0208 37.1946 28.862L37.4763 27.0638C36.9651 27.3545 36.5047 27.4868 36.121 27.4868C35.1753 27.4868 34.6123 26.7463 34.6123 25.5828C34.6117 23.8636 35.4558 22.6471 36.6575 22.6471ZM50.2326 21.1396L49.8751 23.3612C49.4915 22.753 49.0311 22.4619 48.4176 22.4619C47.5735 22.4619 46.7813 22.9643 46.2953 23.9165V23.8904L45.2729 23.2554L45.3752 22.5942H43.6622L42.6906 28.9414H44.2757L44.8128 25.5301C44.8128 25.5301 45.2217 25.0536 45.324 24.8955C45.5798 24.578 45.8352 24.5247 46.0399 24.4986C45.8611 25.0274 45.7588 25.6621 45.7588 26.3765C45.7588 27.9634 46.5511 29.0211 47.727 29.0211C48.3153 29.0211 48.7753 28.8094 49.2098 28.3067L49.1334 28.9414H50.6421L51.8692 21.1396H50.2326ZM48.2644 27.4342C47.7273 27.4342 47.4463 27.0112 47.4463 26.191C47.4463 24.9478 47.9575 24.0488 48.6986 24.0488C49.261 24.0488 49.5426 24.4986 49.5426 25.292C49.5426 26.5614 49.0314 27.4342 48.2644 27.4342ZM40.8761 26.1119C40.7227 26.0852 40.6715 26.0852 40.5692 26.0852C39.6482 26.0852 39.1881 26.4553 39.1881 27.0373C39.1881 27.4342 39.4186 27.6988 39.7764 27.6988C40.5433 27.6988 40.8503 27.0373 40.8761 26.1119ZM42.1544 28.9414H40.748L40.7991 28.2806C40.4413 28.7827 39.9551 29.0472 39.112 29.0472C38.3191 29.0472 37.6291 28.3596 37.6291 27.3019C37.6291 25.7947 38.728 24.869 40.4666 24.869C40.646 24.869 40.9267 24.869 41.1572 24.8958C41.2083 24.6841 41.2342 24.6044 41.2342 24.4724C41.2342 24.0491 40.9017 23.9168 40.1347 23.9168C39.6999 23.9168 39.1631 23.9962 38.8054 24.1285L38.6007 24.1814L38.4984 24.2075L38.7283 22.7794C39.47 22.5413 40.0071 22.4358 40.5948 22.4358C41.9753 22.4358 42.6912 23.0969 42.6912 24.3134C42.6912 24.6309 42.7423 24.869 42.6147 25.5566L42.2822 27.8311L42.2311 28.228L42.1799 28.5455L42.1547 28.7571V28.9414H42.1544ZM20.1927 23.943C20.4996 23.943 20.9341 23.9694 21.3945 24.0488L21.6246 22.5677C21.1643 22.5148 20.5507 22.4355 20.1927 22.4355C18.4032 22.4355 17.8153 23.4406 17.8153 24.6041C17.8153 25.3714 18.1475 25.9264 19.0168 26.3494C19.6559 26.6669 19.7582 26.7195 19.7582 27.0109C19.7582 27.4071 19.426 27.6456 18.8122 27.6456C18.3265 27.6456 17.8661 27.5659 17.3549 27.381L17.1759 28.8353L17.2011 28.862L17.5081 28.9149C17.6104 28.9411 17.7382 28.9679 17.9173 28.994C18.3006 29.0208 18.6331 29.0469 18.8377 29.0469C20.6275 29.0469 21.3689 28.3332 21.3689 26.9312C21.3689 26.0587 20.9597 25.5298 20.1671 25.1597C19.4768 24.8419 19.4001 24.7896 19.4001 24.4983C19.4001 24.2075 19.707 23.943 20.1927 23.943Z" fill="#1B3771"/>
<path fill-rule="evenodd" clip-rule="evenodd" d="M38.8069 20.8751L38.5253 22.5678C37.9629 22.2767 37.5537 22.1448 37.0936 22.1448C35.8918 22.1448 35.0484 23.3612 35.0484 25.0804C35.0484 26.2707 35.6108 26.9845 36.5571 26.9845C36.9401 26.9845 37.4005 26.8525 37.9117 26.5882L37.6307 28.3597C37.0424 28.5184 36.6591 28.5981 36.2243 28.5981C34.486 28.5981 33.4121 27.302 33.4121 25.213C33.4121 22.4358 34.8949 20.4785 37.0169 20.4785C37.2979 20.4785 37.5534 20.505 37.758 20.5579L38.3974 20.7166C38.6023 20.796 38.6534 20.8225 38.8069 20.8751ZM33.6423 22.0389H33.4888C32.9523 22.0389 32.6454 22.3035 32.1594 23.0702L32.3129 22.0915H30.8554L29.8588 28.439H31.4698C32.0574 24.5512 32.2109 23.8901 32.9779 23.8901H33.0802C33.2337 23.1231 33.438 22.5675 33.6937 22.0651L33.6423 22.0389ZM24.3875 28.3597C23.953 28.5184 23.595 28.5713 23.2372 28.5713C22.4191 28.5713 21.9587 28.0954 21.9587 27.17C21.9587 27.0112 21.9843 26.7999 22.0098 26.6143L22.1121 25.9797L22.1889 25.4776L22.8791 21.1397H24.4643L24.2852 22.0918H25.1034L24.8988 23.6523H24.0806L23.6461 26.2972C23.6206 26.403 23.6205 26.4827 23.6205 26.5617C23.6205 26.8792 23.774 27.0115 24.1574 27.0115C24.3364 27.0115 24.4895 27.0115 24.5919 26.9586L24.3875 28.3597ZM18.226 24.1017C18.226 24.8955 18.5838 25.4505 19.4275 25.8738C20.0922 26.1913 20.1945 26.2969 20.1945 26.5614C20.1945 26.9583 19.9132 27.1432 19.2741 27.1432C18.7884 27.1432 18.3536 27.0641 17.8424 26.9054L17.6122 28.3597L17.6889 28.3864L17.9703 28.4393C18.0723 28.4655 18.2005 28.4923 18.4048 28.4923C18.7625 28.5452 19.0695 28.5452 19.2741 28.5452C20.9612 28.5452 21.7541 27.8837 21.7541 26.4295C21.7541 25.5563 21.4219 25.0536 20.6293 24.6574C19.9391 24.3399 19.8623 24.2608 19.8623 23.9698C19.8623 23.6261 20.1437 23.4674 20.6549 23.4674C20.9618 23.4674 21.3963 23.4938 21.8055 23.5467L22.0354 22.0922C21.6265 22.0128 20.9874 21.9599 20.6293 21.9599C18.8396 21.9596 18.2005 22.9382 18.226 24.1017ZM51.0532 28.4393H49.5445L49.6215 27.8308C49.1867 28.3067 48.7263 28.5184 48.1381 28.5184C46.9622 28.5184 46.1952 27.4875 46.1952 25.9006C46.1952 23.7846 47.397 21.986 48.8027 21.986C49.4422 21.986 49.9022 22.2771 50.3373 22.8588L50.6951 20.6373H52.2802L51.0532 28.4393ZM48.7007 26.9583C49.4425 26.9583 49.9537 26.059 49.9537 24.8158C49.9537 23.9959 49.672 23.5726 49.1097 23.5726C48.3938 23.5726 47.8573 24.4454 47.8573 25.6886C47.8573 26.5353 48.1384 26.9583 48.7007 26.9583ZM29.2961 28.3067C28.7334 28.4923 28.2222 28.5713 27.6342 28.5713C25.8445 28.5713 24.924 27.593 24.924 25.7151C24.924 23.5464 26.1003 21.9331 27.711 21.9331C29.0403 21.9331 29.8838 22.8324 29.8838 24.234C29.8838 24.7103 29.8326 25.1601 29.6791 25.8209H26.5095C26.4839 25.9006 26.4839 25.9535 26.4839 26.0064C26.4839 26.747 26.9699 27.1171 27.89 27.1171C28.478 27.1171 28.9892 27.0112 29.5519 26.7202L29.2961 28.3067ZM28.4012 24.5248V24.2076C28.4012 23.6787 28.1199 23.3877 27.6342 23.3877C27.123 23.3877 26.7649 23.7846 26.6115 24.5248H28.4012ZM12.1157 28.4393H10.5306L11.451 22.4355L9.38022 28.4393H8.28074L8.15286 22.4884L7.18156 28.4393H5.69873L6.95137 20.6373H9.25234L9.32907 25.4773L10.8628 20.6373H13.3683L12.1157 28.4393ZM16.0785 25.6092C15.9251 25.6092 15.8483 25.5831 15.7205 25.5831C14.8256 25.5831 14.3655 25.9267 14.3655 26.5614C14.3655 26.9583 14.5701 27.1961 14.9279 27.1961C15.5926 27.1961 16.053 26.5614 16.0785 25.6092ZM17.2544 28.4393H15.9248L15.9503 27.7779C15.5411 28.3067 15.0043 28.5452 14.2629 28.5452C13.3936 28.5452 12.8057 27.8576 12.8057 26.826C12.8057 25.2659 13.8281 24.3666 15.6179 24.3666C15.7969 24.3666 16.0271 24.3931 16.2825 24.4192C16.3337 24.2079 16.3337 24.1285 16.3337 24.0227C16.3337 23.5997 16.0523 23.4409 15.3109 23.4409C14.8509 23.4409 14.3393 23.4938 13.9816 23.5997L13.7514 23.679L13.5979 23.7055L13.8281 22.2774C14.6207 22.0392 15.1575 21.9599 15.7457 21.9599C17.1263 21.9599 17.8677 22.5946 17.8677 23.811C17.8677 24.1285 17.8421 24.3666 17.7398 25.0807L17.3817 27.329L17.3306 27.7253L17.305 28.0428L17.2794 28.2812L17.2544 28.4393ZM41.3892 25.6092C41.2099 25.6092 41.1334 25.5831 41.0314 25.5831C40.111 25.5831 39.6503 25.9267 39.6503 26.5614C39.6503 26.9583 39.8808 27.1961 40.2386 27.1961C40.878 27.1961 41.3633 26.5614 41.3892 25.6092ZM42.5651 28.4393H41.2358L41.261 27.7779C40.8521 28.3067 40.3153 28.5452 39.5739 28.5452C38.7046 28.5452 38.1163 27.8576 38.1163 26.826C38.1163 25.2659 39.1388 24.3666 40.9285 24.3666C41.1079 24.3666 41.3381 24.3931 41.5679 24.4192C41.6191 24.2079 41.645 24.1285 41.645 24.0227C41.645 23.5997 41.3633 23.4409 40.6225 23.4409C40.1618 23.4409 39.6253 23.4938 39.2673 23.5997L39.0627 23.679L38.9092 23.7055L39.1391 22.2774C39.932 22.0392 40.4685 21.9599 41.0567 21.9599C42.4372 21.9599 43.1531 22.5946 43.1531 23.811C43.1531 24.1285 43.1531 24.3666 43.0255 25.0807L42.693 27.329L42.6418 27.7253L42.5907 28.0428L42.5654 28.2812V28.4393H42.5651ZM46.8602 22.0389H46.7067C46.1702 22.0389 45.8633 22.3035 45.3773 23.0702L45.5308 22.0915H44.0732L43.1016 28.439H44.6868C45.275 24.5512 45.4285 23.8901 46.1955 23.8901H46.2978C46.4512 23.1231 46.6555 22.5675 46.9113 22.0651L46.8602 22.0389Z" fill="white"/>
</svg>
