<svg width="92" height="41" viewBox="0 0 92 41" fill="none" xmlns="http://www.w3.org/2000/svg">
<g clip-path="url(#clip0)">
<path d="M37.2035 39.5775C37.0284 39.0769 36.7111 38.7356 36.4813 38.292C35.9233 37.5297 35.2667 36.8699 34.6102 36.2101C34.3804 36.1305 34.282 35.9029 34.0631 35.8119C33.9209 35.6185 33.6911 35.5161 33.5051 35.3683C33.1331 35.0725 32.7282 34.8222 32.3124 34.5719C31.5246 34.0486 30.5508 33.7187 29.5879 33.3774C28.5484 33.1158 27.4542 32.9224 26.3162 32.7631C25.1892 32.5925 24.0622 32.4332 23.2087 31.9668C22.7163 31.8189 22.3552 31.5345 21.9285 31.3069C21.5346 31.0339 21.1078 30.8064 20.7796 30.4651C20.3747 30.2148 20.1231 29.7939 19.8058 29.4526C19.6963 29.2251 19.5103 29.0886 19.4228 28.8383C19.3134 28.7928 19.2805 28.6563 19.2149 28.5766C19.1383 28.4856 19.1383 28.3036 19.007 28.2695C18.9413 28.7359 18.9632 29.2933 19.007 29.7711C19.0617 29.9759 19.0836 30.2262 19.1383 30.431C19.1711 30.613 19.3352 30.9088 19.2696 31.0453C15.8557 30.8633 13.3609 29.737 11.1944 28.2581C10.1221 27.5186 9.20299 26.6199 8.34952 25.6529C7.97749 25.1183 7.57264 24.6063 7.24438 24.0148C6.90518 23.4346 6.62069 22.7747 6.31431 22.1604C5.81098 20.8294 5.34048 19.4643 5.16541 17.792C4.93563 16.2334 4.99034 14.2426 5.32954 12.7978C5.4499 12.0014 5.70156 11.3302 5.9204 10.6363C6.06265 10.3178 6.21584 9.99922 6.34714 9.66931C6.53315 9.39628 6.63163 9.02087 6.86141 8.78197C7.4851 7.56471 8.41517 6.65461 9.36712 5.77864C10.3957 4.99367 11.5665 4.35661 12.978 3.96981C14.3348 3.65128 16.184 3.5944 17.6502 3.92431C20.6264 4.56138 22.8695 5.94928 24.7515 7.72397C26.6554 9.46454 28.1216 11.6715 29.1283 14.3563C30.1678 16.9046 30.5289 20.8749 29.5988 23.7645C29.2158 23.537 28.8329 23.3208 28.4499 23.1047C27.9903 22.9681 27.5417 22.8089 27.0056 22.752C26.36 22.7406 25.7254 22.752 25.3096 22.9681C26.1521 22.8771 26.8305 23.116 27.3557 23.3208C27.6621 23.4459 27.8372 23.5256 28.0779 23.6735C28.5484 23.9579 28.9642 24.2195 29.3143 24.6063C30.31 25.5164 31.0213 26.7223 31.3605 28.315C31.3605 28.3605 31.4152 28.3491 31.4042 28.2695C31.448 28.2581 31.4699 28.224 31.4918 28.1785C31.5465 28.1102 31.6121 28.042 31.6668 27.9623C31.7763 27.8258 31.8857 27.6893 31.9623 27.5186C32.1921 27.2342 32.3781 26.9157 32.5531 26.5858C32.958 25.9715 33.2644 25.2661 33.6145 24.5949C34.2163 23.1615 34.7087 21.6144 35.0151 19.8624C35.6278 15.9718 34.8947 12.2858 33.6145 9.56693C32.3015 6.82525 30.4632 4.62963 28.0888 2.98008C25.6925 1.3419 22.8914 0.136017 19.0398 0.0222545C19.0179 -0.0573792 18.9851 0.0336307 18.9085 0.0222545C16.8733 -0.046003 15.232 0.249779 13.6017 0.682077C12.8467 0.943731 12.0588 1.17126 11.3914 1.52392C10.6254 1.78557 10.0127 2.21787 9.31241 2.53641C9.06075 2.78668 8.67778 2.91182 8.41517 3.15072C8.07597 3.32137 7.8243 3.5944 7.4851 3.76504C6.938 4.26559 6.35808 4.70927 5.82193 5.2212C5.29671 5.72176 4.83715 6.29057 4.33382 6.81387C4.25722 6.99589 4.12592 7.12103 3.99462 7.25755C3.90708 7.42819 3.79766 7.57608 3.65542 7.70122C3.60071 7.90599 3.42564 7.98563 3.35998 8.1904C3.21774 8.30416 3.18491 8.53169 3.02078 8.63407C2.87854 8.99811 2.62687 9.25977 2.46274 9.60106C2.26579 9.93097 2.1126 10.295 1.91565 10.6135C1.60927 11.353 1.28101 12.0697 1.02935 12.866C0.766739 13.6396 0.5479 14.4587 0.394712 15.3461C0.230583 16.1765 0.0773954 17.2573 0.0992793 18.1332C-0.0101403 18.4518 0.0773954 19.0433 0.0992793 19.4188C0.0992793 19.487 0.0555114 19.5098 0.0555114 19.5553C0.0555114 19.9762 0.164931 20.4881 0.186815 20.7498C0.274351 21.7168 0.43848 22.6155 0.701087 23.4004C0.865217 24.2764 1.21536 24.959 1.46702 25.7439C1.84999 26.4038 2.1126 27.1887 2.57216 27.7803C2.91136 28.4742 3.39281 29.0203 3.85237 29.5891C4.34476 30.1352 4.83715 30.6926 5.42801 31.1363C6.51127 32.1147 7.78054 32.8996 9.17017 33.5708C11.7634 34.8791 15.6369 35.7323 19.1164 35.5161C20.0027 35.391 20.8999 35.2772 21.7097 35.0725C22.4537 34.7881 23.3181 34.6174 24.2154 34.5037C26.2615 34.3671 28.0341 34.5605 29.6097 35.0383C31.2073 35.482 32.586 36.1532 33.7786 37.0292C34.4133 37.416 34.9385 37.9165 35.4746 38.3943C36.0217 38.8835 36.4594 39.4865 36.9627 40.0325C37.0284 40.2373 37.1597 40.3852 37.2582 40.5672C37.3895 40.7151 37.3238 41.0564 37.6411 41.0109C37.8381 40.8061 37.6083 40.5103 37.5974 40.26C37.4004 40.0439 37.3567 39.7595 37.2035 39.5775Z" fill="black"/>
<path d="M29.2589 27.4733C29.2152 27.4733 29.2042 27.5075 29.1714 27.5188C29.0948 27.6895 29.1276 27.9625 29.1714 28.1331C29.4012 28.6223 29.4778 29.2594 29.9811 29.4642C30.2218 29.3845 30.1999 29.0205 30.189 28.6678C30.0796 28.2355 29.9264 27.8487 29.6747 27.5643C29.4997 27.4961 29.3793 27.3823 29.2589 27.4733ZM26.2827 28.7133C26.2827 28.6906 26.2499 28.6678 26.239 28.7133C25.8232 28.6564 25.6809 28.8954 25.473 29.066C25.1119 30.0557 25.6919 31.0227 26.7095 31.0113C27.1143 30.9089 27.366 30.6359 27.4316 30.1695C27.3769 29.339 27.0377 28.8043 26.2827 28.7133Z" fill="black"/>
<path d="M50.8138 25.5623C50.9779 26.279 51.3281 26.791 51.722 27.2688C52.1159 27.7466 52.5755 28.1447 53.1335 28.4405C53.6587 28.7818 54.2277 29.0662 54.8842 29.2596C55.2015 29.3734 55.5079 29.5099 55.9018 29.5554C56.1754 29.7147 56.5036 29.7943 56.5255 30.2038C56.5146 30.693 56.1973 30.875 55.7924 30.966C55.3875 30.875 54.8842 30.8864 54.545 30.7271C53.6915 30.6248 53.0022 30.3404 52.28 30.0787C50.9013 29.5213 49.7415 28.7136 48.7786 27.7238C48.5816 27.3825 48.3081 27.1095 48.1002 26.7796C47.8923 26.4497 47.7501 26.0515 47.5312 25.7216C45.8462 25.4941 44.6972 24.6977 43.6906 23.7763C42.7605 22.6728 42.0165 21.3531 41.7101 19.6012C41.349 17.9175 41.4584 15.8129 41.8852 14.1861C42.8152 11.0349 44.7629 8.94163 48.4394 8.65723C49.457 8.69136 50.3433 8.81649 51.153 9.13503C51.9737 9.44219 52.7505 10.011 53.3633 10.6026C53.418 10.6481 53.4399 10.6594 53.4727 10.7163C53.604 10.9097 53.9213 11.1828 54.0964 11.4217C54.1292 11.4672 54.1183 11.5468 54.1511 11.6037C54.2168 11.7061 54.3152 11.7516 54.3809 11.8426C54.4137 11.8995 54.4028 11.9677 54.4356 12.0132C54.4794 12.0815 54.5341 12.1839 54.5997 12.309C54.6216 12.3545 54.6982 12.3886 54.7091 12.4228C54.8076 12.6162 54.8514 12.8551 54.9389 13.0712C55.0265 13.2987 55.1468 13.4921 55.2234 13.7197C55.4423 14.3909 55.5845 15.1872 55.672 16.0063C55.8909 18.3725 55.4423 20.4885 54.5997 22.0584C54.2058 22.8775 53.6587 23.5487 53.0131 24.1175C52.4223 24.766 51.6126 25.1528 50.8138 25.5623ZM48.1002 10.7505C47.6078 10.7846 47.3124 11.0235 46.9075 11.16C46.6449 11.4103 46.3167 11.6037 46.1197 11.9222C45.7914 12.1156 45.7039 12.5479 45.4413 12.7982C45.2225 13.367 45.0146 14.0041 44.8723 14.7435C44.741 15.4716 44.6535 16.2907 44.6425 17.0984C44.6316 19.1234 45.0474 21.137 45.8243 22.3315C46.2838 22.9117 46.8419 23.3895 47.5203 23.7421C47.9142 23.7763 48.2206 23.9128 48.6473 23.9242C48.888 23.8331 49.2819 23.9242 49.4351 23.7421C49.7853 23.7649 49.8619 23.526 50.1682 23.5032C50.3324 23.3326 50.5074 23.1961 50.7372 23.0937C50.9451 22.8548 51.1421 22.6159 51.3609 22.3884C51.4703 22.2177 51.536 21.9788 51.7001 21.8537C52.6849 19.897 52.7943 16.3134 52.1487 14.0382C51.908 13.2077 51.5688 12.5365 51.1858 11.9791C50.77 11.5354 50.2777 11.16 49.7196 10.8642C49.271 10.7618 48.8443 10.6367 48.2534 10.6936C48.2206 10.6936 48.1877 10.705 48.1987 10.7505C48.1768 10.7505 48.144 10.7505 48.1002 10.7505ZM60.0379 9.1009C60.9242 9.13503 61.9637 9.02127 62.7515 9.15778C62.9266 9.44219 62.8609 9.78348 62.8609 10.102C62.9266 14.4136 62.8609 19.0437 62.8609 23.4463C62.8609 23.799 62.8719 24.1631 62.8609 24.5043C62.85 24.8001 62.9266 25.1187 62.7515 25.3917C62.3576 25.4941 61.7886 25.4486 61.2853 25.4486C60.7491 25.4486 60.2239 25.5282 59.8738 25.3348C59.7753 20.1245 59.7753 14.5046 59.8738 9.28292C59.8956 9.19191 59.9503 9.13503 60.0379 9.1009ZM66.8219 9.1009H69.4808C69.7215 9.44219 69.7981 9.95412 69.8747 10.4547C70.6735 13.6173 71.4613 16.7912 72.1944 20.0335C72.3695 20.0562 72.3148 19.8401 72.3695 19.7377C72.4461 19.6581 72.4023 19.4647 72.4789 19.385C72.5117 19.1234 72.6649 18.9869 72.654 18.6797C72.8509 18.2815 72.9166 17.7355 73.1026 17.3259C73.3324 16.3703 73.6387 15.483 73.9014 14.5615C74.153 13.6059 74.4922 12.7413 74.6892 11.7402C75.0612 10.9325 75.1487 9.82898 75.5974 9.1009H76.7244C77.1292 9.89724 77.2824 10.9552 77.6326 11.8084C77.8623 12.7641 78.1797 13.6286 78.4204 14.5729C78.9784 16.4045 79.5583 18.2133 80.0617 20.1017C80.2915 19.7491 80.2915 19.1575 80.4556 18.748C80.5541 18.2815 80.6416 17.8037 80.7948 17.3942C81.2325 15.5285 81.6483 13.6514 82.1516 11.8653C82.3376 10.9325 82.5236 9.97687 82.83 9.15778C83.4865 9.0554 84.4932 9.0554 85.1497 9.15778C85.2044 9.85173 84.898 10.6026 84.7011 11.2169C84.5916 11.9677 84.329 12.5479 84.1868 13.276C83.7819 14.607 83.4756 16.0177 83.0598 17.3373C82.7425 18.748 82.3157 20.0449 81.9875 21.4555C81.7686 22.104 81.6154 22.8207 81.4185 23.5146C81.1996 24.1517 81.1231 24.9366 80.7948 25.4599H79.2082C78.8034 24.7205 78.6611 23.7194 78.3 22.9344C77.5122 20.3406 76.6368 17.8492 75.8709 15.2327C75.6083 15.5171 75.6083 16.0973 75.4223 16.4613C75.3019 16.905 75.1816 17.3487 75.0284 17.7582C74.8095 18.6569 74.4813 19.4192 74.2953 20.3406C73.9779 21.1483 73.7482 22.0471 73.5074 22.9344C73.1792 23.708 73.0588 24.6977 72.654 25.4031C72.2382 25.5396 71.5817 25.4258 71.0674 25.4599C70.6735 24.9935 70.6297 24.1517 70.389 23.5146C70.203 22.8548 70.0717 22.1267 69.8309 21.5124C69.5246 20.079 69.065 18.8162 68.7586 17.3942C68.3538 16.0745 68.0036 14.698 67.6316 13.3329C67.4237 12.6844 67.2705 11.9905 67.0626 11.3306C66.9641 10.6253 66.5046 9.98825 66.6687 9.21466C66.6906 9.15778 66.7563 9.12365 66.8219 9.1009ZM89.1544 9.1009C90.0407 9.13503 91.0693 9.02127 91.8681 9.15778C92.065 9.7721 91.9775 10.4319 91.9775 11.0917V23.435C91.9775 24.1062 92.0541 24.7546 91.8681 25.3803C91.2553 25.4486 90.3581 25.4827 89.6031 25.4372C89.3842 25.4258 89.1216 25.4941 88.9794 25.3234C88.7824 24.7091 88.87 24.0607 88.87 23.3781V11.16C88.87 10.4205 88.8043 9.70384 88.9794 9.21466C89.0231 9.15778 89.0888 9.12365 89.1544 9.1009Z" fill="black"/>
</g>
<defs>
<clipPath id="clip0">
<rect width="92" height="41" fill="white"/>
</clipPath>
</defs>
</svg>
