<svg width="61" height="60" viewBox="0 0 61 60" fill="none" xmlns="http://www.w3.org/2000/svg">
<g clip-path="url(#clip0)">
<path d="M45.6877 26.1833C45.6469 26.0263 45.5722 25.8758 45.4726 25.7477C44.8403 24.4902 44.0521 23.1392 43.0739 21.6804C42.6264 21.013 42.2294 20.3004 41.8938 19.5624C41.2585 18.1644 39.0761 19.1504 39.7126 20.5505C40.102 21.4072 40.5633 22.2349 41.0833 23.0105C41.7682 24.032 42.3515 24.9876 42.8478 25.8866C34.8004 29.1268 24.8759 30.5449 16.7565 26.6814C18.9969 21.6767 21.1801 14.6094 20.0446 7.59184C19.298 2.9778 17.4578 0.557958 17.3799 0.457237C16.4403 -0.757054 14.5387 0.697244 15.4808 1.91441C15.4967 1.93537 17.0818 4.0655 17.7068 8.14311C18.7592 15.0072 16.3343 22.02 14.113 26.697C13.9236 27.0834 12.5964 30.1005 13.4841 37.084C14.1479 42.3064 15.7741 47.3868 18.3175 52.1843C20.817 56.8992 21.1417 58.4502 21.1652 58.8984C21.2459 60.432 23.639 60.3302 23.5572 58.773C23.531 58.2742 23.4512 56.7559 20.4346 51.0658C18.0267 46.524 16.4878 41.7186 15.8603 36.7832C15.4684 33.7006 15.5458 31.367 15.7619 29.8042C22.2314 34.2868 26.6248 39.2798 27.7662 40.638C27.4501 48.6481 26.9183 57.388 26.5569 58.4281C26.0323 59.8716 28.2847 60.686 28.8086 59.2435C29.4568 57.4599 30.016 44.3619 30.1595 40.7386C31.4384 39.237 37.7626 32.0002 43.9844 28.1814C46.0135 32.8494 45.4746 35.8338 44.9484 38.7433C43.9381 44.331 41.6087 49.6769 39.5835 54.9591C38.7331 57.1769 38.3532 58.173 38.2594 58.5409C37.8817 60.0229 40.1867 60.6158 40.5804 59.1316C40.6524 58.8601 41.2197 57.3804 41.8204 55.8139C43.9004 50.3893 46.2672 44.9064 47.3056 39.1679C47.8817 35.9812 48.5724 32.1616 45.6877 26.1833ZM29.009 38.4052C27.6304 36.8269 24.7823 33.7784 20.7798 30.565C26.1857 31.8172 31.8728 31.5143 37.2384 30.2094C33.587 33.3261 30.4936 36.7085 29.009 38.4052Z" fill="#891C7E"/>
<path d="M39.1641 11.8383C39.8086 11.8771 40.3912 11.3572 40.4281 10.7129C40.7131 5.73059 42.4667 1.71165 42.4844 1.67153C43.1063 0.268255 40.9182 -0.701477 40.2942 0.703478C40.2149 0.882167 38.3477 5.14158 38.0367 10.5765C37.9989 11.2357 38.5037 11.8007 39.1641 11.8383Z" fill="#891C7E"/>
<path d="M28.3312 22.2972C28.9926 22.2972 29.5288 21.7618 29.5288 21.1016V18.5874C29.5288 17.0557 27.1335 17.0527 27.1335 18.5874V21.1016C27.1335 21.7618 27.6697 22.2972 28.3312 22.2972Z" fill="#891C7E"/>
<path d="M40.5353 14.772C40.2565 14.346 39.7083 14.1489 39.2201 14.2847C38.7179 14.4244 38.3553 14.8848 38.3431 15.4063C38.3182 16.4706 39.6642 17.0377 40.4048 16.262C40.7876 15.8611 40.8435 15.2338 40.5353 14.772Z" fill="#891C7E"/>
</g>
<defs>
<clipPath id="clip0">
<rect width="60" height="60" fill="white" transform="translate(0.5)"/>
</clipPath>
</defs>
</svg>
