<svg width="61" height="60" viewBox="0 0 61 60" fill="none" xmlns="http://www.w3.org/2000/svg">
<path d="M57.0695 56.9277L54.4152 41.3883C54.1291 39.714 52.9414 38.3691 51.3152 37.8785L44.156 35.7184C44.0077 33.9683 43.2902 32.3173 42.0961 31.0104C41.1409 29.9651 39.9395 29.2039 38.6151 28.7839C38.8418 28.5325 39.0519 28.2818 39.2447 28.0366C40.9472 25.8714 41.8586 23.4859 42.0907 21.858H42.643C44.0795 21.858 45.2482 20.6895 45.2482 19.2529V17.9174C45.2482 16.9587 44.7089 16.09 43.8978 15.6391V12.4277C43.8978 11.9425 43.5044 11.5491 43.0191 11.5491C42.5339 11.5491 42.1406 11.9423 42.1406 12.4277V16.0329C41.7984 16.0923 41.3901 16.195 40.9725 16.3709C40.9297 16.3864 40.8881 16.4045 40.8487 16.4262C40.7544 16.4692 40.6599 16.5145 40.5658 16.5656V9.48492C40.5658 7.52871 38.9744 5.9373 37.0182 5.9373H34.593C33.7565 5.9373 32.9394 6.22875 32.2918 6.7582L32.0538 6.95273C31.6167 7.31016 31.065 7.50703 30.5002 7.50703C29.9355 7.50703 29.3837 7.31016 28.9466 6.95273L28.7087 6.7582C28.0611 6.22887 27.2439 5.9373 26.4075 5.9373H23.982C22.0258 5.9373 20.4344 7.52871 20.4344 9.48492V16.5656C20.3403 16.5145 20.2459 16.4692 20.1515 16.4262C20.1122 16.4045 20.0707 16.3864 20.0279 16.3709C19.6102 16.195 19.2018 16.0923 18.8598 16.0329V6.91699C18.8598 4.07191 21.1745 1.75723 24.0195 1.75723H36.9806C39.8258 1.75723 42.1404 4.07191 42.1404 6.91699V8.29816C42.1404 8.78344 42.5338 9.17684 43.0189 9.17684C43.5041 9.17684 43.8976 8.78355 43.8976 8.29816V6.91699C43.8976 3.10301 40.7946 0 36.9806 0H24.0195C20.2054 0 17.1025 3.10301 17.1025 6.91699V15.6393C16.2915 16.0901 15.7522 16.9587 15.7522 17.9175V19.253C15.7522 20.6896 16.9209 21.8582 18.3574 21.8582H18.9097C19.1416 23.486 20.0532 25.8715 21.7557 28.0368C21.9482 28.2817 22.1582 28.5321 22.3847 28.7834C19.3401 29.7504 17.1199 32.4877 16.8444 35.7184L9.68493 37.8785C8.05872 38.3691 6.8709 39.714 6.58497 41.3883L5.50708 47.6987C5.4254 48.1771 5.74696 48.6309 6.2252 48.7126C6.70333 48.7945 7.15743 48.4729 7.23922 47.9945L8.31711 41.6841C8.49008 40.6711 9.20868 39.8576 10.1925 39.5609L16.8141 37.5629V39.3009C15.2963 39.5803 14.0048 40.6229 13.4729 42.0675C13.3317 42.4509 13.2439 42.8524 13.212 43.2607L12.5721 51.475C12.5238 52.0937 12.7379 52.7099 13.1592 53.1652C13.5805 53.6205 14.178 53.8819 14.7985 53.8819H15.894C16.3793 53.8819 16.7727 53.4886 16.7727 53.0032C16.7727 52.5178 16.3793 52.1246 15.894 52.1246H14.7985C14.6662 52.1246 14.5389 52.0691 14.4491 51.9718C14.3593 51.8748 14.3137 51.7436 14.324 51.6117L14.964 43.3973C14.9833 43.15 15.0364 42.9068 15.122 42.6746C15.492 41.6698 16.4914 40.9893 17.609 40.9814L17.7538 40.9804C17.7606 40.9802 17.7672 40.9802 17.7739 40.9802C18.8601 40.9802 19.8216 41.5962 20.2272 42.5537C20.341 42.8222 20.4102 43.106 20.4329 43.3973L21.0731 51.6118C21.0833 51.7436 21.0377 51.8748 20.9479 51.972C20.8582 52.069 20.7308 52.1246 20.5985 52.1246H19.503C19.0177 52.1246 18.6243 52.5179 18.6243 53.0032C18.6243 53.4885 19.0177 53.8819 19.503 53.8819H20.5985C21.219 53.8819 21.8166 53.6207 22.2378 53.1652C22.6592 52.7096 22.8733 52.0936 22.825 51.4751L22.1848 43.2607C22.1474 42.78 22.0331 42.3114 21.8452 41.868C21.2664 40.502 20.0288 39.5522 18.5713 39.2952V37.0328L21.5916 36.1214C21.8664 36.7002 22.411 37.9509 23.4897 40.6471C24.5769 43.3675 25.9282 46.8544 27.2241 50.2441C27.2334 50.2726 27.2441 50.3004 27.256 50.3276C28.1209 52.5906 28.9598 54.8071 29.6773 56.7191C29.806 57.062 30.1338 57.2891 30.5 57.2891C30.8662 57.2891 31.194 57.062 31.3227 56.7191C32.0401 54.8071 32.879 52.5906 33.744 50.3276C33.7561 50.3004 33.7666 50.2725 33.7759 50.2441C35.0709 46.8564 36.4215 43.3717 37.5082 40.6521C38.5883 37.9525 39.1333 36.7007 39.4082 36.1214L42.4286 37.0328V42.2224C40.3359 42.6289 38.7507 44.4746 38.7507 46.6846C38.7507 49.1913 40.7901 51.2309 43.297 51.2309C45.8039 51.2309 47.8433 49.1914 47.8433 46.6846C47.8433 44.4819 46.2685 42.6407 44.1859 42.2262V37.563L50.8077 39.561C51.7914 39.8577 52.5099 40.6712 52.683 41.6842L55.3373 57.2236C55.3814 57.4813 55.3128 57.7332 55.1442 57.933C54.9757 58.1327 54.7388 58.2429 54.4774 58.2429H6.52262C6.26118 58.2429 6.02446 58.1329 5.85583 57.933C5.68731 57.7332 5.61864 57.4814 5.6627 57.2236L6.53868 52.0952C6.62036 51.6169 6.29879 51.163 5.82055 51.0813C5.34243 50.9993 4.88833 51.3212 4.80653 51.7995L3.93055 56.9278C3.79989 57.6933 4.01211 58.4727 4.51274 59.0662C5.0136 59.6597 5.74614 60 6.52262 60H54.4774C55.2539 60 55.9865 59.6597 56.4873 59.0661C56.9879 58.4726 57.2001 57.6932 57.0695 56.9277ZM42.1509 17.8229C42.6191 17.7062 42.9949 17.7083 42.9991 17.7084C43.1505 17.7104 43.2977 17.675 43.4285 17.6065C43.4676 17.7039 43.4907 17.8085 43.4907 17.9175V19.253C43.4907 19.7205 43.1103 20.1009 42.6427 20.1009H42.1509V17.8229ZM18.8491 20.1009H18.3573C17.8897 20.1009 17.5093 19.7205 17.5093 19.253V17.9175C17.5093 17.8085 17.5325 17.7039 17.5715 17.6066C17.7022 17.6752 17.8494 17.7105 18.0009 17.7084C18.0076 17.7096 18.3823 17.7075 18.8491 17.8234V20.1009ZM20.6063 21.0861V18.7778C20.8726 18.8576 21.1638 18.8467 21.4326 18.7345C21.8938 18.5421 22.1916 18.0953 22.1916 17.5959V9.48492C22.1916 8.49774 22.9949 7.69453 23.982 7.69453H26.4072C26.8394 7.69453 27.2616 7.84512 27.5962 8.11863L27.8341 8.31316C28.5842 8.92652 29.531 9.26414 30.5 9.26414C31.469 9.26414 32.4158 8.92641 33.1659 8.31316L33.4038 8.11863C33.7382 7.84512 34.1606 7.69453 34.5928 7.69453H37.018C38.0052 7.69453 38.8084 8.49774 38.8084 9.48492V17.5961C38.8084 18.0953 39.1063 18.5422 39.5674 18.7346C39.7214 18.7989 39.8826 18.83 40.0425 18.83C40.1616 18.83 40.2799 18.8126 40.3937 18.7786V21.0861C40.3937 22.369 39.5068 24.8602 37.8631 26.9505C37.3187 27.643 36.6188 28.3869 35.7572 29.0371C35.7298 29.0554 35.7037 29.0752 35.6788 29.0962C34.3439 30.0832 32.6274 30.8393 30.5 30.8393C28.3726 30.8393 26.6561 30.0832 25.3211 29.0961C25.2962 29.0752 25.2702 29.0554 25.243 29.0372C24.3813 28.3869 23.6814 27.643 23.1369 26.9505C21.4933 24.8603 20.6063 22.369 20.6063 21.0861ZM36.2563 35.2816L30.5 39.5841L24.7438 35.2816C25.3146 34.5561 25.6344 33.6248 25.6344 32.7938V31.3774C26.988 32.1054 28.6032 32.5966 30.5 32.5966C32.3968 32.5966 34.0121 32.1054 35.3656 31.3774V32.7938C35.3656 33.6248 35.6854 34.5561 36.2563 35.2816ZM23.2774 34.3009C22.8082 34.1222 22.288 34.0929 21.7959 34.2264C21.7743 34.2314 21.7532 34.2371 21.7327 34.2432L18.6972 35.1592C19.2106 32.6347 21.2605 30.6254 23.8772 30.2362V32.7938C23.8772 33.345 23.6311 33.9149 23.2774 34.3009ZM25.662 41.3542C25.6604 41.3501 25.6588 41.346 25.6572 41.342C25.6127 41.2294 25.5688 41.1183 25.5252 41.0085C25.5173 40.9886 25.5095 40.9688 25.5016 40.9491C25.459 40.8416 25.4166 40.735 25.3749 40.6301C25.372 40.6227 25.3691 40.6154 25.3661 40.6079C25.2359 40.2806 25.1104 39.9667 24.9897 39.6659C24.9809 39.6441 24.9722 39.6219 24.9634 39.6002C24.9287 39.514 24.8946 39.429 24.8607 39.3451C24.8483 39.3143 24.836 39.2838 24.8237 39.2534C24.7909 39.172 24.7583 39.0912 24.7262 39.0121C24.7166 38.9884 24.7072 38.9654 24.6977 38.9419C24.6395 38.7982 24.5825 38.6582 24.527 38.5216C24.512 38.4847 24.4966 38.4471 24.4817 38.4107C24.4599 38.3575 24.4387 38.3057 24.4174 38.2535C24.3944 38.1973 24.3715 38.1415 24.3489 38.0866C24.3405 38.0661 24.3317 38.0445 24.3233 38.0241C24.3165 38.0077 24.3103 37.9925 24.3036 37.9762C24.2021 37.7297 24.1057 37.4973 24.0141 37.2788C24.0134 37.277 24.0126 37.2752 24.0119 37.2735C23.9632 37.1571 23.9155 37.0434 23.8697 36.9352C23.8459 36.879 23.8224 36.8238 23.7995 36.7697L28.75 40.4698L26.6814 41.3486C26.6778 41.3501 26.6741 41.3516 26.6704 41.3532L25.8068 41.7202C25.7578 41.5963 25.7098 41.4749 25.662 41.3542ZM27.7585 46.734C27.585 46.2837 27.4101 45.8307 27.2349 45.3783C26.9609 44.6706 26.6993 43.9977 26.4488 43.3567L26.7767 43.2173L28.1164 44.7746L27.7585 46.734ZM30.517 53.8752C30.4918 53.8229 30.4618 53.7736 30.4271 53.7277C30.0301 52.6782 29.5262 51.3504 28.9685 49.8894L29.7888 45.3982H31.2112L32.0315 49.8894C31.4471 51.42 30.9222 52.804 30.517 53.8752ZM31.5407 43.6411H29.4593L28.4743 42.4962L30.5 41.6357L32.5257 42.4962L31.5407 43.6411ZM33.7651 45.3783C33.5899 45.8307 33.415 46.2837 33.2415 46.734L32.8836 44.7745L34.2233 43.2172L34.5512 43.3566C34.3007 43.9976 34.0391 44.6706 33.7651 45.3783ZM37.1305 36.9352C37.087 37.0378 37.0418 37.1455 36.9957 37.2554C36.9897 37.2697 36.9836 37.2841 36.9777 37.2986C36.9321 37.4075 36.8857 37.5189 36.8376 37.6348C36.8345 37.6424 36.8312 37.6505 36.828 37.6582C36.7865 37.7582 36.744 37.8613 36.7007 37.9664C36.6927 37.9861 36.685 38.0043 36.677 38.0241C36.6673 38.0476 36.657 38.0726 36.6473 38.0964C36.6281 38.1432 36.6085 38.1911 36.5888 38.2389C36.5647 38.2978 36.5407 38.3565 36.5159 38.4169C36.5081 38.4361 36.5 38.4561 36.492 38.4755C36.4309 38.6254 36.368 38.7798 36.3038 38.9385C36.2938 38.9633 36.2838 38.9877 36.2737 39.0129C36.242 39.0913 36.2096 39.1713 36.1772 39.2518C36.1645 39.2834 36.1517 39.3148 36.1389 39.3466C36.1054 39.4297 36.0716 39.5139 36.0373 39.5992C36.0277 39.623 36.018 39.6473 36.0084 39.6713C35.8892 39.968 35.7656 40.2775 35.6373 40.6C35.6331 40.6106 35.6288 40.6211 35.6246 40.6318C35.5831 40.736 35.5412 40.842 35.4988 40.9487C35.4909 40.9686 35.4829 40.9886 35.475 41.0086C35.4311 41.119 35.387 41.2305 35.3422 41.3439C35.3414 41.346 35.3406 41.3481 35.3397 41.3501C35.2915 41.4722 35.2429 41.595 35.1935 41.7204L34.329 41.3531C34.3259 41.3518 34.3229 41.3505 34.32 41.3493L32.2502 40.47L37.2008 36.7699C37.1776 36.8238 37.1541 36.8789 37.1305 36.9352ZM39.2673 34.2434C39.2672 34.2434 39.2669 34.2432 39.2668 34.2432C39.2661 34.243 39.2653 34.2429 39.2646 34.2425C38.7548 34.0896 38.2111 34.1149 37.7227 34.3009C37.3689 33.9149 37.123 33.345 37.123 32.7938V30.235C39.7561 30.6231 41.7997 32.6135 42.3064 35.1602L39.2673 34.2434ZM46.0861 46.6846C46.0861 48.2225 44.8348 49.4736 43.297 49.4736C41.7591 49.4736 40.5079 48.2225 40.5079 46.6846C40.5079 45.1466 41.7591 43.8955 43.297 43.8955C44.8348 43.8955 46.0861 45.1466 46.0861 46.6846Z" fill="#A9336C"/>
</svg>
