<svg width="61" height="60" viewBox="0 0 61 60" fill="none" xmlns="http://www.w3.org/2000/svg">
<g clip-path="url(#clip0)">
<path d="M57.9899 35.7133C57.9747 35.6395 57.9524 35.5656 57.9231 35.4941C57.8938 35.4238 57.8575 35.3559 57.8153 35.2926C57.772 35.2281 57.7228 35.1684 57.6688 35.1145C57.6149 35.0605 57.5552 35.0113 57.4906 34.968C57.4274 34.9258 57.3595 34.8906 57.289 34.8613C57.2177 34.832 57.1437 34.8086 57.0699 34.7934C56.9187 34.7629 56.7629 34.7629 56.6117 34.7934C56.5367 34.8086 56.463 34.832 56.3927 34.8613C56.3212 34.8906 56.2532 34.9258 56.1899 34.968C56.1255 35.0113 56.0657 35.0605 56.0118 35.1145C55.9579 35.1684 55.9086 35.2281 55.8665 35.2926C55.8243 35.3559 55.788 35.4238 55.7587 35.4941C55.7294 35.5656 55.7071 35.6395 55.6919 35.7133C55.6767 35.7895 55.6685 35.8668 55.6685 35.943C55.6685 36.0191 55.6767 36.0965 55.6919 36.1715C55.7071 36.2465 55.7294 36.3203 55.7587 36.3906C55.788 36.4621 55.8243 36.5301 55.8665 36.5934C55.9086 36.6578 55.9579 36.7176 56.0118 36.7715C56.0657 36.8254 56.1255 36.8746 56.1899 36.9168C56.2532 36.959 56.3212 36.9953 56.3927 37.0246C56.4629 37.0539 56.5367 37.0762 56.6117 37.0914C56.6867 37.1066 56.7642 37.1148 56.8402 37.1148C56.9164 37.1148 56.9937 37.1066 57.0699 37.0914C57.1437 37.0762 57.2177 37.0539 57.289 37.0246C57.3595 36.9953 57.4274 36.959 57.4906 36.9168C57.5552 36.8746 57.6149 36.8254 57.6688 36.7715C57.7228 36.7176 57.772 36.6578 57.8153 36.5934C57.8575 36.5301 57.8938 36.4621 57.9231 36.3906C57.9524 36.3203 57.9747 36.2465 57.9899 36.1715C58.0051 36.0965 58.0121 36.0191 58.0121 35.943C58.0121 35.8668 58.0052 35.7895 57.9899 35.7133Z" fill="#891C7E"/>
<path d="M28.9215 18.7741C28.5428 18.2495 27.8104 18.1311 27.2855 18.5099C26.8578 18.8188 26.2829 18.8186 25.8551 18.5099C25.3303 18.131 24.5978 18.2495 24.219 18.7742C23.8403 19.299 23.9586 20.0315 24.4834 20.4103C25.1077 20.8609 25.839 21.0861 26.5704 21.0861C27.3018 21.0861 28.0333 20.8608 28.6573 20.4102C29.182 20.0314 29.3003 19.2989 28.9215 18.7741Z" fill="#891C7E"/>
<path d="M36.907 18.7742C36.5283 18.2495 35.796 18.1311 35.271 18.5099C34.8431 18.8187 34.2681 18.8185 33.8405 18.5099C33.3156 18.131 32.5832 18.2495 32.2044 18.7741C31.8257 19.2989 31.9439 20.0314 32.4688 20.4102C33.0931 20.8608 33.8243 21.086 34.5558 21.086C35.2872 21.086 36.0186 20.8607 36.6427 20.4103C37.1675 20.0315 37.2859 19.2991 36.907 18.7742Z" fill="#891C7E"/>
<path d="M32.8513 23.9284C32.4727 23.4039 31.7403 23.2853 31.2153 23.6642C30.7878 23.9731 30.2127 23.9731 29.7848 23.6642C29.26 23.2853 28.5275 23.4038 28.1487 23.9285C27.77 24.4533 27.8883 25.1858 28.4131 25.5646C29.0374 26.0152 29.7687 26.2404 30.5001 26.2404C31.2315 26.2404 31.9629 26.0152 32.587 25.5645C33.1118 25.1857 33.2301 24.4532 32.8513 23.9284Z" fill="#891C7E"/>
<path d="M49.3056 19.4575C48.9212 19.104 48.8904 19.0432 48.8904 18.8602C48.8904 18.6775 48.9212 18.6167 49.3056 18.2633C49.4699 18.1122 49.6562 17.9409 49.8334 17.7271C50.2464 17.2287 50.177 16.49 49.6785 16.0771C49.1801 15.6641 48.4413 15.7337 48.0285 16.232C47.9529 16.3231 47.8394 16.4274 47.7193 16.5378C47.2523 16.9671 46.5466 17.6158 46.5466 18.8602C46.5466 20.1046 47.2523 20.7534 47.7193 21.1828C48.1037 21.5363 48.1345 21.5971 48.1345 21.7801C48.1345 21.963 48.1037 22.0238 47.7193 22.3774C47.6223 22.4666 47.5125 22.5676 47.4036 22.679C46.9512 23.1419 46.96 23.8838 47.4228 24.3362C47.6508 24.5588 47.9462 24.6698 48.2416 24.6698C48.5461 24.6698 48.8503 24.5518 49.0799 24.3169C49.1449 24.2504 49.223 24.1787 49.3056 24.1027C49.7727 23.6734 50.4783 23.0245 50.4783 21.7801C50.4783 20.5357 49.7726 19.8869 49.3056 19.4575Z" fill="#891C7E"/>
<path d="M55.0102 22.8395C54.6258 22.4859 54.595 22.4251 54.595 22.2422C54.595 22.0594 54.6258 21.9986 55.0102 21.6451C55.1745 21.4939 55.3608 21.3227 55.5379 21.109C55.9508 20.6106 55.8815 19.8718 55.3829 19.459C54.8845 19.0459 54.1457 19.1155 53.7329 19.6138C53.6574 19.705 53.5439 19.8093 53.4239 19.9196C52.9568 20.3489 52.2512 20.9977 52.2512 22.2421C52.2512 23.4865 52.9569 24.1352 53.4239 24.5646C53.8083 24.9182 53.8391 24.979 53.8391 25.1619C53.8391 25.3448 53.8083 25.4057 53.4239 25.7591C53.3269 25.8483 53.2171 25.9493 53.1081 26.0609C52.6558 26.5237 52.6644 27.2657 53.1273 27.718C53.3552 27.9407 53.6507 28.0516 53.9461 28.0516C54.2507 28.0516 54.5549 27.9336 54.7844 27.6989C54.8495 27.6323 54.9276 27.5606 55.0102 27.4847C55.4772 27.0553 56.1829 26.4066 56.1829 25.162C56.1829 23.9176 55.4772 23.2689 55.0102 22.8395Z" fill="#891C7E"/>
<path d="M45.0312 35.4567C45.0061 34.5104 44.7077 33.6309 44.2122 32.8946C47.0857 33.4428 49.7445 34.1684 52.1191 35.0591C52.2547 35.1099 52.3937 35.1341 52.5304 35.1341C53.0049 35.1341 53.4514 34.8437 53.6279 34.3734C53.8552 33.7674 53.5481 33.0919 52.9421 32.8646C47.8708 30.9627 41.5939 29.7815 34.7288 29.4321C36.2383 28.7468 37.5293 27.7442 38.5052 26.4911C39.7242 24.926 40.3918 23.0367 40.4438 21.0129C42.9916 18.0221 43.619 13.8017 42.0263 10.1271C40.6825 7.02629 37.9459 4.79492 34.6554 4.09285C34.4909 3.92586 34.3164 3.76566 34.132 3.61273C33.0556 2.72023 31.4555 2.16348 29.6264 2.04512C27.6686 1.9182 25.6607 2.30422 23.8189 3.16098C19.2614 5.28078 18.0767 9.61004 17.8856 10.4564C16.3081 17.4393 19.7691 21.8212 20.8031 22.9422C21.4705 25.8007 23.4641 28.1528 26.2732 29.432C19.407 29.7814 13.1278 30.9631 8.05789 32.8646C6.41492 33.4808 4.9093 34.1732 3.58285 34.9228C3.01941 35.2412 2.82078 35.956 3.13918 36.5196C3.35469 36.9009 3.75172 37.1151 4.16047 37.1151C4.3557 37.1151 4.55375 37.0662 4.73598 36.9632C5.95684 36.2734 7.35137 35.6327 8.8809 35.0591C11.2548 34.1688 13.9139 33.4432 16.7878 32.8948C16.2923 33.6311 15.9939 34.5105 15.9688 35.4568C6.26105 37.5322 0.5 41.4406 0.5 45.9957C0.5 49.4073 3.76871 52.5119 9.70391 54.7379C15.2772 56.828 22.6627 57.9792 30.5 57.9792C38.3374 57.9792 45.7228 56.828 51.2961 54.7379C57.2313 52.5119 60.5 49.4073 60.5 45.9957C60.5 41.4406 54.7391 37.5322 45.0312 35.4567ZM36.1856 9.59141C36.4593 8.87105 36.5036 8.03187 36.3351 7.18508C37.8944 8.03141 39.1486 9.38082 39.8758 11.0589C40.7864 13.1599 40.7643 15.4879 39.9018 17.4929C39.7962 17.1807 39.6757 16.8677 39.5398 16.5543C38.5733 14.3243 36.8652 12.5374 34.7649 11.4515C35.3731 11.0173 35.8686 10.4252 36.1856 9.59141ZM33.9147 7.19445C34.1368 7.82434 34.132 8.39703 33.9947 8.75855C33.6091 9.77293 32.5735 10.0612 30.3188 10.4461C30.2606 10.456 30.2021 10.4659 30.1434 10.4758C28.2779 10.7913 26.0544 11.1675 24.0829 12.5236C24.6193 11.2033 25.8184 9.16484 28.3471 7.98863C30.1184 7.1648 32.1581 6.87969 33.9147 7.19445ZM21.025 16.8377C20.8824 17.3743 20.7839 17.9197 20.7177 18.4505C19.9718 16.6692 19.4552 14.1453 20.1719 10.9728C20.3207 10.314 21.2436 6.94367 24.8075 5.28605C27.3747 4.09203 29.8497 4.20605 31.4253 4.76762C30.048 4.89043 28.6577 5.25945 27.3589 5.86355C22.8014 7.98336 21.6167 12.3127 21.4256 13.1589C21.1454 14.3994 21.0109 15.6359 21.025 16.8377ZM18.311 41.2204C18.3112 41.2065 18.3112 41.1924 18.311 41.1785V36.4336C18.3112 36.4197 18.3112 36.4059 18.311 36.392V35.587C18.311 34.2131 19.4291 33.0954 20.8034 33.0954H27.3028C27.9004 33.0954 28.4023 32.6456 28.4676 32.0514L28.8193 28.8495C28.8792 28.3045 28.5532 27.7907 28.0344 27.613C25.3882 26.7061 23.521 24.6693 23.0321 22.1601C22.8898 20.9234 22.8611 18.6835 23.4312 16.9779C23.4318 16.976 23.4325 16.9741 23.4331 16.9722C23.4378 16.9583 23.4425 16.9443 23.4473 16.9305C23.4486 16.9266 23.45 16.9227 23.4513 16.9188C23.4556 16.9062 23.46 16.8938 23.4643 16.8814C23.4678 16.8716 23.4713 16.8617 23.4748 16.8519C23.4754 16.8501 23.476 16.8485 23.4767 16.8467C23.6431 16.3835 23.8462 15.9914 24.0836 15.6748C24.084 15.6744 24.0845 15.6738 24.0848 15.6733C24.0946 15.6602 24.1045 15.6473 24.1145 15.6345C24.1186 15.6293 24.1225 15.6241 24.1266 15.6189C24.1323 15.6117 24.138 15.6045 24.1437 15.5974C24.1494 15.5904 24.1551 15.5833 24.1607 15.5763C24.1641 15.5722 24.1675 15.568 24.1709 15.5639C24.1789 15.5541 24.187 15.5445 24.1951 15.535C24.1977 15.532 24.2001 15.5291 24.2027 15.526C24.2116 15.5156 24.2206 15.5052 24.2296 15.4948C24.2311 15.4932 24.2326 15.4916 24.234 15.4899C24.2439 15.4787 24.2539 15.4675 24.264 15.4564C25.9967 13.554 28.3034 13.1639 30.5341 12.7866C30.5531 12.7835 30.572 12.7802 30.5909 12.777C30.5926 12.7768 30.5941 12.7766 30.5956 12.7763C30.7421 12.7516 30.8889 12.7268 31.0358 12.7013C33.8389 13.0679 36.2635 14.8891 37.3891 17.4863C37.8489 18.5471 38.0892 19.5848 38.1034 20.5708V20.7559C38.1034 23.9325 36.1092 26.5684 32.8993 27.6348C32.3748 27.809 32.0434 28.3259 32.1039 28.8753L32.454 32.0519C32.5195 32.6458 33.0213 33.0955 33.6188 33.0955H40.1975C41.5715 33.0955 42.6893 34.2132 42.6893 35.5871V36.3925C42.689 36.406 42.689 36.4194 42.6893 36.4327V41.1786C42.689 41.1927 42.689 41.2066 42.6893 41.2205V44.1376C42.0072 44.2631 41.3076 44.378 40.5944 44.4819C40.6948 44.0077 40.7346 43.5185 40.711 43.0217C40.572 40.0781 38.1119 37.6606 35.1105 37.518C33.8623 37.4593 32.6517 37.778 31.6101 38.4417C30.9358 38.8713 30.0643 38.8713 29.3899 38.4417C28.3484 37.7782 27.1389 37.4592 25.8897 37.518C22.8883 37.6604 20.4282 40.0779 20.2891 43.0215C20.2657 43.5184 20.3053 44.0077 20.4058 44.4819C19.6925 44.378 18.993 44.2631 18.311 44.1376V41.2204ZM38.0161 44.802C35.5917 45.0535 33.0662 45.1809 30.5 45.1809C27.9338 45.1809 25.4083 45.0535 22.9839 44.802C22.7239 44.2873 22.6024 43.7184 22.63 43.1321C22.7128 41.3825 24.1933 39.9448 26.0007 39.8591C26.7639 39.8233 27.4995 40.0162 28.1305 40.4183C29.5699 41.3353 31.4301 41.3353 32.8693 40.4183C33.5004 40.0162 34.2376 39.8234 34.9992 39.8592C36.8066 39.945 38.2871 41.3827 38.3697 43.1325C38.3976 43.7186 38.276 44.2875 38.0161 44.802ZM16.9054 46.2526C18.5299 46.5829 20.2606 46.8539 22.0496 47.0579C22.0673 47.0599 22.0849 47.0615 22.1025 47.0627C22.119 47.0653 27.6448 47.5245 30.4999 47.5245C33.3549 47.5245 38.9353 47.057 38.9782 47.0471C39.0222 47.047 42.5186 46.5728 44.0945 46.2526C44.6404 46.1416 45.0329 45.6614 45.0329 45.1041V42.6731C45.9883 42.9119 46.899 43.1745 47.7529 43.458C50.6705 44.4266 52.2059 45.3916 52.9585 45.9956C52.2059 46.5996 50.6705 47.5647 47.7529 48.5332C43.0623 50.0902 36.935 50.9477 30.4999 50.9477C24.0648 50.9477 17.9376 50.0902 13.247 48.5332C10.3293 47.5646 8.79395 46.5996 8.04137 45.9956C8.79383 45.3916 10.3293 44.4264 13.247 43.458C14.1009 43.1745 15.0116 42.9118 15.967 42.6731V45.1043C15.9671 45.6615 16.3595 46.1416 16.9054 46.2526ZM50.473 52.5433C45.1564 54.5373 38.0632 55.6353 30.5 55.6353C22.9367 55.6353 15.8436 54.5371 10.5269 52.5433C5.64418 50.7121 2.84375 48.3256 2.84375 45.9957C2.84375 42.8409 8.05906 39.6399 15.9671 37.8575V40.2612C14.747 40.5498 13.587 40.8758 12.5087 41.2338C8.31875 42.6246 6.09699 44.2844 5.41484 45.3739C5.17672 45.7543 5.17672 46.2372 5.41484 46.6176C6.09699 47.7071 8.31875 49.367 12.5087 50.7577C17.4311 52.3917 23.8207 53.2917 30.5 53.2917C37.1793 53.2917 43.5689 52.3918 48.4913 50.7577C52.6813 49.3668 54.903 47.7071 55.585 46.6176C55.8232 46.2372 55.8232 45.7543 55.585 45.3739C54.903 44.2844 52.6813 42.6247 48.4913 41.2338C47.413 40.8759 46.2532 40.5498 45.0329 40.2612V37.8575C52.9411 39.6398 58.1562 42.8409 58.1562 45.9957C58.1562 48.3256 55.3558 50.7121 50.473 52.5433Z" fill="#891C7E"/>
</g>
<defs>
<clipPath id="clip0">
<rect width="60" height="60" fill="white" transform="translate(0.5)"/>
</clipPath>
</defs>
</svg>
