<svg width="61" height="60" viewBox="0 0 61 60" fill="none" xmlns="http://www.w3.org/2000/svg">
<g clip-path="url(#clip0)">
<path d="M7.05782 56.3672C6.13789 56.3672 5.25078 56.1844 4.4211 55.8223C3.6336 55.4777 2.93399 54.9902 2.34102 54.3727C1.75977 53.768 1.30391 53.0672 0.986331 52.2926C0.664066 51.5051 0.501175 50.6789 0.500003 49.8352C0.498831 48.6363 0.84219 47.4527 1.49375 46.4098L24.9172 6.73008L24.9336 6.70312C25.5418 5.73281 26.3914 4.93828 27.391 4.40508C28.3391 3.9 29.4078 3.63281 30.4824 3.63281H30.5H30.5176C31.5922 3.63281 32.6609 3.9 33.609 4.40508C34.6086 4.93828 35.4582 5.73281 36.0664 6.70312L36.0828 6.73008L51.0195 32.0332V32.0344C51.1789 32.3039 51.2234 32.6191 51.1449 32.9215C51.0664 33.225 50.8754 33.4793 50.6059 33.6387C50.4254 33.7453 50.2203 33.8016 50.0117 33.8016C49.598 33.8016 49.2113 33.5801 49.0016 33.225L34.0766 7.9418C33.2914 6.69844 31.9871 5.98242 30.5 5.97656C29.0164 5.98242 27.7145 6.69609 26.9281 7.93359L3.50352 47.6156L3.48711 47.6426C3.06172 48.3234 2.84492 49.0605 2.84375 49.8352C2.84258 50.9027 3.275 51.9645 4.02969 52.7473C4.83594 53.5793 5.88711 54.0211 7.06836 54.0234H53.9316C55.1129 54.0211 56.1629 53.5793 56.9691 52.7473C57.725 51.9645 58.1574 50.9027 58.1563 49.8352C58.1551 49.0617 57.9383 48.3234 57.5117 47.6426L57.4965 47.6156L54.3629 42.307C54.2035 42.0375 54.159 41.7223 54.2375 41.4188C54.3148 41.1164 54.507 40.8609 54.7766 40.7027C54.957 40.5961 55.1621 40.5398 55.3707 40.5398C55.7844 40.5398 56.1711 40.7602 56.3809 41.1152L59.5086 46.4145C60.159 47.4551 60.5012 48.6375 60.5 49.8352C60.4988 50.6789 60.3359 51.5051 60.0137 52.2926C59.6961 53.0672 59.2402 53.768 58.6578 54.3727C58.066 54.9902 57.3664 55.4777 56.5789 55.8223C55.7492 56.1832 54.8621 56.3672 53.9422 56.3672H7.05782Z" fill="#A9336C"/>
<path d="M53.3516 50.5078H7.64846C7.22764 50.5078 6.83916 50.2822 6.63057 49.9167C6.42209 49.5512 6.42549 49.102 6.63947 48.7398L29.491 10.0679C29.702 9.71109 30.0855 9.49219 30.5 9.49219C30.9145 9.49219 31.2981 9.71109 31.5089 10.0679L54.3604 48.7398C54.5745 49.102 54.5778 49.5513 54.3694 49.9167C54.1609 50.2822 53.7724 50.5078 53.3516 50.5078ZM9.70205 48.1641H51.2979L30.5 12.9676L9.70205 48.1641Z" fill="#A9336C"/>
<path d="M30.5 45.7031C28.5615 45.7031 26.9844 44.126 26.9844 42.1875C26.9844 40.249 28.5615 38.6719 30.5 38.6719C32.4385 38.6719 34.0156 40.249 34.0156 42.1875C34.0156 44.126 32.4385 45.7031 30.5 45.7031ZM30.5 41.0156C29.8538 41.0156 29.3281 41.5413 29.3281 42.1875C29.3281 42.8337 29.8538 43.3594 30.5 43.3594C31.1462 43.3594 31.6719 42.8337 31.6719 42.1875C31.6719 41.5413 31.1462 41.0156 30.5 41.0156Z" fill="#A9336C"/>
<path d="M30.5 36.3281C29.2157 36.3281 28.7004 34.8379 28.4802 34.2015C28.2059 33.4086 27.9404 32.3293 27.6908 30.9936C27.2531 28.6514 26.9844 26.1744 26.9844 25.4297C26.9844 23.4912 28.5615 21.9141 30.5 21.9141C32.4385 21.9141 34.0156 23.4912 34.0156 25.4297C34.0156 26.1744 33.7469 28.6514 33.3092 30.9936C33.0596 32.3293 32.7941 33.4086 32.5198 34.2015C32.2996 34.8379 31.7844 36.3281 30.5 36.3281ZM30.5 24.2578C29.8538 24.2578 29.3281 24.7835 29.3281 25.4297C29.3281 25.877 29.518 27.816 29.8807 29.927C30.1077 31.2479 30.3205 32.1695 30.5 32.8079C30.6794 32.1694 30.8923 31.2479 31.1193 29.927C31.482 27.816 31.6719 25.877 31.6719 25.4297C31.6719 24.7835 31.1462 24.2578 30.5 24.2578Z" fill="#A9336C"/>
<path d="M52.6904 38.3418C53.3376 38.3418 53.8623 37.8171 53.8623 37.1699C53.8623 36.5227 53.3376 35.998 52.6904 35.998C52.0432 35.998 51.5186 36.5227 51.5186 37.1699C51.5186 37.8171 52.0432 38.3418 52.6904 38.3418Z" fill="#A9336C"/>
</g>
<defs>
<clipPath id="clip0">
<rect width="60" height="60" fill="white" transform="translate(0.5)"/>
</clipPath>
</defs>
</svg>
