<svg width="61" height="52" viewBox="0 0 61 52" fill="none" xmlns="http://www.w3.org/2000/svg">
<path d="M60.473 17.4619C60.2533 12.8747 58.5094 8.5617 55.5627 5.31688C52.5463 1.99532 48.5992 0.166016 44.4485 0.166016C39.1938 0.166016 34.7073 2.83028 31.8687 5.0654C31.3276 5.49138 30.875 5.88079 30.5225 6.19896C28.5566 4.34095 23.3794 0.16625 16.5525 0.16625C12.4021 0.16625 8.45505 1.99555 5.43852 5.31712C2.49184 8.56181 0.747969 12.8749 0.528125 17.4619C0.309453 22.0366 1.35863 26.0204 3.9302 30.3795C8.08884 37.4294 29.0003 51.0673 29.8884 51.6445C30.0826 51.7706 30.3047 51.8336 30.527 51.8336C30.7491 51.8336 30.9711 51.7706 31.1652 51.6446C31.1652 51.6446 31.266 51.5792 31.454 51.4559C35.05 49.0947 53.1849 36.9812 57.0716 30.3785C58.8023 27.4383 60.7531 23.3128 60.473 17.4619ZM55.6921 9.94639C56.3245 10.5787 56.6726 11.4192 56.6726 12.3135C56.6726 13.2077 56.3243 14.0483 55.6921 14.6805L53.3071 17.0655L48.5728 12.3312L50.9579 9.94615C52.2632 8.64091 54.3869 8.64103 55.6921 9.94639ZM30.5274 49.2596C26.9489 46.8908 9.44634 35.1178 5.94888 29.1886C3.6234 25.2468 2.6736 21.6647 2.86918 17.5739C3.26715 9.26752 9.40544 2.50977 16.5526 2.50977C23.0952 2.50977 28.1045 7.08642 29.3338 8.31818L26.4586 12.1274C26.1436 12.5447 26.1431 13.1202 26.4575 13.5378L32.1411 21.092L26.4575 28.6466C26.1437 29.0639 26.1437 29.6384 26.4575 30.0556L32.1411 37.6103L31.5488 38.3978C31.1597 38.9151 31.2635 39.6497 31.7808 40.0388C31.992 40.1976 32.2391 40.2743 32.4844 40.2743C32.84 40.2742 33.1915 40.113 33.4218 39.8069L34.5441 38.315C34.858 37.8977 34.858 37.3232 34.5441 36.906L28.8605 29.3513L34.5441 21.7966C34.858 21.3793 34.858 20.8048 34.5441 20.3877L28.8614 12.8347L33.3599 6.87478C35.4591 5.22923 39.6543 2.50977 44.4488 2.50977C47.8894 2.50977 51.0957 4.07634 53.5409 6.62728C53.4692 6.62458 53.3973 6.622 53.3252 6.622C51.8049 6.622 50.3757 7.21404 49.3006 8.289L46.9156 10.6741L44.5306 8.289C42.3114 6.07005 38.701 6.06982 36.4817 8.289C35.4067 9.36408 34.8147 10.7933 34.8147 12.3136C34.8147 13.8339 35.4067 15.2631 36.4817 16.338L38.8667 18.723L36.4817 21.1082C34.2625 23.3274 34.2625 26.9379 36.4817 29.1571C37.5913 30.2666 39.0487 30.8214 40.5061 30.8214C41.9637 30.8214 43.421 30.2666 44.5307 29.1571L46.9157 26.7721L49.3007 29.1571C50.4104 30.2666 51.8677 30.8214 53.3253 30.8214C53.5173 30.8214 53.7093 30.8111 53.9006 30.7919C48.6952 37.0975 33.6218 47.2137 30.5274 49.2596ZM40.524 20.3802L42.8911 22.7474L45.2583 25.1146L42.8733 27.4996C41.5681 28.8048 39.4444 28.8051 38.139 27.4996C36.8337 26.1943 36.8337 24.0704 38.139 22.7653L40.524 20.3802ZM56.3709 26.521L44.5089 14.6591C44.0512 14.2016 43.3094 14.2016 42.8515 14.6591C42.3939 15.1167 42.3939 15.8587 42.8515 16.3165L54.7144 28.1793C54.2838 28.3759 53.8124 28.4802 53.3249 28.4802C52.4307 28.4802 51.59 28.1319 50.9577 27.4997L47.7449 24.2868C47.7446 24.2864 47.7443 24.2862 47.7441 24.2858L44.5483 21.09L38.1389 14.6804C37.5066 14.0482 37.1584 13.2076 37.1584 12.3133C37.1584 11.4191 37.5067 10.5784 38.1389 9.94615C38.7712 9.31392 39.6119 8.96564 40.506 8.96564C41.4003 8.96564 42.241 9.31392 42.8732 9.94615L46.0869 13.1599L52.4785 19.5514L55.6921 22.7651C56.706 23.7791 56.9318 25.2865 56.3709 26.521ZM57.8966 21.7427C57.7322 21.5211 57.5501 21.3087 57.3494 21.1078L54.9644 18.7228L57.3495 16.3378C57.5645 16.1228 57.7593 15.893 57.9349 15.6517C58.0343 16.2812 58.1008 16.9228 58.1321 17.5739C58.2044 19.0861 58.1076 20.4717 57.8966 21.7427Z" fill="#891C7E"/>
</svg>
