<svg width="18" height="14" viewBox="0 0 18 14" fill="none" xmlns="http://www.w3.org/2000/svg">
<path d="M0.252441 2.49858L8.99904 6.87134L17.7456 2.49858C17.7133 1.94127 17.469 1.41741 17.063 1.03432C16.6569 0.651229 16.1197 0.437886 15.5615 0.437988H2.43663C1.87837 0.437886 1.3412 0.651229 0.935126 1.03432C0.529056 1.41741 0.28482 1.94127 0.252441 2.49858Z" fill="#9A9A9A"/>
<path d="M17.75 4.94141L9.00012 9.31635L0.250244 4.94141V11.3748C0.250244 11.9549 0.480709 12.5113 0.890939 12.9215C1.30117 13.3318 1.85756 13.5622 2.43771 13.5622H15.5625C16.1427 13.5622 16.6991 13.3318 17.1093 12.9215C17.5195 12.5113 17.75 11.9549 17.75 11.3748V4.94141Z" fill="#9A9A9A"/>
</svg>
