<svg width="20" height="16" viewBox="0 0 20 16" fill="none" xmlns="http://www.w3.org/2000/svg">
<path d="M17.2562 10.253C17.1602 9.586 16.6452 9.066 15.9822 8.911C13.4052 8.307 12.7592 6.823 12.6502 5.177C12.1932 5.092 11.3802 5 10.0002 5C8.62015 5 7.80715 5.092 7.35015 5.177C7.24115 6.823 6.59515 8.307 4.01815 8.911C3.35515 9.067 2.84015 9.586 2.74415 10.253L2.24715 13.695C2.07215 14.907 2.96215 16 4.20015 16H15.8002C17.0372 16 17.9282 14.907 17.7532 13.695L17.2562 10.253ZM10.0002 13.492C8.60515 13.492 7.47415 12.372 7.47415 10.992C7.47415 9.612 8.60515 8.492 10.0002 8.492C11.3952 8.492 12.5262 9.612 12.5262 10.992C12.5262 12.372 11.3942 13.492 10.0002 13.492ZM19.9502 4C19.9262 2.5 16.1082 0.001 10.0002 0C3.89115 0.001 0.0731507 2.5 0.0501507 4C0.0271507 5.5 0.0711508 7.452 2.58515 7.127C5.52615 6.746 5.34515 5.719 5.34515 4.251C5.34515 3.227 7.73715 2.98 10.0002 2.98C12.2632 2.98 14.6542 3.227 14.6552 4.251C14.6552 5.719 14.4742 6.746 17.4152 7.127C19.9282 7.452 19.9732 5.5 19.9502 4Z" fill="#9A9A9A"/>
</svg>
