<svg width="72" height="72" viewBox="0 0 72 72" fill="none" xmlns="http://www.w3.org/2000/svg">
<g filter="url(#filter0_d)">
<ellipse cx="31.5" cy="32" rx="24.5" ry="25" fill="#FFE0EF"/>
<path d="M22 19.458C21.337 19.458 20.7011 19.7214 20.2322 20.1902C19.7634 20.6591 19.5 21.295 19.5 21.958C19.5 22.621 19.7634 23.2569 20.2322 23.7258C20.7011 24.1946 21.337 24.458 22 24.458H42C42.663 24.458 43.2989 24.1946 43.7678 23.7258C44.2366 23.2569 44.5 22.621 44.5 21.958C44.5 21.295 44.2366 20.6591 43.7678 20.1902C43.2989 19.7214 42.663 19.458 42 19.458H22V19.458Z" fill="#A9336C"/>
<path d="M19.5 32C19.5 31.337 19.7634 30.7011 20.2322 30.2322C20.7011 29.7634 21.337 29.5 22 29.5H42C42.663 29.5 43.2989 29.7634 43.7678 30.2322C44.2366 30.7011 44.5 31.337 44.5 32C44.5 32.663 44.2366 33.2989 43.7678 33.7678C43.2989 34.2366 42.663 34.5 42 34.5H22C21.337 34.5 20.7011 34.2366 20.2322 33.7678C19.7634 33.2989 19.5 32.663 19.5 32Z" fill="#A9336C"/>
<path d="M22 39.542C21.337 39.542 20.7011 39.8054 20.2322 40.2742C19.7634 40.7431 19.5 41.379 19.5 42.042C19.5 42.705 19.7634 43.3409 20.2322 43.8098C20.7011 44.2786 21.337 44.542 22 44.542H42C42.663 44.542 43.2989 44.2786 43.7678 43.8098C44.2366 43.3409 44.5 42.705 44.5 42.042C44.5 41.379 44.2366 40.7431 43.7678 40.2742C43.2989 39.8054 42.663 39.542 42 39.542H22Z" fill="#A9336C"/>
<path fill-rule="evenodd" clip-rule="evenodd" d="M57 32C57 45.8075 45.8075 57 32 57C18.1925 57 7 45.8075 7 32C7 18.1925 18.1925 7 32 7C45.8075 7 57 18.1925 57 32ZM52 32C52 37.3043 49.8929 42.3914 46.1421 46.1421C42.3914 49.8929 37.3043 52 32 52C26.6957 52 21.6086 49.8929 17.8579 46.1421C14.1071 42.3914 12 37.3043 12 32C12 26.6957 14.1071 21.6086 17.8579 17.8579C21.6086 14.1071 26.6957 12 32 12C37.3043 12 42.3914 14.1071 46.1421 17.8579C49.8929 21.6086 52 26.6957 52 32V32Z" fill="#A9336C"/>
</g>
<defs>
<filter id="filter0_d" x="0" y="0" width="72" height="72" filterUnits="userSpaceOnUse" color-interpolation-filters="sRGB">
<feFlood flood-opacity="0" result="BackgroundImageFix"/>
<feColorMatrix in="SourceAlpha" type="matrix" values="0 0 0 0 0 0 0 0 0 0 0 0 0 0 0 0 0 0 127 0"/>
<feOffset dx="4" dy="4"/>
<feGaussianBlur stdDeviation="3"/>
<feColorMatrix type="matrix" values="0 0 0 0 0.841667 0 0 0 0 0.445382 0 0 0 0 0.637133 0 0 0 0.25 0"/>
<feBlend mode="normal" in2="BackgroundImageFix" result="effect1_dropShadow"/>
<feBlend mode="normal" in="SourceGraphic" in2="effect1_dropShadow" result="shape"/>
</filter>
</defs>
</svg>
