<svg width="40" height="40" viewBox="0 0 40 40" fill="none" xmlns="http://www.w3.org/2000/svg">
<path d="M36.3044 23.1528C35.8638 23.1358 34.6345 23.6674 33.2425 25.9299C31.5024 28.7581 28.8956 30.5133 27.5956 28.9041C26.2955 27.2948 26.0822 24.5396 29.1659 20.2043L23.4754 26.2949L24.5906 18.617C23.3572 21.242 20.3338 26.6635 18.1073 27.3496" stroke="#891C7E" stroke-width="2"/>
<path d="M19.3007 26.8156C21.2912 23.7531 23.1375 16.3456 19.7581 16.2972C16.3787 16.2488 12.7633 21.9259 11.378 24.7705C10.7893 26.1723 9.90652 29.1556 11.0846 29.874C12.2626 30.5923 13.2227 28.6624 13.5555 27.6076C14.2316 25.0013 15.3603 17.9923 13.4437 12.1951C11.527 6.39793 8.86392 5.37771 7.92797 5.5616" stroke="#891C7E" stroke-width="2"/>
<circle cx="20" cy="20" r="18.5" stroke="#891C7E" stroke-width="3"/>
</svg>
