<svg width="61" height="60" viewBox="0 0 61 60" fill="none" xmlns="http://www.w3.org/2000/svg">
<path d="M56.5951 35.8663L54.3673 33.6388C53.1897 32.4612 52.5415 30.8957 52.5415 29.2306C52.5415 24.8573 50.6144 20.7436 47.255 17.9441C46.0132 16.909 44.6389 16.0668 43.1602 15.4317L44.3186 13.528C44.5256 13.1874 44.5331 12.7606 44.3378 12.4132C44.1421 12.0651 43.7744 11.8501 43.3751 11.8501H37.7686L42.5302 3.49675C42.7249 3.15514 42.7231 2.73525 42.5254 2.39536C42.3276 2.05513 41.9641 1.8457 41.5706 1.8457H33.5866C33.1595 1.8457 32.7712 2.09152 32.5882 2.47742L28.847 10.3773C27.5173 10.0165 26.1372 9.82935 24.7405 9.82935H24.3636C20.4651 9.82935 16.6683 11.2037 13.6739 13.6996C10.3141 16.4991 8.3877 20.6131 8.3877 24.986C8.3877 26.6512 7.73882 28.2167 6.56156 29.3943L4.33373 31.6221C3.7288 32.2271 3.5489 33.1293 3.87677 33.9204C4.2043 34.7107 4.96888 35.2219 5.82479 35.2219H7.02711V42.6487C7.02711 43.8877 7.50948 45.0526 8.38598 45.9284C9.2618 46.8043 10.4264 47.2866 11.6651 47.2866H12.7517C13.737 47.2866 14.538 48.0883 14.538 49.0733V52.7475C14.538 53.3573 15.0324 53.8517 15.6425 53.8517H20.2471C20.8569 53.8517 21.3512 53.3573 21.3512 52.7475C21.3512 52.1374 20.8569 51.6431 20.2471 51.6431H16.7466V49.0733C16.7466 46.8702 14.9544 45.0784 12.7517 45.0784H11.6651C11.0162 45.0784 10.4061 44.8253 9.94742 44.3667C9.48839 43.908 9.23605 43.2975 9.23605 42.6487V34.1178C9.23605 33.5077 8.74166 33.0133 8.13124 33.0133H6.0658L8.12334 30.9561C9.71739 29.3614 10.596 27.2413 10.596 24.986C10.596 21.2706 12.2326 17.7749 15.0873 15.3963C17.6863 13.2307 20.9805 12.0379 24.3636 12.0379H24.7405C25.8066 12.0379 26.8609 12.1646 27.884 12.4105L25.4258 17.6012C25.3039 17.8583 25.2875 18.1491 25.3733 18.4135C22.1484 21.7619 20.06 26.4266 20.06 30.4892C20.06 33.1877 20.7257 35.8749 21.9854 38.261L25.5515 45.0166C26.7181 47.2262 27.3343 49.7143 27.3343 52.213V56.9913C27.3343 57.6014 27.8287 58.0958 28.4385 58.0958C29.0482 58.0958 29.5426 57.6014 29.5426 56.9913V52.213C29.5426 49.3565 28.8381 46.5114 27.5043 43.9856L23.9382 37.2303C22.8457 35.1604 22.2679 32.8293 22.2679 30.4892C22.2679 26.6481 24.46 22.1523 27.7549 19.178H31.9957L31.1579 31.1463C31.1229 31.6527 31.4371 32.1179 31.9198 32.2741C32.0317 32.3102 32.1464 32.3277 32.2597 32.3277C32.6335 32.3277 32.9916 32.1371 33.1976 31.8062L37.5441 24.8144C37.8661 24.2963 37.7072 23.6158 37.1894 23.2938C36.6717 22.9718 35.9906 23.1304 35.6689 23.6485L33.6721 26.8603L34.2818 18.1505C34.3031 17.8449 34.1967 17.5445 33.988 17.3207C33.7789 17.0965 33.4867 16.9694 33.1801 16.9694H28.1686L34.2853 4.05396H39.6703L34.9088 12.407C34.7141 12.7493 34.7158 13.1689 34.9136 13.5087C35.1113 13.849 35.4749 14.0581 35.8683 14.0581H41.4106L39.9175 16.5125C39.6003 17.0333 39.7661 17.7127 40.2869 18.03C40.8081 18.3472 41.4872 18.1814 41.8041 17.6606L41.9984 17.3413C43.3919 17.9043 44.6832 18.6754 45.8415 19.6405C48.6959 22.0194 50.3329 25.5148 50.3329 29.2306C50.3329 31.4855 51.2111 33.6055 52.8059 35.1999L54.8631 37.2575H52.7973C52.1875 37.2575 51.6931 37.7518 51.6931 38.3616V46.8932C51.6931 47.5421 51.4401 48.1521 50.9814 48.6108C50.5228 49.0698 49.913 49.3225 49.2635 49.3225H48.1768C45.9741 49.3225 44.1819 51.1147 44.1819 53.3174V56.9913C44.1819 57.6014 44.6763 58.0958 45.286 58.0958C45.8961 58.0958 46.3905 57.6014 46.3905 56.9913V53.3174C46.3905 52.3324 47.1922 51.5308 48.1768 51.5308H49.2635C50.5025 51.5308 51.6674 51.0484 52.5432 50.1726C53.419 49.2968 53.9017 48.1319 53.9017 46.8932V39.4657H55.1044C55.96 39.4657 56.7249 38.9552 57.0521 38.1642C57.3796 37.3735 57.2004 36.4716 56.5951 35.8663Z" fill="#A9336C"/>
<path d="M25.2487 51.8787L25.2195 51.8564C24.7337 51.4877 24.0409 51.5831 23.6721 52.0689C23.3038 52.5547 23.3989 53.2472 23.8847 53.6159L23.9135 53.6378C24.113 53.7893 24.3478 53.8627 24.5802 53.8627C24.914 53.8627 25.2435 53.712 25.4609 53.4257C25.8293 52.9399 25.7345 52.2474 25.2487 51.8787Z" fill="#A9336C"/>
<path d="M39.4854 19.7019L39.4562 19.6796C38.9704 19.3109 38.2783 19.4063 37.9092 19.8921C37.5408 20.3779 37.6359 21.0704 38.1217 21.4391L38.1502 21.4611C38.3504 21.6125 38.5845 21.6857 38.8173 21.6857C39.1507 21.6857 39.4803 21.5349 39.6979 21.2489C40.0666 20.7631 39.9712 20.0707 39.4854 19.7019Z" fill="#A9336C"/>
</svg>
