<svg width="61" height="60" viewBox="0 0 61 60" fill="none" xmlns="http://www.w3.org/2000/svg">
<g clip-path="url(#clip0)">
<path d="M16.9448 21.168L18.0552 22.832C18.4399 22.5752 27.5 16.4609 27.5 10H25.5C25.5 15.3921 17.0298 21.1108 16.9448 21.168Z" fill="#A9336C"/>
<path d="M24.5 4.00027L24.4878 6.00027C24.7622 5.97097 25.0347 6.06667 25.231 6.26052C25.4272 6.45437 25.5259 6.72585 25.5 7.00027H27.5C27.5234 6.19753 27.2149 5.42068 26.647 4.85329C26.0796 4.28542 25.3027 3.97683 24.5 4.00027Z" fill="#A9336C"/>
<path d="M44.9448 31.168L46.0552 32.832C46.4399 32.5752 55.5 26.4609 55.5 20H53.5C53.5 25.3921 45.0298 31.1108 44.9448 31.168Z" fill="#A9336C"/>
<path d="M52.5 13.9993L52.4878 15.9993C52.7622 15.97 53.0347 16.0657 53.2309 16.2596C53.4272 16.4534 53.5259 16.7249 53.5 16.9993H55.5C55.5234 16.1966 55.2148 15.4197 54.6469 14.8523C54.0796 14.2844 53.3027 13.9759 52.5 13.9993Z" fill="#A9336C"/>
<path d="M30.9448 52.168L32.0552 53.832C32.4399 53.5752 41.5 47.4609 41.5 41H39.5C39.5 46.3921 31.0298 52.1108 30.9448 52.168Z" fill="#A9336C"/>
<path d="M38.5 34.9993L38.4878 36.9993C38.7622 36.97 39.0347 37.0657 39.231 37.2596C39.4272 37.4534 39.5259 37.7249 39.5 37.9993H41.5C41.5234 37.1966 41.2149 36.4197 40.647 35.8523C40.0796 35.2844 39.3027 34.9759 38.5 34.9993Z" fill="#A9336C"/>
<path d="M52.5 10C48.084 10 46.0562 12.543 44.7139 14.2261L44.5 14.4941L44.2861 14.2261C42.9438 12.543 40.916 10 36.5 10C35.043 9.99365 33.6265 10.4795 32.48 11.3789C32.4858 11.2529 32.5 11.126 32.5 11C32.5 5.66699 29.7002 0 24.5 0C20.084 0 18.0562 2.54297 16.7139 4.22607L16.5 4.49414L16.2861 4.22607C14.9438 2.54297 12.916 0 8.5 0C3.2998 0 0.5 5.66699 0.5 11C0.5 19.4692 15.353 28.478 15.9849 28.8569C16.3018 29.0474 16.6982 29.0474 17.0151 28.8569C21.3008 26.2383 25.2002 23.0342 28.6001 19.3369C28.5366 19.8892 28.5034 20.4443 28.5 21C28.5 24.2148 30.5928 27.8359 34.7168 31.773C33.1201 32.5776 31.7461 33.7637 30.7168 35.2261L30.5 35.4941L30.2861 35.2261C28.9438 33.543 26.916 31 22.5 31C17.2998 31 14.5 36.667 14.5 42C14.5 50.4692 29.353 59.478 29.9849 59.8569C30.3018 60.0474 30.6982 60.0474 31.0151 59.8569C31.647 59.478 46.5 50.4692 46.5 42C46.498 40.7256 46.3384 39.4561 46.0249 38.2212C50.1348 35.5679 60.5 28.1631 60.5 21C60.5 15.667 57.7002 10 52.5 10ZM16.5 26.8242C12.1489 24.1069 2.5 16.8521 2.5 11C2.5 7.26318 4.36084 2 8.5 2C11.9531 2 13.4238 3.84522 14.7222 5.47315C15.0566 5.91455 15.4209 6.3335 15.812 6.72608C16.1978 7.0918 16.8022 7.0918 17.188 6.72608C17.5791 6.3335 17.9434 5.91455 18.2778 5.47315C19.5762 3.84522 21.0469 2 24.5 2C28.6392 2 30.5 7.26318 30.5 11C30.5 17.5469 19.0708 25.187 16.5 26.8242ZM30.5 57.8242C26.1489 55.1069 16.5 47.8521 16.5 42C16.5 38.2632 18.3608 33 22.5 33C25.9531 33 27.4238 34.8452 28.7222 36.4731C29.0566 36.9146 29.4209 37.3335 29.812 37.7261C30.1978 38.0918 30.8022 38.0918 31.188 37.7261C31.5791 37.3335 31.9434 36.9146 32.2778 36.4731C33.5762 34.8452 35.0469 33 38.5 33C42.6392 33 44.5 38.2632 44.5 42C44.5 48.5469 33.0708 56.187 30.5 57.8242ZM45.3701 36.2549C44.1001 33.2539 41.7759 31 38.5 31C37.981 30.9985 37.4624 31.0366 36.9492 31.1128C32.7339 27.3052 30.5 23.8101 30.5 21C30.5 17.2632 32.3608 12 36.5 12C39.9531 12 41.4238 13.8452 42.7222 15.4731C43.0566 15.9146 43.4209 16.3335 43.812 16.7261C44.1978 17.0918 44.8022 17.0918 45.188 16.7261C45.5791 16.3335 45.9434 15.9146 46.2778 15.4731C47.5762 13.8452 49.0469 12 52.5 12C56.6392 12 58.5 17.2632 58.5 21C58.5 26.9829 48.79 33.9771 45.3701 36.2549Z" fill="#A9336C"/>
</g>
<defs>
<clipPath id="clip0">
<rect width="60" height="60" fill="white" transform="translate(0.5)"/>
</clipPath>
</defs>
</svg>
