<svg width="61" height="60" viewBox="0 0 61 60" fill="none" xmlns="http://www.w3.org/2000/svg">
<g clip-path="url(#clip0)">
<path d="M59.7697 14.4284L52.4617 9.18651C51.676 8.61756 51.0651 8.86987 50.6605 9.03698C50.597 9.06323 47.0787 10.2821 47.0639 10.2882C46.9105 10.3505 46.7762 10.4155 46.6575 10.4847C46.5703 10.525 46.489 10.5802 46.4172 10.6495C46.0385 10.9597 45.9014 11.3752 45.9014 12.0576L45.9068 17.9796C41.8056 16.291 37.245 15.9886 32.8586 17.1832C30.7011 15.5946 28.2206 14.4215 25.5352 13.7831L28.9931 8.96807C29.6687 8.03022 29.345 7.32545 29.2759 7.21588C29.2221 7.10091 26.919 3.80055 26.8829 3.74266C26.6377 3.34926 26.302 2.81055 25.3335 2.81055H16.3376C15.3692 2.81055 15.0334 3.34926 14.7883 3.74266C14.7522 3.80055 12.4247 7.14299 12.3668 7.27588C12.3287 7.34842 12.3002 7.42658 12.2836 7.50932C12.1486 7.98908 12.2774 8.41014 12.6802 8.971L16.1337 13.7838C7.1803 15.9132 0.5 23.9852 0.5 33.5908C0.5 44.8161 9.62261 53.9484 20.8357 53.9484C22.6513 53.9484 24.4435 53.7081 26.1717 53.2397C26.2323 53.2839 26.293 53.3282 26.3527 53.3712C29.845 55.8781 33.9436 57.1888 38.1574 57.1888C39.2679 57.1888 40.3864 57.0978 41.5039 56.9135C46.8662 56.0297 51.5635 53.1077 54.7305 48.6859C60.3218 40.8789 59.589 30.4199 53.5484 23.4656L59.157 21.5696C60.088 21.2555 60.4041 20.8494 60.4578 19.8984C60.4586 19.8833 60.4832 16.1593 60.4877 16.091C60.5173 15.6287 60.5581 14.9954 59.7697 14.4284ZM51.4406 10.6173L58.7407 15.8537C58.7388 15.8928 58.7037 19.3072 58.7037 19.3072L48.7947 11.55C48.7947 11.55 51.4058 10.631 51.4406 10.6173ZM47.6602 12.8942L57.2118 20.3716L52.2065 22.0637C51.5379 21.4288 50.8197 20.8312 50.0501 20.2788C49.283 19.7284 48.486 19.2369 47.6656 18.8033L47.6602 12.8942ZM16.346 4.56813H25.3258C25.3469 4.60071 26.8873 6.80443 26.8873 6.80443H14.7845C14.7845 6.80443 16.3249 4.60071 16.346 4.56813ZM14.5508 8.56225H27.1203L23.6276 13.4258C22.7146 13.2997 21.7829 13.233 20.8359 13.233C19.8878 13.233 18.9552 13.2998 18.0413 13.4261L14.5508 8.56225ZM2.25782 33.5908C2.25782 23.3347 10.5919 14.9909 20.8357 14.9909C31.0796 14.9909 39.4137 23.3348 39.4137 33.5908C39.4137 39.1855 36.8219 44.5753 32.4548 48.1172C31.8941 47.8296 31.3507 47.4984 30.8291 47.1241C30.1494 46.6364 29.533 46.0926 28.9804 45.5045C32.9242 42.8414 35.2485 38.463 35.2485 33.5908C35.2485 30.2285 34.0935 27.1314 32.1601 24.6756C32.1548 24.6667 32.1504 24.6574 32.1447 24.6486C32.1036 24.5844 32.0549 24.5282 32.0015 24.4785C30.6314 22.7992 28.8915 21.4338 26.9074 20.5075C26.8649 20.4832 26.821 20.4626 26.7755 20.4457C24.9635 19.6219 22.9523 19.1627 20.8359 19.1627C16.1342 19.1627 11.7158 21.4676 9.01183 25.3354C8.87179 25.54 8.74909 25.7255 8.63659 25.9023C8.3762 26.312 8.49726 26.8552 8.90695 27.1156C9.3164 27.376 9.85969 27.2549 10.1202 26.8452C10.2219 26.6852 10.3338 26.516 10.4576 26.3352C12.8281 22.9446 16.7078 20.9204 20.836 20.9204C22.2054 20.9204 23.5244 21.1401 24.7606 21.5449C23.6088 22.5614 22.5725 23.7062 21.6728 24.964C19.2822 28.3026 17.9667 32.2298 17.8687 36.3211C17.7853 39.7952 18.5769 43.1957 20.1672 46.2463C13.4972 45.8969 8.1778 40.3541 8.1778 33.5905C8.1778 32.4991 8.31796 31.4103 8.59429 30.3544C8.71722 29.8848 8.4362 29.4045 7.96663 29.2815C7.49682 29.1583 7.01671 29.4396 6.89378 29.9092C6.57936 31.1103 6.41998 32.3489 6.41998 33.5905C6.41998 41.548 12.887 48.0218 20.836 48.0218C20.9724 48.0218 21.0918 48.0205 21.2073 48.0177C22.1335 49.4265 23.2227 50.7046 24.4603 51.8357C23.2741 52.0695 22.0613 52.1904 20.8361 52.1904C10.5919 52.1907 2.25782 43.8468 2.25782 33.5908ZM33.4906 33.5908C33.4906 37.923 31.4018 41.8089 27.8648 44.1359C24.846 39.8494 24.6957 33.94 27.9157 29.4427C28.8113 28.1902 29.9063 27.1309 31.1704 26.2865C32.6312 28.3522 33.4906 30.8728 33.4906 33.5908ZM53.3011 47.6624C50.4079 51.7023 46.1166 54.3717 41.218 55.1791C36.3234 55.9859 31.4084 54.8366 27.3791 51.9442C27.217 51.8273 27.0638 51.7169 26.9196 51.6026C26.9153 51.5993 26.9112 51.596 26.9069 51.5927C25.1323 50.2379 23.632 48.5899 22.4466 46.6947C22.4327 46.6693 22.4174 46.6446 22.4011 46.6208C18.4391 40.2116 18.7118 32.1182 23.102 25.9873C24.0936 24.6011 25.266 23.3657 26.5867 22.3062C27.8893 22.9743 29.0613 23.8624 30.0546 24.9205C28.6737 25.8663 27.4728 27.0402 26.4862 28.4197C22.6549 33.771 23.0139 40.8794 26.913 45.7986C26.9462 45.8477 26.9821 45.8939 27.0229 45.9341C27.8121 46.9051 28.7403 47.7887 29.8044 48.5522C30.5655 49.0984 31.3675 49.5636 32.1997 49.9473C32.2025 49.9486 32.2052 49.95 32.2079 49.9513C34.0801 50.8128 36.1059 51.2576 38.1711 51.2576C38.9586 51.2576 39.7525 51.1929 40.545 51.0622C44.3448 50.4353 47.6732 48.3642 49.917 45.2304C50.1995 44.8357 50.1087 44.2866 49.714 44.0041C49.3195 43.7216 48.7704 43.8124 48.4878 44.2071C46.5175 46.9589 43.5952 48.7775 40.2589 49.3278C38.222 49.6638 36.18 49.5016 34.2729 48.8758C38.6166 45.0084 41.1717 39.402 41.1717 33.5909C41.1717 30.1949 40.3356 26.9911 38.8604 24.1732C41.2631 24.2993 43.6048 25.1115 45.5741 26.5262C50.0123 29.71 51.9311 35.5598 50.2403 40.7518C50.09 41.2133 50.3424 41.7093 50.8039 41.8597C50.8942 41.8891 50.986 41.9032 51.0762 41.9032C51.4465 41.9032 51.7909 41.6673 51.9118 41.2961C52.8629 38.3755 52.8545 35.2752 51.8879 32.3308C50.9219 29.3883 49.0928 26.8872 46.5992 25.0983C44.0469 23.2648 40.9461 22.317 37.8158 22.4017C36.8904 20.9991 35.7969 19.7169 34.5634 18.5851C38.586 17.7769 42.7078 18.3174 46.3541 20.1076C46.3786 20.1216 46.4037 20.1342 46.4296 20.1457C47.3268 20.5912 48.1953 21.1113 49.0254 21.707C57.3522 27.6842 59.2705 39.3277 53.3011 47.6624Z" fill="#891C7E"/>
</g>
<defs>
<clipPath id="clip0">
<rect width="60" height="60" fill="white" transform="translate(0.5)"/>
</clipPath>
</defs>
</svg>
