<svg width="61" height="60" viewBox="0 0 61 60" fill="none" xmlns="http://www.w3.org/2000/svg">
<path d="M25.7337 3.94918C26.5353 3.82262 34.4628 3.82262 35.2625 3.94824C40.3991 4.88293 43.8378 8.68918 45.4812 15.2601C46.6972 20.1211 47.0806 25.0336 47.3956 30.0576L49.2669 29.9404C48.9584 25.0298 48.5525 19.8154 47.2991 14.8054C45.4869 7.55856 41.4406 3.16543 35.5972 2.10324C34.6925 1.93824 26.3066 1.93824 25.4019 2.10324C22.5941 2.61324 20.1875 3.8948 18.2478 5.91137L19.5987 7.21168C21.2609 5.48574 23.3262 4.38793 25.7337 3.94918Z" fill="#A9336C"/>
<path d="M55.8125 48.7503C54.2619 48.7503 53 50.0122 53 51.5628V52.5003H54.875V51.5628C54.875 51.0453 55.295 50.6253 55.8125 50.6253C56.33 50.6253 56.75 51.0453 56.75 51.5628V52.0869C56.75 52.7544 56.5278 53.4144 56.1266 53.9412C56.0797 54.0013 56.0319 54.0584 55.9766 54.1091C55.2847 54.7419 53.9769 55.7141 52.9775 55.1103C52.0063 54.5234 51.6556 51.9491 51.4456 50.4097C51.3913 50.0159 51.3425 49.655 51.29 49.3522L49.4422 49.6691C49.4909 49.955 49.5369 50.2934 49.5875 50.6638C49.7778 52.0644 50.0253 53.7988 50.6712 55.1206L44.6056 54.7634C41.4275 54.5759 38.9375 51.9341 38.9375 48.7503V39.3509C41.5559 36.245 42.7738 31.7347 43.8313 27.7738C44.2175 26.3309 44.5813 24.9669 44.99 23.7322C45.0856 23.4453 45.0359 23.1303 44.8578 22.8866C44.0956 21.8375 37.3419 12.7344 32.6703 12.7344C32.6187 12.7344 32.5672 12.7353 32.5156 12.7372C31.6953 12.7738 30.5394 13.1112 29.6956 14.5175C27.0922 18.8562 16.2425 22.6081 16.1338 22.6456C15.6603 22.8078 15.3978 23.3113 15.5356 23.7922C15.7794 24.6388 16.0156 25.5369 16.2594 26.4641C17.4069 30.8169 18.8197 36.1634 22.0606 39.6078V48.7503C22.0606 51.9341 19.5706 54.5759 16.3916 54.7625L10.3259 55.1197C10.9719 53.7978 11.2194 52.0634 11.4097 50.6628C11.4613 50.2925 11.5072 49.9541 11.555 49.6691C12.2112 45.8563 12.7137 41.9891 13.0494 38.1763C13.2378 36.0331 13.3709 33.8506 13.4984 31.7394C13.7375 27.8131 13.9841 23.7519 14.5991 19.8331L12.7456 19.5416C12.1175 23.5484 11.8672 27.6547 11.6272 31.625C11.4988 33.7241 11.3675 35.8944 11.1809 38.0122C10.85 41.7744 10.355 45.5891 9.70719 49.3522C9.65469 49.655 9.60594 50.0159 9.55156 50.4097C9.34156 51.9491 8.99094 54.5234 8.01969 55.1103C7.45437 55.4525 6.72219 55.3306 5.84188 54.7541C5.35156 54.4316 4.95125 53.9356 4.68406 53.3169L4.5425 52.9897C4.34844 52.5359 4.25 52.0559 4.25 51.5628C4.25 51.0453 4.67 50.6253 5.1875 50.6253C5.705 50.6253 6.125 51.0453 6.125 51.5628V52.5003H8V51.5628C8 50.0122 6.73812 48.7503 5.1875 48.7503C3.63687 48.7503 2.375 50.0122 2.375 51.5628C2.375 52.3147 2.52594 53.0441 2.82406 53.7331L2.96563 54.0603C3.37813 55.0166 4.01937 55.7984 4.81813 56.3206C5.69281 56.8944 6.45687 57.1222 7.11688 57.1625L7.11781 57.185L7.28094 57.1756C7.29688 57.1756 7.31563 57.1794 7.33156 57.1794C7.475 57.1794 7.60906 57.1653 7.74031 57.1484L16.5041 56.6328C20.6722 56.3891 23.9375 52.9259 23.9375 48.7503V41.2213C25.6709 42.4091 27.8122 43.1309 30.5 43.1309C33.2516 43.1309 35.375 42.3622 37.0625 41.1181V48.7503C37.0625 52.9259 40.3278 56.3891 44.4969 56.6338L53.2006 57.1456C53.3553 57.1681 53.5119 57.1822 53.6703 57.1822C53.6947 57.1822 53.7191 57.1784 53.7434 57.1775L53.8831 57.1859L53.8841 57.1691C54.9491 57.1025 56.0947 56.5409 57.2422 55.4928C57.3791 55.3672 57.4991 55.2322 57.6153 55.0812C58.2659 54.2253 58.625 53.1613 58.625 52.0869V51.5628C58.625 50.0122 57.3631 48.7503 55.8125 48.7503ZM30.5 41.2569C22.1009 41.2569 19.9616 33.1438 18.0734 25.985C17.9056 25.3475 17.7416 24.7231 17.5756 24.1203C20.3 23.1078 28.7816 19.6869 31.3044 15.4831C31.7497 14.7406 32.2297 14.6272 32.5991 14.6103C35.3075 14.5091 40.3034 19.9119 43.0606 23.6075C42.695 24.7616 42.3669 25.9944 42.0209 27.2909C40.1863 34.1572 38.2897 41.2569 30.5 41.2569Z" fill="#A9336C"/>
<path d="M3.74843 12.0743C4.66155 12.9884 5.86249 13.4449 7.06249 13.4449C7.29124 13.4449 7.51905 13.413 7.74593 13.3793C7.53874 14.7959 7.96343 16.2893 9.05093 17.3768L10.1497 18.4755C10.3325 18.6584 10.5725 18.7502 10.8125 18.7502C11.0525 18.7502 11.2925 18.6584 11.4753 18.4755L12.5741 17.3768C13.6616 16.2893 14.0872 14.7959 13.8791 13.3793C14.1059 13.4121 14.3337 13.4449 14.5625 13.4449C15.7625 13.4449 16.9634 12.9884 17.8766 12.0743L18.9753 10.9755C19.3419 10.609 19.3419 10.0165 18.9753 9.64992L17.8766 8.55117C16.7891 7.46367 15.2956 7.03805 13.8791 7.24617C14.0862 5.82961 13.6616 4.33617 12.5741 3.24867L11.4753 2.14992C11.1087 1.78336 10.5162 1.78336 10.1497 2.14992L9.05093 3.24867C7.96343 4.33617 7.5378 5.82961 7.74593 7.24617C6.32937 7.03898 4.83593 7.46367 3.74843 8.55117L2.64968 9.64992C2.28312 10.0165 2.28312 10.609 2.64968 10.9755L3.74843 12.0743ZM12.5741 9.8768C13.6362 8.81461 15.4887 8.81461 16.5509 9.8768L16.9869 10.3127L16.5509 10.7487C15.4887 11.8109 13.6362 11.8109 12.5741 10.7487L12.1381 10.3127L12.5741 9.8768ZM10.3766 4.5743L10.8125 4.13836L11.2484 4.5743C11.7791 5.10492 12.0716 5.81086 12.0716 6.56273C12.0716 7.31461 11.7791 8.02055 11.2484 8.55117L10.8125 8.98711L10.3766 8.55117C9.84593 8.02055 9.55343 7.31461 9.55343 6.56273C9.55343 5.81086 9.84593 5.10492 10.3766 4.5743ZM10.3766 12.0743L10.8125 11.6384L11.2484 12.0743C11.7791 12.6049 12.0716 13.3109 12.0716 14.0627C12.0716 14.8146 11.7791 15.5205 11.2484 16.0512L10.8125 16.4871L10.3766 16.0512C9.84593 15.5205 9.55343 14.8146 9.55343 14.0627C9.55343 13.3109 9.84593 12.6049 10.3766 12.0743ZM5.07405 9.8768C6.13624 8.81461 7.98874 8.81461 9.05093 9.8768L9.48687 10.3127L9.05093 10.7487C7.98874 11.8109 6.13624 11.8109 5.07405 10.7487L4.63812 10.3127L5.07405 9.8768Z" fill="#A9336C"/>
<path d="M59.2878 37.7749L58.189 36.6762C57.1015 35.5887 55.6081 35.163 54.1915 35.3712C54.3987 33.9546 53.974 32.4612 52.8865 31.3737L51.7878 30.2749C51.4212 29.9084 50.8287 29.9084 50.4622 30.2749L49.3634 31.3737C48.2759 32.4612 47.8503 33.9546 48.0584 35.3712C46.6419 35.164 45.1484 35.5887 44.0609 36.6762L42.9622 37.7749C42.5956 38.1415 42.5956 38.734 42.9622 39.1005L44.0609 40.1993C44.975 41.1134 46.175 41.5699 47.375 41.5699C47.6037 41.5699 47.8315 41.538 48.0584 41.5043C47.8512 42.9208 48.2759 44.4143 49.3634 45.5018L50.4622 46.6005C50.645 46.7833 50.885 46.8752 51.125 46.8752C51.365 46.8752 51.605 46.7833 51.7878 46.6005L52.8865 45.5018C53.974 44.4143 54.3997 42.9208 54.1915 41.5043C54.4184 41.5371 54.6462 41.5699 54.875 41.5699C56.075 41.5699 57.2759 41.1134 58.189 40.1993L59.2878 39.1005C59.6544 38.734 59.6544 38.1415 59.2878 37.7749ZM49.3634 38.8737C48.3012 39.9359 46.4487 39.9359 45.3866 38.8737L44.9506 38.4377L45.3866 38.0018C46.4487 36.9396 48.3012 36.9396 49.3634 38.0018L49.7994 38.4377L49.3634 38.8737ZM51.5609 44.1762L51.125 44.6121L50.689 44.1762C50.1584 43.6455 49.8659 42.9396 49.8659 42.1877C49.8659 41.4359 50.1584 40.7299 50.689 40.1993L51.125 39.7634L51.5609 40.1993C52.0915 40.7299 52.384 41.4359 52.384 42.1877C52.384 42.9396 52.0915 43.6455 51.5609 44.1762ZM51.5609 36.6762L51.125 37.1121L50.689 36.6762C50.1584 36.1455 49.8659 35.4396 49.8659 34.6877C49.8659 33.9359 50.1584 33.2299 50.689 32.6993L51.125 32.2634L51.5609 32.6993C52.0915 33.2299 52.384 33.9359 52.384 34.6877C52.384 35.4396 52.0915 36.1455 51.5609 36.6762ZM56.8634 38.8737C55.8012 39.9359 53.9487 39.9359 52.8865 38.8737L52.4506 38.4377L52.8865 38.0018C53.9487 36.9396 55.8012 36.9396 56.8634 38.0018L57.2994 38.4377L56.8634 38.8737Z" fill="#A9336C"/>
<path d="M49.25 1.875H51.125V3.75H49.25V1.875Z" fill="#A9336C"/>
<path d="M51.125 3.75H53V5.625H51.125V3.75Z" fill="#A9336C"/>
<path d="M47.375 3.75H49.25V5.625H47.375V3.75Z" fill="#A9336C"/>
<path d="M49.25 5.625H51.125V7.5H49.25V5.625Z" fill="#A9336C"/>
<path d="M4.25 23.4375H6.125V25.3125H4.25V23.4375Z" fill="#A9336C"/>
<path d="M6.125 25.3125H8V27.1875H6.125V25.3125Z" fill="#A9336C"/>
<path d="M2.375 25.3125H4.25V27.1875H2.375V25.3125Z" fill="#A9336C"/>
<path d="M4.25 27.1875H6.125V29.0625H4.25V27.1875Z" fill="#A9336C"/>
<path d="M54.875 11.25H56.75V13.125H54.875V11.25Z" fill="#A9336C"/>
<path d="M56.75 13.125H58.625V15H56.75V13.125Z" fill="#A9336C"/>
<path d="M53 13.125H54.875V15H53V13.125Z" fill="#A9336C"/>
<path d="M54.875 15H56.75V16.875H54.875V15Z" fill="#A9336C"/>
</svg>
