<svg width="61" height="60" viewBox="0 0 61 60" fill="none" xmlns="http://www.w3.org/2000/svg">
<g clip-path="url(#clip0)">
<path d="M53.439 7.0419C48.7724 2.37526 42.5685 -0.124702 35.9699 0.00478974C33.1135 0.0604538 30.7165 2.05381 30.141 4.85213L26.2647 23.6982L2.08807 47.8746C-0.00396478 49.9667 -0.00396478 53.371 2.08807 55.4633L5.05326 58.4284C6.0667 59.4418 7.41424 60 8.84756 60C10.2809 60 11.6284 59.4418 12.6419 58.4284L36.3256 34.7447C36.3617 34.7401 36.3976 34.7347 36.4334 34.7266L55.7352 30.3894C58.4711 29.7745 60.42 27.3872 60.4746 24.5839L60.476 24.511C60.6049 17.9127 58.1057 11.7087 53.439 7.0419ZM10.9855 56.7721C10.4145 57.3431 9.65522 57.6576 8.84756 57.6576C8.0399 57.6576 7.28076 57.3431 6.70971 56.7721L5.89021 55.9526L10.3019 51.541C10.7592 51.0837 10.7594 50.3421 10.3019 49.8846C9.84435 49.4274 9.10291 49.4274 8.64553 49.8846L4.23389 54.2962L3.74439 53.8067C2.56549 52.628 2.56549 50.7097 3.74439 49.5308L16.5777 36.6975L23.8188 43.9385L10.9855 56.7721ZM25.4752 42.2824L18.2342 35.0414L27.1061 26.1695L34.3471 33.4105L25.4752 42.2824ZM58.1343 24.4652L58.1329 24.5381C58.0992 26.2601 56.9022 27.7265 55.2218 28.1041L36.549 32.3L35.5922 31.3432L43.6132 27.8764C44.207 27.6198 44.4803 26.9305 44.2237 26.3368C43.967 25.7431 43.2777 25.4696 42.684 25.7264L33.8105 29.5617L33.2234 28.9746L37.7115 24.4863C38.1689 24.0289 38.1689 23.2874 37.7115 22.83C37.2542 22.3726 36.5126 22.3726 36.0552 22.83L31.5671 27.3181L31.0048 26.7559L34.8401 17.8823C35.0967 17.2887 34.8235 16.5992 34.2297 16.3427C33.636 16.0858 32.9466 16.3594 32.6901 16.9531L29.2233 24.9742L28.5352 24.286L32.4353 5.32416C32.7888 3.60538 34.2611 2.381 36.0156 2.34678C41.9746 2.23018 47.5708 4.48639 51.7828 8.69834C55.9948 12.9102 58.2505 18.5099 58.1343 24.4652Z" fill="#891C7E"/>
<path d="M40.8344 19.7064C40.6166 19.4887 40.3156 19.3633 40.0064 19.3633C39.6984 19.3633 39.3962 19.4886 39.1783 19.7064C38.9605 19.9243 38.8352 20.2264 38.8352 20.5345C38.8352 20.8424 38.9605 21.1446 39.1783 21.3625C39.3962 21.5804 39.6983 21.7056 40.0064 21.7056C40.3143 21.7056 40.6166 21.5804 40.8344 21.3625C41.0523 21.1446 41.1775 20.8425 41.1775 20.5345C41.1775 20.2264 41.0523 19.9243 40.8344 19.7064Z" fill="#891C7E"/>
<path d="M13.3469 46.8393C13.129 46.6215 12.8269 46.4961 12.5188 46.4961C12.2109 46.4961 11.9086 46.6214 11.6908 46.8393C11.4729 47.0571 11.3477 47.3592 11.3477 47.6673C11.3477 47.9765 11.4729 48.2775 11.6908 48.4965C11.9086 48.7143 12.2107 48.8396 12.5188 48.8396C12.8268 48.8396 13.129 48.7145 13.3469 48.4965C13.5647 48.2775 13.69 47.9766 13.69 47.6673C13.69 47.3592 13.5647 47.057 13.3469 46.8393Z" fill="#891C7E"/>
</g>
<defs>
<clipPath id="clip0">
<rect width="60" height="60" fill="white" transform="translate(0.5)"/>
</clipPath>
</defs>
</svg>
