<svg width="61" height="60" viewBox="0 0 61 60" fill="none" xmlns="http://www.w3.org/2000/svg">
<g clip-path="url(#clip0)">
<path d="M20.8105 26.9331C20.6786 26.5273 20.3364 26.2252 19.9173 26.1445L17.1013 25.6031L15.7166 23.089C15.5106 22.7148 15.1173 22.4824 14.6902 22.4824C14.2632 22.4824 13.8698 22.7149 13.6637 23.089L12.2791 25.6031L9.46305 26.1445C9.04398 26.2252 8.70179 26.5273 8.56984 26.9331C8.43801 27.3389 8.53703 27.7845 8.82859 28.0961L10.7896 30.192L10.4336 33.0416C10.3806 33.4652 10.5624 33.8842 10.9079 34.1351C11.2533 34.3861 11.708 34.4291 12.0945 34.2476L14.6903 33.0288L17.286 34.2476C17.4447 34.322 17.6147 34.3587 17.7841 34.3587C18.0273 34.3587 18.2691 34.283 18.4728 34.1351C18.8182 33.8843 19 33.4652 18.947 33.0416L18.591 30.192L20.552 28.0961C20.8434 27.7846 20.9425 27.339 20.8105 26.9331ZM16.5041 28.9916C16.2664 29.2457 16.1539 29.5922 16.197 29.9374L16.3575 31.2223L15.1884 30.6732C14.8728 30.5252 14.5077 30.5251 14.1921 30.6732L13.0229 31.2223L13.1834 29.9374C13.2265 29.5922 13.1139 29.2457 12.8762 28.9916L11.9909 28.0454L13.2614 27.8011C13.6035 27.7354 13.8986 27.5208 14.0666 27.2156L14.6902 26.0836L15.3136 27.2156C15.4817 27.5207 15.7768 27.7354 16.1188 27.8011L17.3895 28.0454L16.5041 28.9916Z" fill="#A9336C"/>
<path d="M33.1294 5.64695C32.9975 5.24113 32.6553 4.93902 32.2362 4.8584L29.4202 4.31699L28.0355 1.80285C27.8295 1.42867 27.4362 1.19629 27.0091 1.19629C26.582 1.19629 26.1886 1.42879 25.9826 1.80285L24.5977 4.31687L21.7817 4.85828C21.3626 4.93891 21.0204 5.24102 20.8885 5.64684C20.7565 6.05266 20.8557 6.4982 21.1472 6.8098L23.1083 8.9057L22.7522 11.7554C22.6993 12.179 22.881 12.5979 23.2265 12.8488C23.4302 12.9967 23.6718 13.0724 23.9151 13.0724C24.0844 13.0724 24.2545 13.0357 24.4133 12.9613L27.0091 11.7426L29.6048 12.9613C29.9913 13.1429 30.4459 13.0998 30.7914 12.8488C31.1369 12.5979 31.3186 12.179 31.2657 11.7554L30.9097 8.9057L32.8707 6.8098C33.1622 6.49832 33.2613 6.05277 33.1294 5.64695ZM28.8228 7.70547C28.585 7.95953 28.4725 8.30606 28.5156 8.65129L28.6762 9.93613L27.507 9.38711C27.1915 9.23899 26.8264 9.23899 26.5108 9.38711L25.3415 9.93613L25.502 8.65129C25.5452 8.30606 25.4326 7.95953 25.1949 7.70547L24.3095 6.7593L25.5801 6.51496C25.9222 6.44922 26.2172 6.23465 26.3853 5.92949L27.0088 4.79746L27.6323 5.92949C27.8003 6.23453 28.0954 6.4491 28.4375 6.51496L29.7081 6.7593L28.8228 7.70547Z" fill="#A9336C"/>
<path d="M60.4814 19.8619C60.4814 11.0608 55.9958 6.32655 55.805 6.12944L55.2134 5.51807C54.866 5.15913 54.3291 5.05975 53.8761 5.27092L53.1054 5.63022C42.8292 10.4204 38.1835 14.0534 33.9867 20.5812C33.0384 22.0564 32.1801 23.7671 31.2714 25.5783C28.4402 31.2217 25.5125 37.0573 19.44 37.0573C18.7088 37.0573 17.9204 37.031 17.078 37.003C16.1618 36.972 15.2143 36.9401 14.2357 36.9401C11.9082 36.9401 9.75605 37.0724 6.98504 38.699C3.71844 40.6162 1.6659 43.842 0.880859 48.2901C0.828008 48.406 0.5 52.0158 0.5 53.0439V53.8696C0.5 54.3563 0.800938 54.7925 1.25598 54.9653C1.25598 54.9653 11.4431 58.8032 20.4151 58.8032C25.9802 58.8032 29.2896 58.0654 31.8378 56.2565C34.4471 54.4042 35.995 51.6689 37.9389 47.2693C39.3356 44.1069 40.2403 41.407 41.0383 39.0249C42.1602 35.6769 42.975 33.2452 44.4938 31.509C46.5099 35.4631 47.0012 51.0843 47.0469 52.0509C47.1706 54.6712 47.1743 56.4185 47.1743 56.4355L47.1744 57.6314C47.1745 58.2785 47.6991 58.8031 48.3462 58.8031H53.3959C54.0232 58.8031 54.5393 58.3092 54.5666 57.6823L54.6166 56.5386C54.6826 55.0297 54.7718 53.5311 54.8814 52.0842C55.6621 41.7917 57.4154 35.0448 58.6955 30.1177C59.032 28.8229 59.8722 25.3071 59.8722 25.3071C60.1147 24.1585 60.2652 23.2365 60.3601 22.3171L60.4961 20.9983C60.5098 20.8672 60.4814 20.1201 60.4814 19.8619ZM52.2751 56.4364L52.274 56.4594H49.518V56.4353C49.518 56.4207 49.5155 55.1542 49.4402 53.1676H52.4547C52.3834 54.2417 52.3231 55.3365 52.2751 56.4364ZM56.427 29.5293C55.17 34.3668 53.4646 40.9297 52.6312 50.8237H49.3418C49.3179 50.1782 49.2963 49.4932 49.2739 48.7833C49.0804 42.6314 48.8202 34.3559 46.3147 29.9586C49.5764 27.7659 52.9947 27.2295 57.0275 27.1886C56.8393 27.9425 56.6368 28.7221 56.427 29.5293ZM20.4147 53.6152C24.8075 53.6152 27.2484 53.1543 28.8403 52.0245C30.4709 50.8669 31.6304 48.7228 33.1994 45.1709C33.9796 43.404 34.6668 41.7847 35.3313 40.2187C38.2057 33.4444 40.1046 28.9693 43.8458 26.2034C48.1903 22.992 51.4092 22.2332 55.1937 22.0502H58.0311L58.0284 22.0768C57.9423 22.911 57.8036 23.7582 57.5789 24.8232L57.5749 24.8421H57.5566C52.58 24.8421 48.4259 25.4628 44.328 28.4921C41.3602 30.6864 40.293 33.8716 38.8159 38.2802C38.0339 40.614 37.1476 43.2591 35.7949 46.3222C34.0202 50.3388 32.6478 52.8071 30.4809 54.3453C28.3655 55.8468 25.4493 56.4595 20.4148 56.4595C11.8681 56.4595 4.91457 53.902 2.98695 53.118C2.92402 53.0924 2.88102 53.0752 2.85887 53.0667L2.84375 53.061V53.0439C2.84375 52.0928 2.88734 51.1707 2.97324 50.3034L2.97594 50.2755L3.00172 50.2826C4.33578 50.6504 5.27293 50.9069 5.7152 51.0258C5.90961 51.0853 7.2916 51.5033 9.29246 51.9915C10.1679 52.2051 11.0413 52.4023 11.888 52.5779C12.5216 52.709 13.142 52.3019 13.2733 51.6682C13.4047 51.0344 12.9973 50.4142 12.3636 50.2828C11.5434 50.1128 10.697 49.9216 9.84805 49.7144C7.80582 49.2161 6.39852 48.7838 6.38445 48.7795C6.37074 48.7753 6.35668 48.7713 6.34285 48.7674C5.9143 48.6523 4.97434 48.395 3.62445 48.0229L3.33746 47.9438C4.08137 44.558 5.66891 42.189 8.17109 40.7203C10.252 39.4989 11.7845 39.284 14.2352 39.284C15.1743 39.284 16.1019 39.3153 17.0071 39.3458C17.8619 39.3742 18.6695 39.4012 19.4395 39.4012C22.8334 39.4012 25.7111 37.987 28.2375 35.0773C30.346 32.6489 31.8813 29.5887 33.3661 26.6293C34.2459 24.8755 35.0771 23.2189 35.9579 21.8489C39.9254 15.6774 44.1632 12.3843 54.0953 7.75448L54.1094 7.74791L54.1207 7.75952C54.2836 7.9278 58.0864 11.945 58.1367 19.7063H55.1669C55.1483 19.7063 55.1298 19.7068 55.1111 19.7077L55.0814 19.7091C50.9752 19.9078 47.2562 20.7677 42.4525 24.3189C38.1966 27.4649 36.0897 32.4307 33.1736 39.3032C32.5125 40.8616 31.8289 42.4728 31.0555 44.2239C29.6885 47.3184 28.6655 49.2741 27.4835 50.1133C26.3552 50.9142 24.175 51.2714 20.4147 51.2714C19.7675 51.2714 19.2429 51.7961 19.2429 52.4432C19.2429 53.0903 19.7675 53.6152 20.4147 53.6152Z" fill="#A9336C"/>
<path d="M17.187 51.8814C17.1718 51.8075 17.1495 51.7337 17.1202 51.6622C17.0909 51.5919 17.0546 51.5239 17.0124 51.4607C16.9702 51.3961 16.921 51.3363 16.8671 51.2824C16.8132 51.2285 16.7534 51.1793 16.689 51.1359C16.6257 51.0939 16.5577 51.0574 16.4862 51.0281C16.4159 50.9988 16.3421 50.9767 16.2671 50.9613C16.1159 50.9309 15.9601 50.9309 15.8089 50.9613C15.7351 50.9767 15.6612 50.9988 15.5897 51.0281C15.5194 51.0574 15.4515 51.0939 15.3882 51.1359C15.3237 51.1793 15.264 51.2285 15.2089 51.2824C15.155 51.3364 15.1069 51.3961 15.0636 51.4607C15.0214 51.5239 14.9851 51.5919 14.9558 51.6622C14.9265 51.7337 14.9042 51.8075 14.889 51.8814C14.8737 51.9575 14.8667 52.0349 14.8667 52.1111C14.8667 52.1871 14.8737 52.2644 14.889 52.3396C14.9042 52.4146 14.9265 52.4883 14.9558 52.5587C14.9851 52.6301 15.0214 52.698 15.0636 52.7613C15.1069 52.8258 15.155 52.8857 15.2089 52.9396C15.264 52.9935 15.3237 53.0427 15.3882 53.0848C15.4515 53.1269 15.5194 53.1633 15.5897 53.1926C15.6612 53.2219 15.7351 53.2441 15.8089 53.2594C15.8851 53.2746 15.9624 53.2828 16.0386 53.2828C16.1147 53.2828 16.1921 53.2746 16.2671 53.2594C16.3421 53.2441 16.4159 53.2219 16.4862 53.1926C16.5577 53.1633 16.6257 53.1269 16.689 53.0848C16.7534 53.0427 16.8132 52.9935 16.8671 52.9396C16.921 52.8857 16.9702 52.8258 17.0124 52.7613C17.0546 52.698 17.0909 52.6301 17.1202 52.5587C17.1495 52.4884 17.1718 52.4146 17.187 52.3396C17.2022 52.2646 17.2104 52.1871 17.2104 52.1111C17.2104 52.0349 17.2022 51.9574 17.187 51.8814Z" fill="#A9336C"/>
<path d="M27.0179 19.1469H26.3965V18.5234C26.3965 17.8763 25.8718 17.3516 25.2246 17.3516C24.5774 17.3516 24.0527 17.8763 24.0527 18.5234V19.1469H23.4312C22.7839 19.1469 22.2593 19.6716 22.2593 20.3188C22.2593 20.966 22.7839 21.4906 23.4312 21.4906H24.0527V22.1141C24.0527 22.7612 24.5774 23.2859 25.2246 23.2859C25.8718 23.2859 26.3965 22.7612 26.3965 22.1141V21.4906H27.0179C27.6651 21.4906 28.1898 20.966 28.1898 20.3188C28.1898 19.6715 27.6653 19.1469 27.0179 19.1469Z" fill="#A9336C"/>
<path d="M42.2524 5.5043H41.6308V4.88086C41.6308 4.23375 41.1062 3.70898 40.459 3.70898C39.8117 3.70898 39.2871 4.23375 39.2871 4.88086V5.5043H38.6655C38.0183 5.5043 37.4937 6.02895 37.4937 6.67617C37.4937 7.32328 38.0183 7.84805 38.6655 7.84805H39.2871V8.47148C39.2871 9.11859 39.8117 9.64336 40.459 9.64336C41.1062 9.64336 41.6308 9.11859 41.6308 8.47148V7.84805H42.2524C42.8996 7.84805 43.4243 7.32328 43.4243 6.67617C43.4243 6.02895 42.8996 5.5043 42.2524 5.5043Z" fill="#A9336C"/>
</g>
<defs>
<clipPath id="clip0">
<rect width="60" height="60" fill="white" transform="translate(0.5)"/>
</clipPath>
</defs>
</svg>
