<svg width="61" height="60" viewBox="0 0 61 60" fill="none" xmlns="http://www.w3.org/2000/svg">
<g clip-path="url(#clip0)">
<path d="M57.0799 29.5816L47.6073 20.8153V18.9835C47.6073 17.6046 46.8094 16.4085 45.651 15.8327L49.7766 4.96104C49.9422 4.52459 49.833 4.03153 49.4987 3.70583C49.1645 3.38013 48.6688 3.28415 48.2367 3.46053L38.454 7.46584L31.3287 0.340436C30.8923 -0.113479 30.1076 -0.113479 29.6712 0.340436L22.5459 7.46584L12.7632 3.46053C12.3312 3.28391 11.8354 3.3799 11.5012 3.70583C11.1669 4.03153 11.0577 4.52459 11.2233 4.96104L15.3488 15.8329C14.1905 16.4087 13.3926 17.6047 13.3926 18.9837V20.8154L3.91992 29.5817C3.44795 30.0185 3.41607 30.7539 3.84842 31.2299L29.6324 59.6195C30.0729 60.1269 30.927 60.1269 31.3675 59.6195L43.631 46.1167L44.9072 48.3044C45.1166 48.6635 45.5008 48.8847 45.9166 48.8858H45.9194C46.3341 48.8858 46.718 48.6666 46.9289 48.3093L48.97 44.8494L52.37 42.8662C53.1362 42.4366 53.1388 41.2775 52.3749 40.8444L49.7993 39.325L57.1514 31.2299C57.5837 30.7538 57.552 30.0183 57.0799 29.5816ZM46.9317 35.4034C46.7222 35.0441 46.3382 34.8229 45.9222 34.8218H45.9194C45.5048 34.8218 45.1208 35.041 44.91 35.3983L42.8687 38.8583L39.469 40.8414C38.7026 41.2708 38.6999 42.43 39.4639 42.8631L42.0394 44.3826L32.9697 54.369L39.356 31.6138H53.6362L48.2078 37.5909L46.9317 35.4034ZM16.8931 17.8118C16.9059 17.8119 16.9187 17.8118 16.9314 17.8115H44.0634C44.0779 17.8119 44.0923 17.812 44.1067 17.8118C44.7458 17.8201 45.2633 18.3426 45.2633 18.9835V20.1555H15.7366V18.9835C15.7366 18.3425 16.254 17.82 16.8931 17.8118ZM27.5403 29.2698L25.9392 28.3253L30.5 23.1083L35.8863 29.2698H27.5403ZM23.6989 31.139C23.5258 31.2398 23.3817 31.3834 23.2799 31.5559L22.5381 32.8135L21.8351 31.6084C21.7343 31.4353 21.5907 31.2912 21.4182 31.1894L20.1607 30.4476L21.3657 29.7446C21.5388 29.6438 21.683 29.5002 21.7847 29.3277L22.5266 28.0702L23.2295 29.2752C23.3303 29.4483 23.4739 29.5925 23.6464 29.6942L24.904 30.4361L23.6989 31.139ZM24.3632 26.5666L23.5447 25.1632C23.3352 24.804 22.9511 24.5828 22.5352 24.5817H22.5324C22.1178 24.5817 21.7338 24.8009 21.523 25.1582L20.6959 26.5602L17.146 22.4995H27.9188L24.3632 26.5666ZM33.0814 22.4995H43.854L38.4675 28.661L33.0814 22.4995ZM14.4758 23.0067L19.1326 28.3335L17.5275 29.2698H7.70793L14.4758 23.0067ZM17.5242 31.6138L19.9641 33.0531L21.5198 35.7203C21.7293 36.0795 22.1134 36.3008 22.5293 36.3018H22.5321C22.6731 36.3018 22.8105 36.2764 22.939 36.2289L23.938 39.7887C24.1108 40.4173 24.7768 40.7759 25.3831 40.6005C26.0062 40.4256 26.3697 39.7785 26.1948 39.1554L24.6871 33.7834L25.1434 33.01L27.5367 31.6139H36.9211L30.4996 54.4943L29.0456 49.3133C28.8707 48.6903 28.2241 48.3262 27.6005 48.5016C26.9773 48.6765 26.6139 49.3235 26.7888 49.9467L28.0299 54.3692L7.36372 31.6138H17.5242ZM41.0488 29.2698L46.5242 23.0067L53.292 29.2698H41.0488ZM22.3792 9.93055C22.8164 10.1094 23.318 10.0085 23.652 9.67458L30.4999 2.8266L37.3479 9.67458C37.682 10.0085 38.184 10.1094 38.6207 9.93055L46.6277 6.65223L43.2824 15.4675H17.7174L14.3723 6.65212L22.3792 9.93055ZM47.5252 42.9785C47.3522 43.0792 47.208 43.2228 47.1063 43.3953L45.9252 45.3976L44.8647 43.5797C44.8557 43.5634 44.8463 43.5472 44.8365 43.5313L44.7948 43.4597C44.694 43.2867 44.5504 43.1425 44.3779 43.0409L42.3757 41.8595L44.3134 40.7292C44.4865 40.6284 44.6307 40.4848 44.7324 40.3123L45.9137 38.31L46.974 40.1277C46.983 40.1441 46.9925 40.1603 47.0023 40.1763L47.0441 40.2478C47.1449 40.4209 47.2884 40.5651 47.461 40.6668L49.4632 41.8479L47.5252 42.9785Z" fill="#891C7E"/>
<path d="M30.4999 13.8849C32.4386 13.8849 34.0159 12.3076 34.0159 10.3689C33.8227 5.70446 27.1763 5.70586 26.9839 10.3689C26.9839 12.3076 28.5612 13.8849 30.4999 13.8849ZM30.4999 9.1969C31.1461 9.1969 31.6719 9.72266 31.6719 10.3689C31.6074 11.9237 29.3921 11.9232 29.3279 10.3689C29.3279 9.72266 29.8538 9.1969 30.4999 9.1969Z" fill="#891C7E"/>
<path d="M27.664 44.5509C27.664 43.9037 27.1392 43.3789 26.492 43.3789H26.4911C25.8439 43.3789 25.3196 43.9037 25.3196 44.5509C25.3816 46.1055 27.6025 46.1052 27.664 44.5509Z" fill="#891C7E"/>
</g>
<defs>
<clipPath id="clip0">
<rect width="60" height="60" fill="white" transform="translate(0.5)"/>
</clipPath>
</defs>
</svg>
