<svg width="164" height="35" viewBox="0 0 164 35" fill="none" xmlns="http://www.w3.org/2000/svg">
<path d="M155.284 24.3247C153.428 23.8478 151.646 23.9946 149.975 24.5082C151.72 21.8302 152.5 18.7121 151.572 15.3371C150.124 9.94459 145.781 5.28572 140.881 2.64447C131.154 -2.60135 116.454 0.406742 111.962 11.2652C109.252 17.8317 114.412 23.9579 120.76 25.5353C126.366 26.9293 134.792 25.0584 134.458 17.8684C134.384 16.5844 132.38 16.5844 132.454 17.8684C132.862 26.0122 120.723 24.765 116.454 21.28C113.93 19.189 112.519 15.814 113.559 12.6592C114.487 9.76117 116.862 7.22997 119.35 5.50582C129.261 -1.42747 143.442 2.57109 148.676 13.3195C150.198 16.4744 150.495 19.7759 148.713 22.8574C147.191 25.4619 144.741 27.5163 142.18 29.0203C136.834 32.1751 130.561 33.0189 124.435 32.6887C117.79 32.2852 110.626 30.7078 104.686 27.6263C106.728 27.6263 108.696 27.076 109.661 25.4253C110.44 24.1046 110.403 22.8941 109.475 21.6835C108.324 20.1061 106.468 19.8493 104.649 19.7759C103.35 19.7026 103.35 21.6835 104.649 21.7569C105.726 21.7935 107.693 21.9036 108.102 23.1875C108.51 24.4348 107.211 25.2419 106.134 25.462C104.092 25.8288 101.939 25.4619 100.009 24.8016C99.8975 24.7649 99.749 24.7283 99.6377 24.7283C96.2595 22.7473 92.6587 21.0599 88.6495 22.0137C86.4964 22.5272 84.4175 23.9579 84.0834 26.2323C83.7864 28.2499 84.7145 30.8178 86.2736 32.1751C89.9116 35.4033 95.3315 35.44 98.9695 32.3586C99.9346 31.5148 98.524 30.1208 97.5588 30.9646C95.0345 33.0922 91.8049 33.2023 88.9464 31.6249C86.5335 30.3043 84.5289 26.4891 87.4616 24.5815C90.5056 22.6373 95.1459 24.2881 97.9672 25.9389C100.863 27.6263 103.535 29.4972 106.654 30.7445C118.422 35.44 134.124 37.4209 145.001 29.5706C145.187 29.4605 145.335 29.3138 145.484 29.2037C145.558 29.167 145.632 29.1304 145.669 29.0937C148.713 26.7092 153.131 24.6549 156.695 27.2595C158.365 28.47 160.036 31.1113 157.586 32.5053C156.62 33.0555 155.358 33.239 154.282 32.8721C153.613 32.6153 151.386 31.0013 152.797 30.1575C153.91 29.4972 152.908 27.8097 151.794 28.4334C148.973 30.0841 150.941 33.5325 153.279 34.5596C155.915 35.7335 160.295 34.5229 160.852 31.3681C161.446 28.0665 158.217 25.0584 155.284 24.3247Z" fill="#FFE0EF"/>
<path d="M161.632 19.4432C163.117 18.4894 164.193 17.2787 163.971 15.7745C163.674 13.9769 161.001 13.9769 159.664 14.3071C158.848 14.5272 158.142 14.8941 157.511 15.4077C157.474 15.371 157.474 15.2976 157.437 15.2609C156.954 14.4905 156.175 14.2337 155.358 14.7106C152.871 16.1781 154.059 19.7734 153.354 22.0113C153.019 23.0752 154.467 23.6256 155.098 22.8918C156.249 22.3415 157.289 23.5155 158.402 23.6989C159.219 23.8457 160.221 23.7356 161.001 23.5155C162.226 23.1853 163.674 22.0847 163.117 20.6539C162.894 20.1036 162.337 19.7 161.632 19.4432ZM159.553 16.4716C159.924 16.2882 161.298 15.8112 161.706 16.1781C162.152 16.6183 161.149 17.2053 160.815 17.4621C159.961 18.1225 158.959 18.6361 157.92 19.003C157.14 19.0764 156.398 19.2598 155.655 19.5166C155.655 19.2965 155.655 19.0764 155.655 18.8196C156.101 19.1864 156.88 19.1864 157.251 18.6361C157.845 17.7556 158.551 16.9118 159.553 16.4716ZM159.998 21.7545C158.959 21.9013 158.328 21.5711 157.586 21.2042C157.808 21.1308 158.068 21.0575 158.328 20.9841C159.033 20.9107 159.739 20.9841 160.407 21.1675C161.669 21.5344 160.889 21.6078 159.998 21.7545Z" fill="#FFE0EF"/>
<path d="M78.1439 23.2584C74.1347 20.03 68.1951 22.2679 64.2231 24.6525C64.1488 24.6525 64.0374 24.6892 63.9632 24.7258C62.0328 25.4229 59.8797 25.7897 57.838 25.3862C56.91 25.2028 55.5736 24.5424 55.8334 23.4051C56.1675 21.901 58.0979 21.7542 59.3229 21.6809C60.6222 21.6075 60.6222 19.6265 59.3229 19.6998C57.541 19.7732 55.7592 20.03 54.5713 21.5341C53.6061 22.7815 53.5318 24.0288 54.3114 25.3862C55.2766 27.0371 57.1698 27.5874 59.1744 27.5874C54.7569 29.7519 50.0423 31.1826 45.1422 32.0264C38.8685 33.127 32.2236 33.2003 26.1727 31.0359C24.0939 30.3021 21.7923 29.1649 19.7877 27.6974C19.7505 27.6607 19.7505 27.6607 19.7134 27.624C19.4536 27.4039 19.1566 27.2205 18.8967 27.0004C16.1497 24.7625 14.108 21.8643 14.0337 18.4525C13.8852 12.6194 19.0823 7.15315 23.8711 4.47506C29.0311 1.61354 35.1563 1.17329 40.6504 3.33778C46.5528 5.68569 53.7546 12.546 49.4855 19.1862C47.3695 22.4513 43.2118 23.9921 39.3882 24.0655C35.6389 24.1388 31.3698 22.1211 31.5926 17.8655C31.6668 16.5815 29.6622 16.5815 29.588 17.8655C29.291 23.9921 35.8245 26.5602 41.0587 25.9365C46.6271 25.2761 52.2326 21.6442 52.7894 15.7377C53.3091 10.0881 48.2976 5.06204 43.6202 2.56738C38.6087 -0.110716 32.5949 -0.771076 27.1379 0.953175C21.8665 2.60405 17.1891 6.236 14.3678 10.9685C11.6208 15.5176 11.3609 20.2868 14.0337 24.5057C12.4746 24.0288 10.8041 23.882 9.05933 24.2489C5.97818 24.9093 2.60005 27.9909 3.15688 31.3294C3.67659 34.411 7.83429 35.6216 10.47 34.6311C12.92 33.714 15.1103 30.1187 12.1776 28.3945C11.0639 27.7341 10.0616 29.4583 11.1753 30.1187C12.5859 30.9625 10.3586 32.5767 9.6904 32.8335C8.61386 33.237 7.3517 33.0169 6.38652 32.4666C3.89933 31.0725 5.56983 28.4311 7.27745 27.2205C10.6927 24.7625 14.8504 26.4868 17.8573 28.7246C26.9894 36.3554 40.9103 35.6583 51.7871 32.5767C55.5736 31.5128 59.1744 30.1187 62.5526 28.1377C66.042 26.0832 69.68 23.3318 74.0233 23.772C76.1393 23.9921 78.3666 25.3128 77.9212 27.7341C77.6613 29.0915 77.0302 30.3388 75.8795 31.1459C72.9839 33.1637 69.2346 33.3104 66.4504 30.9625C65.4852 30.1554 64.0374 31.5495 65.0397 32.3566C68.455 35.2548 72.9839 35.3648 76.7333 32.9435C79.8144 30.8524 81.3736 25.8631 78.1439 23.2584Z" fill="#FFE0EF"/>
<path d="M5.57002 23.7381C6.68369 23.5547 7.72311 22.3438 8.8739 22.9309C9.50498 23.6647 10.9528 23.1143 10.6187 22.0502C9.91333 19.812 11.0641 16.2161 8.61405 14.7484C7.90872 14.3448 7.12916 14.4549 6.64657 15.1153C6.57232 15.2254 6.49808 15.2988 6.46095 15.4089C5.82987 14.9319 5.12455 14.5282 4.34498 14.3448C2.97146 13.9778 0.372896 14.0145 0.0387948 15.8125C-0.221061 17.3169 0.855487 18.5644 2.34038 19.4818C1.67218 19.7386 1.07822 20.1422 0.855487 20.7293C0.298653 22.1603 1.74642 23.2978 2.97146 23.5913C3.78815 23.7748 4.75333 23.8849 5.57002 23.7381ZM2.22901 16.2895C2.45175 15.7758 3.75102 16.1794 4.12225 16.3262C5.27304 16.7298 6.08973 17.6104 6.72081 18.6378C7.09203 19.1882 7.8716 19.1882 8.31707 18.8213C8.31707 19.0414 8.31707 19.2616 8.31707 19.4818C7.61175 19.2249 6.83218 19.0415 6.05261 18.9681C5.01319 18.6011 4.01088 18.0874 3.15707 17.427C2.86009 17.2435 2.0434 16.6931 2.22901 16.2895ZM4.01088 21.7567C3.3798 21.6466 1.93203 21.6833 3.60254 21.2063C4.27074 21.0229 4.93894 20.9495 5.64426 20.9862H5.68139C5.94124 21.0596 6.2011 21.1696 6.46095 21.243C5.71851 21.5366 5.08743 21.9035 4.01088 21.7567Z" fill="#FFE0EF"/>
<path d="M89.355 15.5937C89.1694 14.3832 88.2413 13.3194 87.0163 13.0993C86.3481 12.9893 85.7912 13.136 85.3086 13.4294C84.7518 10.9718 83.2669 8.47745 80.4827 9.24776C78.4039 9.83467 77.5872 12.4024 77.4387 14.6033C75.9167 14.2364 74.3947 14.9334 74.2833 17.0242C74.172 19.8487 78.5524 22.233 80.5941 23.3701C80.9653 23.5902 81.3366 23.5168 81.5964 23.3334C81.8192 23.3701 82.0419 23.3701 82.2646 23.2234C84.9374 21.7561 89.9489 19.3718 89.355 15.5937ZM87.3133 16.8408C87.1648 17.6111 86.2367 18.3081 85.4943 18.8216C85.4571 18.6749 85.3829 18.4915 85.2344 18.3814C84.8632 18.0146 84.1579 17.9779 83.8238 18.3814C83.4525 18.8583 83.0442 19.2985 82.6358 19.7387C82.376 17.9779 82.6358 16.2172 82.5987 14.4198C82.5987 13.136 80.5941 13.136 80.5941 14.4198C80.6312 15.9605 80.4456 17.4644 80.557 19.005C80.4085 18.7849 80.26 18.5282 80.0744 18.3081C79.3691 17.2443 77.6615 18.2347 78.3297 19.2985C78.441 19.4819 78.5524 19.6653 78.7009 19.8854C78.4782 19.702 78.2183 19.5186 77.9956 19.3352C77.5501 18.9684 76.919 18.5282 76.6592 18.0146C76.2879 17.281 76.1394 15.557 77.6986 17.0242C78.4781 17.7579 79.5176 16.9875 79.3691 16.0705C79.1835 14.86 79.4433 13.2827 80.1115 12.219C81.0767 10.6783 82.673 11.9622 83.1184 13.0993C83.4897 14.053 83.5268 15.0067 83.4897 15.9971C83.4525 16.9875 84.8632 17.3177 85.3458 16.5107C85.9769 15.3369 87.6102 15.5203 87.3133 16.8408Z" fill="#FFE0EF"/>
</svg>
