<svg width="200" height="20" viewBox="0 0 200 20" fill="none" xmlns="http://www.w3.org/2000/svg">
<path d="M198.247 14.5534C197.551 15.778 196.558 16.6257 195.366 17.2223C196.359 15.8722 197.055 13.8627 196.161 12.3555C195.233 10.7856 192.617 10.4088 190.994 11.131C189.107 11.9474 189.206 13.8941 190.299 15.2756C190.961 16.1548 192.518 15.307 191.855 14.4278C190.597 12.8265 192.617 12.1985 193.842 12.7009C195.233 13.2347 194.77 14.8046 194.24 15.778C193.379 17.3793 191.756 18.1643 189.935 18.3213C189.901 18.3213 189.901 18.3213 189.868 18.3213C188.842 18.2899 187.782 18.1643 186.855 17.9445C183.576 17.1909 180.596 15.6524 177.714 13.9883C183.874 13.2033 189.206 10.1262 193.114 5.57344C193.842 4.72568 192.584 3.53254 191.855 4.3803C187.948 8.90169 182.616 11.9788 176.423 12.4497C175.992 12.4811 175.562 12.5125 175.098 12.5125C174.933 12.4811 174.8 12.4811 174.668 12.5125C172.581 12.5439 170.528 12.3241 168.442 11.9788C168.574 10.6914 168.409 9.40407 167.879 8.27372C167.68 7.83414 167.448 7.45736 167.183 7.11197C169.203 7.70855 171.19 8.24232 173.144 8.39931C176.588 8.7133 180.529 9.05868 182.98 6.29561C184.238 4.85127 185.464 1.55442 183.377 0.172884C182.417 -0.455087 181.523 1.02065 182.483 1.64862C182.715 1.80561 182.682 2.74757 182.682 2.99876C182.616 3.90932 182.053 4.78848 181.424 5.44785C179.999 6.86078 178.211 6.86078 176.29 6.86078C172.25 6.79799 168.673 5.85603 164.865 4.66288C159.169 2.87316 153.307 2.21379 148.737 6.5154C143.67 4.94547 138.603 3.37554 133.47 2.151C127.774 0.769458 121.714 0.235682 116.183 2.52778C112.54 4.06631 109.56 6.5468 107.242 9.52966C105.884 11.131 104.857 13.1405 103.831 14.7418C103.499 15.2442 103.831 15.7466 104.294 15.935C104.692 16.249 105.288 16.3118 105.586 15.7152C106.083 14.6162 106.679 13.5487 107.308 12.5439C107.871 11.6962 108.434 10.8484 109.096 10.0948C110.553 8.43071 112.706 7.99113 114.892 8.02253C117.144 8.05393 119.296 8.6191 121.383 9.37267C121.449 9.40407 121.515 9.46686 121.614 9.49826C124.661 10.4402 126.251 13.7685 128.635 15.621C130.92 17.4107 133.868 18.6039 136.749 17.3793C137.742 16.9711 138.636 16.249 139.299 15.4012C141.716 15.2756 143.902 14.3336 145.558 11.9788C146.187 11.0682 144.664 10.2204 144.001 11.131C143.008 12.5439 141.683 13.2975 140.259 13.5801C140.524 12.7323 140.557 11.8218 140.259 10.9426C139.497 8.7133 136.318 7.04918 134.232 8.7447C133.371 9.46687 134.629 10.66 135.49 9.93785C136.186 9.37267 137.51 10.032 137.974 10.4716C138.537 11.0368 138.736 11.8218 138.67 12.5753C138.636 12.9521 138.504 13.3289 138.305 13.7057C136.683 13.6429 134.994 13.2033 133.437 12.6695C129.827 11.445 126.549 9.59246 123.038 8.17952C122.74 8.05393 122.442 7.92834 122.111 7.80274H122.078C121.946 7.73994 121.78 7.67715 121.647 7.64575C118.899 6.67239 115.786 5.98162 112.838 6.3898C114.097 5.44785 115.455 4.63148 116.945 4.00351C123.171 1.36603 130.092 2.81037 136.351 4.56869C143.372 6.5468 150.36 8.7133 157.347 10.7856C160.295 11.6648 163.309 12.5439 166.355 13.2033C165.627 14.9616 164.07 16.5629 161.918 16.4688C160.957 16.4374 159.599 15.9664 158.904 15.3384C157.977 14.5534 158.043 13.4859 158.275 12.4497C158.54 11.3822 156.818 10.9426 156.553 12.0101C155.923 14.6162 156.851 16.5315 159.467 17.5991C162.116 18.6666 165.196 18.0387 166.985 15.8094C167.514 15.15 167.945 14.3964 168.21 13.5801C170.396 13.9569 172.581 14.1767 174.8 14.1767C179.039 16.6885 183.543 19.326 188.61 19.8912C192.849 20.3622 197.783 19.169 199.936 15.4012C200.333 14.4592 198.777 13.5801 198.247 14.5534ZM136.848 15.2756C136.683 15.4012 136.55 15.4954 136.385 15.5896C134.033 16.9083 131.45 15.7466 129.562 14.2395C128.735 13.5801 128.039 12.8265 127.344 12.0415C127.377 12.0729 127.443 12.0729 127.476 12.1043C130.225 13.3603 133.603 14.8674 136.848 15.2756ZM154.665 8.30512C153.307 7.89694 151.949 7.48875 150.592 7.08057C153.605 4.66288 156.983 4.56869 160.46 5.25945C160.527 5.29085 160.593 5.32226 160.659 5.32226C162.249 5.69904 163.938 6.20142 165.097 7.36316C166.289 8.52491 166.786 10.0948 166.62 11.6334C162.58 10.7856 158.573 9.46687 154.665 8.30512Z" fill="#FFE0EF"/>
<path d="M92.902 9.65522C90.9812 7.11193 88.5637 4.91403 85.6494 3.34411C80.5825 0.643827 74.8202 0.486833 69.2234 1.52299C63.163 2.65334 57.2351 4.63145 51.3072 6.48396C46.737 2.15096 40.8754 2.81033 35.1792 4.60005C31.5033 5.7618 28.026 6.73515 24.0851 6.79795C22.1312 6.82935 20.2435 6.92354 18.7532 5.5734C18.0909 4.94543 17.4617 4.06627 17.3292 3.15571C17.2961 2.87312 17.2299 1.77418 17.4948 1.61718C18.4221 0.989211 17.5279 -0.455125 16.6006 0.141448C14.6136 1.46019 15.6403 4.63145 16.8325 6.07578C19.25 9.02725 23.2571 8.68186 26.8007 8.36788C28.7214 8.21089 30.7416 7.67711 32.7286 7.08053C32.5299 7.36312 32.3312 7.67711 32.1656 8.02249C31.5695 9.24704 31.3377 10.6286 31.4701 11.9787C29.7149 12.2613 27.9597 12.4497 26.1714 12.4811C25.8403 12.4811 25.5422 12.4811 25.211 12.4811C25.1117 12.4497 24.9792 12.4497 24.8467 12.4811C18.1571 12.2613 12.3286 9.34124 8.05649 4.38026C7.32792 3.5325 6.06946 4.72564 6.79803 5.5734C10.3747 9.74941 15.2097 12.7637 20.8065 13.7998C21.2701 13.894 21.7338 13.9568 22.1974 13.9882C19.3162 15.6523 16.3357 17.1909 13.0571 17.9444C12.0967 18.1642 11.0701 18.2898 10.0435 18.3212C10.0104 18.3212 10.0104 18.3212 9.97725 18.3212C8.15582 18.1642 6.53309 17.3479 5.67205 15.7779C5.20841 14.9616 4.7448 13.4858 5.73831 12.8265C6.06947 12.6067 6.83116 12.5439 7.22857 12.5439C7.92402 12.4183 8.22205 12.6695 8.15582 13.3603C8.45387 13.7998 8.45389 14.1452 8.05649 14.4592C7.36103 15.3384 8.91751 16.1861 9.61297 15.307C10.7058 13.9254 10.8052 11.9787 8.91752 11.1624C7.29479 10.4402 4.67856 10.8484 3.75129 12.3869C2.85713 13.9254 3.5526 15.9035 4.5461 17.2537C3.3539 16.6571 2.36036 15.7779 1.66491 14.5534C1.13504 13.58 -0.42144 14.4592 0.108431 15.4012C2.26103 19.2004 7.16232 20.3935 11.4344 19.8912C16.5013 19.326 21.0052 16.6885 25.2773 14.1452C27.463 14.1766 29.6818 13.9254 31.8344 13.5486C32.0993 14.365 32.5299 15.1186 33.0598 15.8093C34.7487 17.913 37.7624 18.6666 40.3124 17.6933C43.0611 16.6571 44.187 14.7418 43.4916 12.0101C43.2267 10.9426 41.5045 11.4135 41.7695 12.4497C42.3325 14.7104 40.8753 16.0291 38.5903 16.4059C36.239 16.7827 34.4507 15.0872 33.689 13.2033C35.7422 12.7637 37.7623 12.2299 39.7494 11.6647C46.7701 9.65522 53.7578 7.52012 60.7786 5.44781C67.3357 3.5011 74.489 1.3032 81.3111 3.34411C83.5299 4.00348 85.4838 5.03963 87.2059 6.35837C84.2585 5.95018 81.1124 6.64095 78.3968 7.61431C78.2644 7.67711 78.0987 7.7399 77.9663 7.7713H77.9332C77.602 7.8655 77.3039 7.9911 77.0059 8.14809C73.5948 9.52963 70.3825 11.3193 66.9052 12.5439C65.2494 13.1091 63.428 13.6114 61.7059 13.6742C61.5734 13.4544 61.4741 13.2033 61.4078 12.9835C61.0435 11.6961 62.7656 8.46207 64.5208 9.90641C65.3819 10.6286 66.6403 9.43543 65.7792 8.71326C63.726 7.01774 60.613 8.61907 59.7851 10.7856C59.4539 11.6961 59.4539 12.6381 59.7189 13.5486C58.2617 13.2661 56.9701 12.5125 55.9766 11.0996C55.3474 10.189 53.7909 11.0368 54.4202 11.9473C56.076 14.3022 58.2617 15.2442 60.6793 15.3698C61.3416 16.2175 62.2357 16.9083 63.2293 17.3479C66.0111 18.541 68.8923 17.4421 71.1111 15.7465C72.4027 14.7732 73.5286 13.6428 74.5552 12.4183C75.615 11.0996 76.6416 9.9692 78.3637 9.43543C78.463 9.40403 78.5293 9.37263 78.5955 9.30984C80.5825 8.55627 82.6358 8.02249 84.7884 7.9597C87.0734 7.8655 89.3916 8.30508 90.8819 10.032C91.4117 10.6286 91.8754 11.2879 92.339 11.9473C93.1338 13.1405 93.8293 14.365 94.4254 15.6524C94.6903 16.2175 95.3195 16.1861 95.7169 15.8721C96.1806 15.6837 96.5117 15.2128 96.1806 14.679C95.1871 13.1405 94.1936 11.2251 92.902 9.65522ZM33.2916 11.6647C33.126 10.189 33.5565 8.71326 34.6162 7.55151C35.8084 6.29557 37.5636 5.76179 39.2526 5.35361C39.3188 5.32221 39.3851 5.32222 39.4513 5.29082C42.9286 4.60005 46.3396 4.69424 49.3533 7.11194C48.8896 7.26893 48.3929 7.39452 47.9293 7.55151C43.1604 8.93305 38.2922 10.66 33.2916 11.6647ZM70.3494 14.2394C68.4617 15.7465 65.8786 16.9397 63.5273 15.5896C63.3617 15.4954 63.1961 15.4012 63.0637 15.2756C66.3091 14.836 69.6871 13.3603 72.4358 12.1043C72.4689 12.0729 72.5351 12.0729 72.5682 12.0415C71.8727 12.8265 71.1773 13.58 70.3494 14.2394Z" fill="#FFE0EF"/>
</svg>
