<svg width="32" height="24" viewBox="0 0 32 24" fill="none" xmlns="http://www.w3.org/2000/svg">
<path d="M20 2C20.5304 2 21.0391 2.21071 21.4142 2.58579C21.7893 2.96086 22 3.46957 22 4V20C22 20.5304 21.7893 21.0391 21.4142 21.4142C21.0391 21.7893 20.5304 22 20 22H12C11.4696 22 10.9609 21.7893 10.5858 21.4142C10.2107 21.0391 10 20.5304 10 20V4C10 3.46957 10.2107 2.96086 10.5858 2.58579C10.9609 2.21071 11.4696 2 12 2H20ZM12 0C10.9391 0 9.92172 0.421427 9.17157 1.17157C8.42143 1.92172 8 2.93913 8 4V20C8 21.0609 8.42143 22.0783 9.17157 22.8284C9.92172 23.5786 10.9391 24 12 24H20C21.0609 24 22.0783 23.5786 22.8284 22.8284C23.5786 22.0783 24 21.0609 24 20V4C24 2.93913 23.5786 1.92172 22.8284 1.17157C22.0783 0.421427 21.0609 0 20 0H12Z" fill="#D1D0D0"/>
<path d="M16 20.0003C16.5305 20.0003 17.0392 19.7896 17.4142 19.4145C17.7893 19.0395 18 18.5308 18 18.0003C18 17.4699 17.7893 16.9612 17.4142 16.5861C17.0392 16.211 16.5305 16.0003 16 16.0003C15.4696 16.0003 14.9609 16.211 14.5858 16.5861C14.2107 16.9612 14 17.4699 14 18.0003C14 18.5308 14.2107 19.0395 14.5858 19.4145C14.9609 19.7896 15.4696 20.0003 16 20.0003ZM3.19802 4.11632C3.31413 4.17776 3.417 4.26147 3.50075 4.36267C3.5845 4.46387 3.64749 4.58059 3.68612 4.70614C3.72475 4.83169 3.73827 4.96363 3.7259 5.09441C3.71352 5.22518 3.67551 5.35224 3.61402 5.46832C2.55051 7.48112 1.99635 9.72384 2.00002 12.0003C2.00002 14.3603 2.58402 16.5843 3.61402 18.5323C3.73814 18.7668 3.76404 19.0409 3.68602 19.2945C3.60801 19.548 3.43247 19.7602 3.19802 19.8843C2.96357 20.0084 2.68941 20.0343 2.43586 19.9563C2.18231 19.8783 1.97014 19.7028 1.84602 19.4683C0.630064 17.1671 -0.0037351 14.6031 1.65588e-05 12.0003C1.65588e-05 9.30632 0.668017 6.76232 1.84602 4.53232C1.90745 4.41621 1.99116 4.31334 2.09236 4.22959C2.19357 4.14584 2.31028 4.08285 2.43583 4.04422C2.56138 4.00559 2.69332 3.99207 2.8241 4.00444C2.95488 4.01682 3.08193 4.05483 3.19802 4.11632ZM28.802 4.11632C28.9181 4.05483 29.0452 4.01682 29.1759 4.00444C29.3067 3.99207 29.4387 4.00559 29.5642 4.04422C29.6898 4.08285 29.8065 4.14584 29.9077 4.22959C30.0089 4.31334 30.0926 4.41621 30.154 4.53232C31.37 6.83353 32.0038 9.39758 32 12.0003C32.0038 14.6031 31.37 17.1671 30.154 19.4683C30.0299 19.7028 29.8177 19.8783 29.5642 19.9563C29.3106 20.0343 29.0365 20.0084 28.802 19.8843C28.5676 19.7602 28.392 19.548 28.314 19.2945C28.236 19.0409 28.2619 18.7668 28.386 18.5323C29.4495 16.5195 30.0037 14.2768 30 12.0003C30 9.64032 29.416 7.41632 28.386 5.46832C28.3245 5.35224 28.2865 5.22518 28.2741 5.09441C28.2618 4.96363 28.2753 4.83169 28.3139 4.70614C28.3525 4.58059 28.4155 4.46387 28.4993 4.36267C28.583 4.26147 28.6859 4.17776 28.802 4.11632ZM6.11402 7.06832C6.23645 7.11606 6.34828 7.18747 6.44311 7.27846C6.53793 7.36945 6.61389 7.47823 6.66664 7.59859C6.71939 7.71896 6.7479 7.84854 6.75054 7.97993C6.75318 8.11132 6.72989 8.24194 6.68202 8.36432C6.22989 9.52318 5.99858 10.7564 6.00002 12.0003C6.00002 13.2843 6.24002 14.5103 6.68002 15.6363C6.73583 15.7599 6.76591 15.8936 6.76844 16.0292C6.77097 16.1648 6.74589 16.2995 6.69474 16.4251C6.64358 16.5507 6.5674 16.6646 6.47085 16.7598C6.3743 16.855 6.25938 16.9296 6.13309 16.9791C6.0068 17.0285 5.87178 17.0517 5.73623 17.0473C5.60068 17.0429 5.46744 17.011 5.34462 16.9535C5.22179 16.896 5.11195 16.8141 5.02176 16.7128C4.93158 16.6115 4.86294 16.493 4.82002 16.3643C4.27695 14.9735 3.99883 13.4934 4.00002 12.0003C4.00002 10.4623 4.29002 8.99032 4.82002 7.63632C4.91645 7.38953 5.10688 7.1911 5.3495 7.08461C5.59212 6.97811 5.86708 6.97225 6.11402 7.06832ZM25.886 7.06832C26.0084 7.02045 26.139 6.99716 26.2704 6.9998C26.4018 7.00244 26.5314 7.03095 26.6517 7.0837C26.7721 7.13645 26.8809 7.21241 26.9719 7.30724C27.0629 7.40206 27.1343 7.51389 27.182 7.63632C27.71 8.99032 28 10.4623 28 12.0003C28 13.5383 27.71 15.0103 27.18 16.3643C27.0745 16.598 26.8833 16.7822 26.6458 16.8789C26.4084 16.9756 26.1429 16.9775 25.9041 16.884C25.6654 16.7906 25.4717 16.609 25.363 16.3768C25.2542 16.1446 25.2389 15.8795 25.32 15.6363C25.76 14.5103 26 13.2843 26 12.0003C26 10.7163 25.76 9.49032 25.32 8.36432C25.2232 8.11741 25.2285 7.84215 25.3346 7.5991C25.4408 7.35606 25.6391 7.16513 25.886 7.06832Z" fill="#D1D0D0"/>
</svg>
