<svg width="48" height="48" viewBox="0 0 48 48" fill="none" xmlns="http://www.w3.org/2000/svg">
<circle cx="24" cy="24" r="22.5" stroke="white" stroke-width="3"/>
<g clip-path="url(#clip0)">
<path d="M17.4457 21.0746C17.3492 21.3822 17.4297 21.7198 17.6533 21.9455L20.2315 24.5485L19.6228 28.2238C19.5701 28.5425 19.6967 28.8646 19.9493 29.0547C20.0922 29.1623 20.2614 29.217 20.4315 29.217C20.562 29.217 20.6931 29.1848 20.8131 29.1194L24.0001 27.3842L27.187 29.1194C27.3069 29.1847 27.438 29.217 27.5687 29.217H27.5714C28.0237 29.2161 28.3902 28.836 28.3902 28.3674C28.3902 28.3022 28.383 28.2386 28.3696 28.1776L27.7685 24.5485L30.3468 21.9455C30.5704 21.7198 30.651 21.3822 30.5544 21.0746C30.4579 20.767 30.2013 20.5428 29.8923 20.4964L26.3292 19.9602L24.7358 16.6162C24.5976 16.3262 24.3124 16.1426 24.0002 16.1426C23.688 16.1426 23.4028 16.3262 23.2646 16.6162L21.6711 19.9602L18.1081 20.4964C17.7989 20.5429 17.5423 20.7671 17.4457 21.0746Z" fill="white"/>
<path d="M37.4334 22.7195C37.3502 22.6914 36.5963 22.4458 35.7353 22.4458C35.1963 22.4458 34.7237 22.5438 34.3257 22.7365C34.3178 22.594 34.3079 22.4518 34.2946 22.3101C34.9701 22.1122 35.8906 21.7136 36.4138 20.9398C37.2586 19.6905 36.8615 17.7665 36.8135 17.5512C36.719 17.1277 36.3308 16.8464 35.9146 16.8992C35.713 16.9248 34.0001 17.1725 33.1069 18.2733C33.0457 18.156 32.9829 18.0394 32.9173 17.9242C32.9129 17.9164 32.9082 17.909 32.9038 17.9013C33.4351 17.4262 34.1061 16.6624 34.2644 15.7327C34.5201 14.2304 33.3752 12.6607 33.2438 12.4866C32.9853 12.1442 32.5191 12.0591 32.1631 12.2893C31.991 12.4007 30.5384 13.376 30.1788 14.7657C29.8573 14.5172 29.5222 14.2866 29.1737 14.0777C28.7815 13.8428 28.2797 13.9814 28.0528 14.3876C27.826 14.7937 27.9599 15.3135 28.352 15.5484C29.0887 15.99 29.7483 16.5362 30.3181 17.1623C31.8199 18.7882 32.7426 20.9928 32.7426 23.4206C32.7426 28.4214 28.8284 32.4754 24 32.4754C19.1717 32.4754 15.2575 28.4214 15.2575 23.4206C15.2575 20.9946 16.1787 18.7916 17.6785 17.166C18.2492 16.5384 18.9099 15.9908 19.6482 15.5485C20.0404 15.3135 20.1743 14.7937 19.9475 14.3876C19.7207 13.9814 19.2189 13.8428 18.8267 14.0776C18.4781 14.2865 18.1429 14.5171 17.8213 14.7656C17.4619 13.3759 16.0091 12.4006 15.8369 12.2892C15.481 12.059 15.0146 12.1441 14.7562 12.4865C14.6249 12.6605 13.4798 14.2303 13.7356 15.7328C13.8939 16.6625 14.5648 17.4262 15.0962 17.9013C15.0919 17.9089 15.0872 17.9163 15.0828 17.924C15.0172 18.0392 14.9544 18.1559 14.8932 18.2733C13.9998 17.1725 12.287 16.9248 12.0854 16.8992C11.669 16.8464 11.281 17.1277 11.1866 17.5512C11.1385 17.7665 10.7416 19.6905 11.5863 20.9397C12.1094 21.7135 13.03 22.1121 13.7055 22.31C13.6922 22.4518 13.6822 22.594 13.6742 22.7365C13.2765 22.5438 12.8037 22.4457 12.2648 22.4457C11.4039 22.4457 10.6498 22.6914 10.5667 22.7193C10.1676 22.8538 9.93084 23.2786 10.018 23.7038C10.0623 23.9198 10.4877 25.8371 11.7632 26.6C12.1966 26.8592 12.7338 26.9906 13.3597 26.9906C13.6782 26.9906 13.9819 26.9569 14.2425 26.9132C14.2883 27.0479 14.3364 27.1815 14.3872 27.3137C14.3868 27.3137 14.3863 27.3136 14.386 27.3136C12.9976 27.3136 11.7077 28.5212 11.5652 28.659C11.2583 28.9555 11.2171 29.4441 11.4696 29.7913C11.5979 29.9678 12.7657 31.5195 14.2329 31.6524C14.3025 31.6587 14.374 31.6619 14.4455 31.6619H14.4457C15.2795 31.6619 16.0775 31.2263 16.6131 30.8485C16.7097 30.9506 16.808 31.0508 16.9084 31.149C15.6466 31.7551 14.9699 33.4099 14.8937 33.6053C14.7366 34.0084 14.8986 34.4693 15.2693 34.6734C15.3882 34.7389 16.4635 35.3134 17.5821 35.3136H17.5823C17.926 35.3136 18.2459 35.2587 18.5331 35.1505C19.3901 34.8273 20 34.0094 20.3594 33.3848C20.6541 33.5 20.9552 33.6015 21.262 33.6888C20.7846 34.1916 20.3472 34.8316 19.9636 35.5993C19.7553 36.016 19.9126 36.5287 20.315 36.7444C20.7173 36.9599 21.2123 36.7971 21.4206 36.3803C22.1542 34.9124 23.0944 34.0706 24.0002 34.0706C24.9061 34.0706 25.8464 34.9124 26.58 36.3804C26.7259 36.6722 27.0123 36.8396 27.3092 36.8396C27.4361 36.8396 27.5651 36.8089 27.6856 36.7443C28.0879 36.5286 28.2452 36.016 28.037 35.5992C27.6533 34.8315 27.216 34.1914 26.7386 33.6887C27.0453 33.6014 27.3463 33.4999 27.6411 33.3847C28.0005 34.0093 28.6105 34.8273 29.4676 35.1505C29.7546 35.2586 30.0745 35.3134 30.4184 35.3134C31.5369 35.3134 32.6123 34.7388 32.7313 34.6732C33.1018 34.4691 33.2638 34.0082 33.1067 33.6051C33.0305 33.4098 32.3537 31.755 31.092 31.1488C31.1924 31.0508 31.2908 30.9505 31.3873 30.8484C31.9229 31.2262 32.721 31.6618 33.5548 31.6618C33.6263 31.6618 33.6977 31.6586 33.7675 31.6523C35.2346 31.5194 36.4025 29.9676 36.5308 29.7912C36.7832 29.4439 36.742 28.9554 36.4351 28.6589C36.2927 28.5211 35.0028 27.3135 33.6145 27.3135C33.614 27.3135 33.6136 27.3136 33.6131 27.3136C33.6641 27.1814 33.7121 27.0478 33.7579 26.9131C34.0185 26.9568 34.3223 26.9904 34.6407 26.9904C35.2665 26.9904 35.8037 26.859 36.2374 26.5998C37.5126 25.837 37.9381 23.9198 37.9823 23.7036C38.0691 23.2786 37.8324 22.8539 37.4334 22.7195Z" fill="white"/>
</g>
<defs>
<clipPath id="clip0">
<rect width="28" height="29" fill="white" transform="translate(10 10)"/>
</clipPath>
</defs>
</svg>
