<svg width="340" height="50" viewBox="0 0 340 50" fill="none" xmlns="http://www.w3.org/2000/svg">
<path d="M155.917 17.7982C144.633 16.788 133.349 17.1036 122.064 17.0405C110.592 16.9142 99.1193 16.1566 87.7095 15.4621C76.2998 14.7676 64.8272 14.1362 53.3548 14.3256C47.6499 14.3888 41.945 14.7045 36.3028 15.2727C33.5444 15.5884 30.6606 15.7777 27.9022 16.4091C26.523 16.7248 24.893 17.1037 24.1407 18.4295C23.4511 19.7554 23.6392 20.9549 24.6422 22.0914C26.0841 23.4173 27.1499 23.291 27.9022 21.7126C27.338 19.566 30.5979 18.682 31.1621 20.8287C31.9144 23.7961 29.5321 26.3847 26.523 26.3847C23.3884 26.4479 20.7554 23.5435 20.4419 20.5761C20.1285 16.9142 22.6988 14.2624 26.0214 13.3154C26.2722 13.2523 26.5857 13.1892 26.8364 13.126C26.4603 12.9998 26.1468 12.8103 25.8334 12.6209C22.4481 10.6637 20.9435 6.62292 23.263 3.1504C25.2064 0.246115 29.8456 -0.953436 32.7921 1.06694C36.052 3.33986 34.7982 7.38054 31.7263 9.21151C29.8456 10.348 28.153 7.38058 30.0337 6.24411C33.6698 4.09747 27.7768 2.01397 25.9588 5.23394C24.2034 8.20137 27.7768 10.0955 30.0964 10.6006C34.3594 11.5476 39.3747 11.3582 43.763 11.295H43.8257C67.7111 9.84291 91.5964 12.8103 115.482 13.5048C128.96 13.8837 142.502 13.1891 155.917 14.4519C158.049 14.5782 158.049 17.9876 155.917 17.7982Z" fill="#FFE0EF"/>
<path d="M20.9432 14.5153C17.934 16.662 13.671 17.9879 10.0349 17.7985C6.14808 17.6091 3.20159 15.0836 0.505868 12.495C-0.434499 11.6111 0.0670379 10.3483 0.944714 9.84319C4.14196 7.444 8.7811 7.12838 12.7306 7.06524C16.116 7.06524 20.1909 8.01223 21.6955 11.4216C21.9462 11.9267 21.8835 12.495 21.6955 12.8738C21.7582 13.5052 21.5074 14.1365 20.9432 14.5153ZM4.51812 11.6111C6.39885 13.2526 8.46767 14.5785 11.2261 14.3891C12.0411 14.3259 12.856 14.1997 13.671 14.0103C12.9814 14.0103 12.2291 13.9471 11.5395 13.9471C9.34534 13.8208 9.34534 10.4746 11.5395 10.5378C12.7307 10.6009 13.9218 10.6009 15.1129 10.6009C11.7903 9.84324 7.21384 10.4115 4.51812 11.6111Z" fill="#FFE0EF"/>
<path d="M314.212 12.6205C313.836 12.8099 313.46 12.9993 313.084 13.1887C315.842 13.8201 318.35 14.9566 319.29 17.924C320.419 21.3334 318.35 25.4372 314.777 26.258C311.454 27.0156 308.006 24.3008 308.884 20.8283C309.448 18.6816 312.708 19.6287 312.144 21.7122C312.833 23.2906 313.962 23.4169 315.404 22.091C316.281 21.2071 316.469 20.26 316.093 19.2498C315.654 17.2295 313.962 16.7875 312.144 16.3456C309.385 15.7142 306.564 15.5248 303.743 15.2091C298.101 14.6408 292.396 14.3252 286.691 14.262C275.219 14.0726 263.809 14.704 252.336 15.3985C240.864 16.093 229.454 16.8507 217.982 16.9769C206.697 17.1032 195.413 16.7244 184.128 17.7345C181.934 17.924 181.997 14.5146 184.128 14.3252C196.04 13.2519 208.014 13.6938 219.925 13.5044C232.087 13.315 244.186 12.4311 256.286 11.7366C268.385 11.0421 280.485 10.537 292.584 11.0421C293.775 11.1052 295.029 11.1684 296.22 11.2315H296.283C300.671 11.2946 305.624 11.5472 309.949 10.537C312.206 10.0319 314.777 8.76913 314.275 6.05426C314.024 4.47584 312.457 3.46568 310.89 3.40255C309.448 3.33941 306.815 4.34961 309.949 6.18058C311.83 7.31704 310.137 10.2213 308.257 9.14797C305.185 7.38014 303.931 3.27624 307.191 1.00332C310.138 -1.01705 314.777 0.182577 316.72 3.08686C319.04 6.62252 317.598 10.6632 314.212 12.6205Z" fill="#FFE0EF"/>
<path d="M339.477 12.5582C336.781 15.1468 333.835 17.6723 329.948 17.8617C326.312 18.0511 321.986 16.662 319.04 14.5785C318.476 14.1366 318.225 13.5683 318.287 13.0001C318.099 12.5581 318.037 12.0531 318.287 11.548C319.855 8.20175 323.93 7.19155 327.252 7.19155C331.139 7.19155 335.778 7.50725 339.038 9.96958C339.979 10.4115 340.417 11.6111 339.477 12.5582ZM325.121 10.6641C326.249 10.6641 327.378 10.6641 328.506 10.6009C330.7 10.4747 330.7 13.8841 328.506 14.0103C327.754 14.0735 327.064 14.0735 326.312 14.0735C327.127 14.2629 327.942 14.3891 328.757 14.4523C331.453 14.5785 333.521 13.3158 335.465 11.6742C333.333 10.7903 330.575 10.7272 328.569 10.6009C327.503 10.5378 326.312 10.4747 325.121 10.6641Z" fill="#FFE0EF"/>
<path d="M174.85 18.6817C174.223 19.8182 172.969 20.3864 171.778 20.7652C171.026 21.0809 170.211 21.3335 169.333 21.3966C168.518 21.4597 167.64 21.2703 167.013 20.7021C166.951 20.639 166.888 20.5758 166.825 20.5127C166.512 20.3864 166.198 20.1339 166.01 19.8813C165.822 19.6288 165.697 19.3131 165.634 18.9974C165.509 18.4923 165.572 17.9241 165.697 17.3558C165.885 16.7245 166.198 16.2194 166.575 15.7143C166.951 15.1461 167.327 14.5779 167.766 14.0728C169.145 12.6206 171.276 12.0524 173.22 12.4943C173.909 12.6838 174.599 12.9994 175.038 13.5676C175.477 14.0727 175.602 14.8304 175.602 15.5249C175.602 16.2194 175.414 16.8508 175.226 17.5453C175.163 17.9241 175.038 18.3029 174.85 18.6817Z" fill="#FFE0EF"/>
<path d="M168.706 28.0262C169.27 26.9529 170.9 26.511 171.653 27.9C173.659 31.8776 175.539 36.8654 174.975 41.3481C174.536 44.6943 172.906 50.1241 168.643 49.9978C164.568 49.8716 162.688 44.8838 162.625 41.4744C162.5 36.0446 165.383 33.0772 168.079 28.6576C168.205 28.3419 168.455 28.1525 168.706 28.0262ZM167.578 45.9571C171.527 48.1669 171.715 38.9489 171.402 37.4967C170.963 35.6658 170.461 33.8348 169.772 32.067C168.706 33.456 167.578 34.845 166.825 36.4235C165.76 38.507 165.007 44.5049 167.578 45.9571Z" fill="#FFE0EF"/>
<path d="M187.952 29.6051C190.021 31.878 190.648 35.4136 188.015 37.4971C185.57 39.5175 182.436 38.4442 180.367 36.4239C179.301 35.3505 178.361 34.0877 177.984 32.5725C177.546 30.8046 178.11 28.9737 178.047 27.1427C178.047 26.827 178.11 26.5114 178.235 26.322C178.235 25.4381 179.05 24.6804 179.928 24.6804C181.244 24.6172 182.874 25.7537 183.94 26.4482C185.382 27.3321 186.824 28.4055 187.952 29.6051ZM181.307 28.7211C181.182 29.9839 180.931 31.3098 181.432 32.4462C181.997 33.7721 184.065 35.9187 185.633 34.9717C187.764 33.6458 184.818 31.3098 183.689 30.4259C183.25 30.047 182.247 29.2262 181.307 28.7211Z" fill="#FFE0EF"/>
<path d="M147.767 33.8978C145.949 31.4354 147.516 28.5311 149.773 27.0158C152.971 24.8692 156.92 24.0484 160.744 24.1116C161.308 24.1116 161.747 24.3641 161.998 24.7429C163.127 24.9323 164.004 26.0056 163.126 27.1421C160.431 30.6777 152.594 40.4008 147.767 33.8978ZM152.532 29.2887C152.156 29.4782 151.842 29.6676 151.466 29.9201C150.463 31.8142 150.651 32.635 151.967 32.3825C154.224 32.7613 156.732 29.9201 158.55 27.5841C157.359 27.7104 156.168 27.8998 154.977 28.2786C154.162 28.5311 153.347 28.9099 152.532 29.2887Z" fill="#FFE0EF"/>
</svg>
