<svg width="200" height="50" viewBox="0 0 200 50" fill="none" xmlns="http://www.w3.org/2000/svg">
<path d="M120.504 22.5133C118.339 21.5996 115.952 21.4255 113.61 21.5996C115.378 20.0331 116.35 17.9445 115.113 15.3772C113.389 11.7656 109.368 11.5481 106.098 12.897C106.452 10.1557 106.186 7.37086 105.082 4.8036C104.021 2.32337 101.723 -0.809538 98.5859 0.191257C95.4485 1.14854 94.0786 5.49982 93.6367 8.32816C93.2832 10.8084 93.5041 13.2016 94.2553 15.5513C91.5598 14.4635 88.3782 14.2024 86.2571 16.291C84.4011 18.1185 84.9314 20.0331 86.2571 21.556C80.5566 21.0774 73.4421 21.5125 74.591 28.3441C75.4748 33.6961 82.28 36.1328 87.4502 35.045C86.8315 37.4817 87.2734 40.1795 89.041 42.0941C91.1179 44.3568 93.3274 43.8346 95.095 42.2682C95.7578 46.1843 97.7905 50.7967 102.298 49.8829C106.363 49.0561 107.203 44.1827 106.628 40.1795C108.794 41.2238 111.312 41.2673 113.124 39.1352C115.069 36.8726 114.096 34.6534 112.55 32.6953C114.627 33.261 116.748 33.6091 118.957 33.6961C121.874 33.8267 125.321 33.7831 125.807 30.2586C125.851 30.1716 125.851 30.041 125.851 29.954C125.807 26.56 123.553 23.8187 120.504 22.5133ZM116.615 31.0854C114.008 30.7373 111.489 29.9975 109.103 28.9532C107.866 28.4311 106.717 29.7365 107.645 30.7808C108.926 32.2602 112.461 34.5229 111.71 36.8726C110.605 40.1795 106.761 37.7428 105.479 36.1328C104.596 35.0015 103.093 36.4374 103.624 37.5687C104.64 39.8314 105.391 47.5332 101.414 47.5332C97.8347 47.5767 97.2602 41.6155 97.216 39.2223C97.216 38.0474 95.6252 37.6558 95.0066 38.6131C94.5205 39.3963 93.6809 40.7017 92.7529 41.0498C91.3389 41.5284 90.4109 40.0055 90.0132 39.0482C89.2178 37.1336 89.5271 35.132 90.6318 33.435C91.2947 32.4342 90.0132 31.2159 88.9968 31.8251C85.3291 34.0007 77.2424 32.4777 76.8889 27.4303C76.4912 21.5995 87.3176 23.8622 90.7202 24.2538C91.8691 24.3844 92.3994 22.5133 91.3389 22.0782C89.6155 21.382 85.3733 18.9888 88.8643 17.3353C91.1179 16.2475 94.167 17.6399 95.9346 18.9888C96.9509 19.772 98.4975 18.8147 97.7905 17.5529C95.6694 13.7237 94.6089 7.06628 98.0114 3.45472C100.84 0.452334 102.961 5.06468 103.535 7.41437C104.154 9.8946 103.977 12.3748 103.27 14.8116C103.005 15.7253 104.154 16.7696 105.038 16.1169C107.114 14.507 111.224 12.9405 112.815 16.0734C114.627 19.598 109.766 21.469 107.159 22.2523C105.921 22.6004 106.098 24.7325 107.468 24.5584C112.329 23.9493 123.332 22.0347 123.465 29.6929C122.89 32.1732 118.471 31.3464 116.615 31.0854Z" fill="#A9336C"/>
<path d="M103.535 28.3005C104.065 26.0813 101.06 22.9049 98.9392 24.5584C97.9229 25.3416 98.9834 26.647 100.044 26.4729C100.486 26.647 100.972 26.9081 101.149 27.2126C101.767 28.5615 99.7346 28.6921 99.1602 28.4745C97.967 28.0394 97.6577 26.734 97.481 25.6462C97.1275 22.9484 100.353 22.4697 102.165 23.7316C103.402 24.6019 104.595 22.5568 103.358 21.6865C101.06 20.0765 97.7461 20.2941 95.8901 22.5133C94.1667 24.5149 95.0947 28.431 97.0833 29.9975C99.1602 31.651 102.828 31.0853 103.535 28.3005Z" fill="#A9336C"/>
<path d="M92.0453 27.2993C89.3498 27.3428 86.3891 27.7344 83.8703 26.6901C82.4562 26.1245 81.8376 28.3871 83.2516 28.9528C85.9914 30.0406 89.173 29.649 92.0453 29.6055C93.5478 29.649 93.5478 27.2993 92.0453 27.2993Z" fill="#A9336C"/>
<path d="M101.68 34.175C101.503 32.6956 99.1168 32.6956 99.2935 34.175C99.6029 36.8293 100.133 39.3965 100.929 41.9203C101.37 43.3562 103.668 42.747 103.226 41.3111C102.519 39.0049 101.989 36.6117 101.68 34.175Z" fill="#A9336C"/>
<path d="M113.61 25.5152C111.224 25.3412 108.926 25.4717 106.584 25.8198C105.081 26.0374 105.7 28.3 107.202 28.0825C109.323 27.7779 111.445 27.6909 113.61 27.8649C115.112 27.9955 115.112 25.6458 113.61 25.5152Z" fill="#A9336C"/>
<path d="M101.149 18.2053C100.619 16.4647 100.089 14.7678 100.398 12.9402C100.619 11.5913 100.796 10.2859 100.663 8.89353C100.531 7.4141 98.1446 7.37058 98.2771 8.89353C98.4097 10.634 97.9236 12.2005 97.8352 13.8975C97.7469 15.551 98.3213 17.2915 98.8074 18.8579C99.2935 20.2504 101.591 19.6412 101.149 18.2053Z" fill="#A9336C"/>
<path d="M95.1387 30.9549C93.5478 32.3038 92.4431 34.1313 92.0012 36.1764C91.6919 37.6559 93.9898 38.265 94.2991 36.7856C94.6526 35.0886 95.4922 33.6962 96.8179 32.6084C97.9668 31.6076 96.2876 29.9541 95.1387 30.9549Z" fill="#A9336C"/>
<path d="M106.805 32.1733C106.098 31.9557 105.479 31.5206 105.081 30.9114C104.286 29.6495 102.209 30.8244 103.004 32.0862C103.756 33.2176 104.86 34.0878 106.186 34.4359C107.644 34.8276 108.307 32.5649 106.805 32.1733Z" fill="#A9336C"/>
<path d="M104.993 20.7293C106.407 19.7285 107.909 18.9018 109.456 18.162C110.87 17.5529 109.633 15.5077 108.263 16.1169C106.672 16.8131 105.214 17.6834 103.8 18.6842C102.518 19.598 103.711 21.6431 104.993 20.7293Z" fill="#A9336C"/>
<path d="M95.2271 21.5561C95.5806 20.9904 95.3597 20.2942 94.7852 19.9461C94.1224 19.511 93.4154 19.1194 92.7525 18.6842C92.2223 18.3361 91.4268 18.5537 91.1175 19.1194C90.764 19.685 90.9849 20.3812 91.5594 20.7293C92.2222 21.1645 92.9293 21.5561 93.5921 21.9912C94.1224 22.3393 94.9178 22.0782 95.2271 21.5561Z" fill="#A9336C"/>
<path d="M199.736 26.6464C199.294 25.6456 198.498 24.9929 197.526 24.6448C197.88 24.2097 198.145 23.644 198.189 23.0348C198.277 21.4249 196.642 20.25 195.228 19.8584C191.472 18.7706 185.109 21.7294 183.165 24.9494C183.076 25.1234 182.988 25.2975 182.988 25.4715C165.268 26.6899 147.504 26.6464 129.828 25.3845C128.281 25.254 128.326 27.6037 129.828 27.7342C147.592 29.0396 165.445 29.0396 183.209 27.8213C185.374 29.2137 188.291 29.7358 190.809 30.2145C193.063 30.6496 196.112 31.2588 198.277 30.3015C199.78 29.6053 200.399 28.1693 199.736 26.6464ZM197.084 28.2564C197.04 28.4304 195.494 28.3869 195.317 28.3869C193.903 28.3869 192.444 28.1693 191.03 27.8648C189.174 27.4731 186.921 27.0815 185.153 26.2113C185.153 26.1678 185.197 26.1678 185.197 26.1242C186.258 24.3402 188.909 23.2089 190.809 22.5997C191.605 22.3386 192.754 21.9905 193.549 21.9905C195.273 21.9905 196.466 23.2089 194.345 24.0356C193.991 24.1662 193.77 24.3837 193.682 24.6883C193.24 25.3845 193.549 26.5594 194.61 26.5159C195.317 26.5159 197.305 27.4732 197.084 28.2564Z" fill="#A9336C"/>
<path d="M169.466 30.6071C166.726 30.2155 164.163 30.6071 161.467 30.4766C160.584 30.433 159.965 31.5209 160.451 32.2606C161.291 33.5225 162.263 34.6103 162.881 36.0027C163.367 37.047 163.898 37.9172 164.649 38.831C165.842 40.354 167.61 42.4426 169.775 42.3991C171.498 42.3556 172.117 40.7456 172.073 39.3096C172.029 38.5264 171.852 37.7867 171.498 37.0905C171.763 37.047 172.029 36.96 172.294 36.8294C173.531 36.2203 174.768 34.4797 174.282 33.0873C173.708 31.3033 171.012 30.8246 169.466 30.6071ZM168.935 33.9576C168.184 33.5224 167.477 33.9576 167.256 34.5668C166.947 35.0889 166.947 35.7851 167.61 36.1767C168.361 36.6119 168.935 37.2645 169.289 38.0043C169.421 38.2218 169.996 39.7013 169.51 39.8753C168.67 40.1799 167.079 38.0478 166.593 37.3951C165.754 36.3508 165.312 35.263 164.649 34.0881C164.384 33.6095 164.075 33.1308 163.765 32.6957C165.179 32.6522 166.593 32.5217 168.052 32.6957C168.626 32.7392 171.675 32.9568 171.808 33.74C172.117 35.524 169.377 34.2187 168.935 33.9576Z" fill="#A9336C"/>
<path d="M145.338 24.7322C148.166 24.2535 150.994 24.21 153.734 23.4268C155.413 22.9916 157.579 22.1214 158.33 20.4244C158.949 18.945 157.844 17.7701 156.474 17.2044C155.723 16.8999 154.927 16.7258 154.088 16.7693C154.132 16.5518 154.176 16.3342 154.176 16.0731C154.176 14.6807 153.027 12.7226 151.481 12.6356C149.757 12.5051 148.343 14.4631 147.504 15.6815C145.869 18.0312 145.25 20.5549 144.013 23.0352C143.482 23.9489 144.278 24.8627 145.338 24.7322ZM148.255 18.945C148.697 18.0747 149.183 17.248 149.757 16.4647C150.111 15.7685 150.685 15.3334 151.436 15.2464C151.702 16.4647 151.304 17.2915 150.243 17.7701C149.492 18.2923 149.625 19.206 150.111 19.6847C150.42 20.1198 150.995 20.3809 151.569 19.9457C152.364 19.3801 153.027 19.206 154.044 19.1625C154.927 19.119 155.767 18.9885 155.458 19.8152C155.104 20.816 153.071 21.1206 152.099 21.3382C150.774 21.6428 149.58 21.5557 148.255 21.7298C147.813 21.7733 147.371 21.8603 146.885 21.9474C147.371 20.9901 147.724 19.9458 148.255 18.945Z" fill="#A9336C"/>
<path d="M70.2163 25.3853C52.4964 26.6471 34.7322 26.6907 17.0565 25.4723C17.0565 25.2982 17.0123 25.1242 16.8797 24.9501C14.9353 21.7737 8.57207 18.7278 4.81597 19.8592C1.89947 20.7294 1.45757 22.905 2.65068 24.5585C1.63432 24.9066 0.750552 25.5593 0.264468 26.6471C-0.398373 28.1701 0.220273 29.606 1.72271 30.3022C3.888 31.303 6.93705 30.6503 9.19071 30.2152C11.6653 29.7366 14.626 29.2144 16.7913 27.822C34.5555 29.0404 52.408 28.9968 70.1721 27.735C71.7188 27.6044 71.763 25.2547 70.2163 25.3853ZM9.01397 27.8655C7.73248 28.1266 6.45098 28.3006 5.16948 28.3442C4.72759 28.3442 3.84379 28.5182 3.44609 28.3006C2.65068 28.3441 2.73906 27.996 3.75542 27.3869C4.06474 26.6036 4.63921 26.299 5.39043 26.5166C6.49517 26.5166 6.80448 25.3418 6.3184 24.6891C6.18583 24.428 5.96488 24.1669 5.65556 24.0364C3.53446 23.2096 4.68341 21.9913 6.45099 21.9913C7.33478 21.9913 8.3953 22.3394 9.19071 22.6005C11.135 23.2532 13.7422 24.341 14.8028 26.125C14.8028 26.1685 14.847 26.1685 14.847 26.212C13.1236 27.1258 10.8699 27.5174 9.01397 27.8655Z" fill="#A9336C"/>
<path d="M38.5321 30.4766C35.9249 30.6071 33.362 30.2155 30.7106 30.6071C29.1198 30.8246 26.3358 31.3033 25.7172 33.0873C25.2311 34.4362 26.38 35.9592 27.4848 36.6554C27.8383 36.8729 28.1918 37.0035 28.5453 37.047C28.236 37.6562 28.0592 38.3089 28.015 39.0051C27.8825 40.528 28.4569 42.312 30.2687 42.3555C32.3014 42.3991 33.9806 40.528 35.1295 39.1356C36.8529 37.047 38.0902 34.5232 39.5927 32.2171C40.0346 31.4773 39.4159 30.433 38.5321 30.4766ZM33.4062 37.4821C32.7875 38.2218 31.9479 39.5272 30.9315 39.7013C30.4455 40.1364 30.2245 39.9624 30.3129 39.2226C30.3571 38.9616 30.4013 38.7005 30.4455 38.4829C30.7106 37.5256 31.506 36.6989 32.3456 36.2202C33.0084 35.8286 33.0526 35.0889 32.6991 34.6103C32.4782 34.0011 31.7711 33.5225 31.0199 34.0011C30.5338 34.3057 29.4733 34.9584 28.943 34.8278C28.8546 34.7843 28.1034 34.2186 28.1034 34.0881C28.1476 33.1308 31.4176 32.9133 31.9037 32.8698C33.362 32.7392 34.776 32.8262 36.1901 32.8698C35.9249 33.2179 35.6598 33.6095 35.4389 33.9576C34.776 35.1324 34.3783 36.3073 33.4062 37.4821Z" fill="#A9336C"/>
<path d="M46.3098 23.4271C49.0495 24.1668 51.9219 24.2538 54.7058 24.7324C55.7221 24.9065 56.5176 23.9927 56.0315 22.9919C54.8384 20.6422 54.2197 18.249 52.7615 15.9864C51.8777 14.681 50.3752 12.5054 48.5193 12.5924C47.0168 12.6794 45.9563 14.5504 45.8679 15.8993C45.8679 16.2039 45.8679 16.465 45.9563 16.7696C45.1167 16.7696 44.3213 16.9001 43.5701 17.2047C42.2444 17.7704 41.0955 18.9017 41.7141 20.4247C42.4653 22.1217 44.6306 22.9919 46.3098 23.4271ZM48.4309 19.9896C49.0054 20.4247 49.5798 20.1636 49.9333 19.7285C50.4636 19.2498 50.5962 18.2926 49.8008 17.8139C48.7402 17.3353 48.3425 16.5085 48.6077 15.2902C49.3589 15.4207 49.9333 15.8123 50.2868 16.5085C50.8613 17.2918 51.3474 18.162 51.7893 18.9888C52.3196 19.9896 52.7173 20.9904 53.115 22.0347C52.7173 21.9476 52.3196 21.9041 51.9219 21.8171C50.552 21.643 49.3147 21.7301 47.9006 21.4255C46.9285 21.2079 45.5144 20.9904 44.8074 20.2942C43.084 18.5536 47.3704 19.2498 48.4309 19.9896Z" fill="#A9336C"/>
</svg>
