<svg width="160" height="44" viewBox="0 0 160 44" fill="none" xmlns="http://www.w3.org/2000/svg">
<path d="M159.816 41.4054C158.676 39.7587 158.676 37.7116 158.15 35.8424C157.711 34.2848 156.834 32.9496 155.693 31.837C153.763 29.9679 150.693 29.4784 148.149 28.6773C147.36 27.9207 146.57 27.2086 145.693 26.4966C145.649 26.4076 145.561 26.3631 145.474 26.2741C143.719 24.8944 142.009 23.5593 140.298 22.2687C141.614 22.7583 143.061 22.9808 144.377 23.0253C148.632 23.1143 152.667 21.1117 155.386 17.8629C156.088 17.0173 155.606 15.9047 154.553 15.8157C152.535 15.5931 150.869 14.08 149.07 13.3234C147.711 12.7894 146.176 12.6559 144.728 12.8784C142.184 13.2789 139.947 15.1926 137.754 16.5723L136.526 16.7948C134.333 17.1953 132.096 16.8392 130.122 15.8157C127.622 14.525 125.035 13.457 122.227 12.6559C122.14 12.6114 122.008 12.5669 121.92 12.5669C121.526 12.4779 121.131 12.3443 120.736 12.2553C118.806 11.7658 116.833 11.4543 114.903 11.2318C115.034 11.1873 115.166 11.0983 115.297 11.0538C119.201 9.2736 121.964 5.66878 123.017 1.52992C123.236 0.684346 122.447 -0.250203 121.57 0.0613242C119.684 0.728882 117.71 0.194836 115.736 0.283844C114.069 0.328348 112.49 0.906887 111.131 1.88597C109.025 3.3546 107.841 6.0693 106.481 8.24999L104.727 9.71864C103.236 10.9648 101.481 11.8103 99.5952 12.2108C96.7443 12.7894 93.8933 13.635 91.0423 14.5696C86.5685 16.0827 82.1386 17.9519 77.7525 19.732C78.1033 19.376 78.4104 19.0644 78.6736 18.7084C81.3491 15.3706 82.2263 11.2318 81.5245 7.04841C81.3491 6.11383 80.121 5.93584 79.5508 6.51439C78.2349 7.805 76.3051 8.16098 74.6822 8.91755C73.1909 9.62961 72.0506 10.5642 71.1295 11.9438C69.5505 14.2135 69.5943 17.4178 69.1557 20.1326L69.1119 20.1771C67.3136 22.7583 64.6819 24.5829 61.6555 25.384C61.4801 25.4285 61.3046 25.473 61.1292 25.5175C54.5062 27.1197 47.62 27.7427 40.7777 27.3867C40.9532 27.2086 41.1286 26.9862 41.304 26.8081C44.3743 27.7427 47.7516 26.3631 50.2078 24.3159C53.4535 21.6012 55.208 17.5513 55.208 13.3234C55.208 12.4779 54.243 11.7213 53.4535 12.2553C51.7868 13.3679 49.8131 13.3235 47.9709 13.8575C46.4358 14.3026 45.1199 15.1036 43.9796 16.3052C42.0935 18.2634 41.5672 21.3787 40.7339 23.9154C39.0671 26.0516 36.3916 27.0751 33.76 26.6746C33.0143 26.5411 32.2687 26.4521 31.5669 26.3186C28.4967 25.7401 25.4264 24.9835 22.4438 24.0044C20.2069 23.2923 17.97 22.4468 15.8209 21.4677C10.9523 19.287 5.03107 16.6612 2.22397 11.8103C1.43447 10.4752 -0.583133 11.6768 0.162502 13.0119C2.70644 17.3733 7.18026 19.7765 11.4348 22.0462C14.0664 23.4258 16.8296 24.5384 19.6367 25.562C20.7771 26.007 21.7859 26.7191 22.5754 27.6092C22.707 27.7872 22.8386 27.9207 22.9263 28.0542C21.5666 31.036 22.4 34.5963 24.0667 37.3555C26.2598 41.0049 29.9441 43.3636 34.067 43.9866C34.8565 44.1201 35.7776 43.2301 35.3828 42.3845C34.5056 40.5598 34.8565 38.5572 34.5933 36.6435C34.374 35.0413 33.76 33.5727 32.795 32.2821C31.1722 30.1459 28.1896 29.1668 25.865 27.9207C25.7773 27.7872 25.558 27.6092 25.3387 27.3422C33.0143 29.4338 41.0409 30.2794 48.9797 29.7899C50.5148 29.7009 52.0938 29.9679 53.5413 30.591C53.5413 33.8398 55.7782 36.7325 58.4098 38.5572C61.9187 40.9604 66.2609 41.4499 70.2523 40.2928C71.0418 40.0703 71.4804 38.8687 70.7786 38.2901C69.2435 36.9995 68.7171 35.0858 67.6645 33.3947C66.8311 32.0151 65.6469 30.947 64.2433 30.2349C61.8748 28.9888 58.7607 29.3449 56.129 29.2559C56.129 29.1223 56.129 29.1668 56.129 29.0333C64.6381 27.6092 72.0506 24.761 80.0771 21.5122C80.121 21.5122 80.1648 21.4677 80.2087 21.4677C81.4368 20.9336 82.7526 20.8001 84.0684 21.0671L84.5509 21.1561C85.3843 24.1379 88.1036 26.1851 90.9107 27.2087C95.0337 28.7218 99.5952 28.0542 103.236 25.6955C103.894 25.2505 104.113 24.0044 103.236 23.6038C101.394 22.8028 100.341 21.1116 98.8934 19.821C97.7092 18.7529 96.3056 18.0409 94.7266 17.7293C92.0511 17.1953 89.1124 18.4859 86.5247 19.1534C86.4808 19.0644 86.5247 19.109 86.4808 18.9755C94.6828 15.7712 103.192 13.1009 112.008 13.5015C114.332 13.5905 116.657 13.902 118.982 14.3915C120.341 14.6586 121.526 15.5041 122.315 16.6612C122.359 16.7057 122.403 16.7948 122.447 16.8393C120.824 19.5985 121.306 23.1588 122.578 26.007C124.377 29.9679 127.885 32.7271 131.965 33.7952C132.798 34.0177 133.719 33.2167 133.412 32.3266C132.754 30.413 133.28 28.4103 133.193 26.4076C133.149 24.7164 132.579 23.1143 131.614 21.7347C130.166 19.5985 127.491 18.3969 125.342 17.0173C125.166 16.7058 124.947 16.3497 124.727 16.0382C126.263 16.5722 127.754 17.2398 129.201 17.9519C134.289 20.5331 138.807 24.0934 143.281 27.6092C144.421 28.5883 145.123 30.0124 145.167 31.5255C145.211 34.0178 146.439 36.51 148.018 38.4236C150.781 41.6724 154.772 43.3636 158.939 43.3191C159.641 43.2301 160.343 42.2064 159.816 41.4054ZM44.155 23.8709C45.5147 22.7583 47.1376 21.9127 47.9709 20.3106C48.6727 18.931 46.6989 17.6848 45.9533 19.02C45.5585 19.821 44.769 20.4886 43.9796 21.1116C44.4182 19.7765 45.0322 18.4859 45.9533 17.5513C47.7955 15.7712 50.3394 15.8602 52.6202 15.1481C52.2693 17.5513 51.2605 19.6875 49.5499 21.5122C48.0586 23.0698 45.5147 24.7609 43.1901 24.7164C43.4971 24.4494 43.848 24.1824 44.155 23.8709ZM28.1458 35.6644C29.3739 36.5545 30.909 34.7298 29.6809 33.8397C28.9791 33.3057 28.4089 32.4601 27.9265 31.57C29.1984 32.2376 30.3388 32.9941 31.1283 34.0622C32.6196 36.1539 32.1371 38.6907 32.5319 41.0939C30.2511 40.3818 28.3212 39.0912 26.7422 37.0885C25.4264 35.3974 24.1544 32.5936 24.5492 30.2349C24.7685 30.5909 25.0317 30.947 25.251 31.303C26.172 32.8607 26.6984 34.5963 28.1458 35.6644ZM57.0063 32.5492C58.4537 33.5282 59.6818 34.8634 61.4362 35.2194C62.9275 35.5309 63.5415 33.2167 62.0503 32.9052C61.173 32.7271 60.3397 32.1931 59.5063 31.57C60.9099 31.6145 62.3134 31.8371 63.4538 32.4601C65.6469 33.7507 66.3048 36.2429 67.6206 38.2456C65.2521 38.6016 62.9275 38.2456 60.7344 37.0885C58.8484 36.1094 56.5238 34.1068 55.9097 31.7926C56.2606 32.0596 56.6554 32.2821 57.0063 32.5492ZM71.7435 20.5331C72.0067 20.2216 72.226 19.91 72.4892 19.5985C73.6734 18.2189 75.1208 17.1063 75.691 15.2816C76.1735 13.813 73.8927 13.1899 73.4102 14.6586C73.1471 15.5041 72.533 16.2607 71.8312 16.9728C72.0505 15.5487 72.4014 14.169 73.1909 13.0564C74.6822 11.0093 77.2261 10.5642 79.3753 9.45163C79.4192 11.8993 78.7613 14.3025 77.3577 16.3942C76.1296 18.2634 73.9804 20.1771 71.7435 20.5331ZM88.4107 21.9572C90.0774 22.4913 91.6125 23.3813 93.4108 23.2478C94.9021 23.1588 94.946 20.7556 93.4108 20.8446C92.4897 20.8891 91.5248 20.6221 90.5599 20.266C91.9195 19.91 93.3231 19.6875 94.5951 19.999C97.0513 20.6221 98.3671 22.8473 100.209 24.3604C97.8408 25.4285 95.253 25.74 92.6213 25.0725C90.7353 24.5829 88.3229 23.3813 87.1826 21.5567C87.5773 21.6902 87.9721 21.8237 88.4107 21.9572ZM108.674 9.76314C109.069 9.54062 109.42 9.36263 109.815 9.18462C111.394 8.42805 113.148 8.02747 114.332 6.69236C115.341 5.53526 113.675 3.84414 112.666 5.00124C112.052 5.6688 111.175 6.11385 110.253 6.51439C110.955 5.35729 111.789 4.33369 112.841 3.66613C115.078 2.242 117.622 2.99855 120.122 2.86504C119.157 5.22374 117.534 7.13744 115.254 8.51706C113.499 9.49615 110.824 10.3417 108.674 9.76314ZM126.833 24.8945C127.973 25.918 129.64 24.2269 128.5 23.2033C127.842 22.5803 127.359 21.6902 126.964 20.7556C128.105 21.4677 129.157 22.3132 129.771 23.3813C131.175 25.651 130.473 28.2323 130.605 30.769C128.28 29.7899 126.394 28.1433 125.035 25.8736C124.026 24.0934 123.192 21.3787 123.763 19.198C123.982 19.5985 124.157 19.9545 124.333 20.3551C125.122 21.8682 125.517 23.6483 126.833 24.8945ZM140.517 18.9309C142.184 18.9754 143.807 19.287 145.43 18.6639C146.833 18.1299 146.219 15.8157 144.816 16.3497C143.939 16.7058 142.93 16.7057 141.921 16.6612C143.105 15.9047 144.377 15.2816 145.649 15.2371C148.193 15.0591 150.167 16.7058 152.404 17.6404C150.342 19.5095 147.798 20.6221 144.947 20.6666C143.018 20.7111 140.693 20.2215 139.158 18.9309C139.553 18.9309 140.035 18.9309 140.517 18.9309ZM150.562 37.6671C148.983 36.1985 147.316 33.6617 147.36 31.2585C147.623 31.5256 147.886 31.7926 148.105 32.1041C149.246 33.4837 150.123 35.2194 151.746 36.0204C153.106 36.688 154.29 34.6408 152.93 33.9288C152.141 33.5282 151.483 32.7716 150.869 31.9706C152.228 32.4156 153.5 32.9942 154.465 33.9733C156.22 35.7979 156.176 38.3791 156.921 40.6933C154.509 40.3818 152.36 39.3582 150.562 37.6671Z" fill="url(#paint0_linear)"/>
<defs>
<linearGradient id="paint0_linear" x1="72.32" y1="1.39398e-05" x2="161.688" y2="13.2836" gradientUnits="userSpaceOnUse">
<stop stop-color="#F2B5C9"/>
<stop offset="1" stop-color="#EF95B2"/>
</linearGradient>
</defs>
</svg>
