<svg width="48" height="48" viewBox="0 0 48 48" fill="none" xmlns="http://www.w3.org/2000/svg">
<circle cx="24" cy="24" r="22.5" stroke="white" stroke-width="3"/>
<path d="M20.3386 16.3334H20.9046C21.1818 16.3334 21.4167 16.2083 21.4167 16.0581V14.518C21.4167 14.3351 21.5707 14.181 21.7536 14.181H26.6802C26.8631 14.181 27.0171 14.3351 27.0171 14.518V16.0735C27.0171 16.2121 27.2558 16.3315 27.5292 16.3315H28.0952C28.3666 16.3315 28.6073 16.2102 28.6073 16.0735V14.518C28.6073 13.4553 27.7448 12.5928 26.6821 12.5928H21.7556C20.6948 12.5928 19.8304 13.4553 19.8304 14.518V16.0331C19.8265 16.1948 20.0614 16.3334 20.3386 16.3334Z" fill="white"/>
<path d="M23.4362 27.2511H24.9936C25.2766 27.2511 25.5057 27.022 25.5057 26.739V26.1576C25.5057 25.8746 25.2766 25.6455 24.9936 25.6455H23.4362C23.1532 25.6455 22.9241 25.8746 22.9241 26.1576V26.739C22.926 27.022 23.1551 27.2511 23.4362 27.2511Z" fill="white"/>
<path d="M22.926 29.4131C22.926 29.6961 23.1551 29.9252 23.4381 29.9252H24.9956C25.2786 29.9252 25.5077 29.6961 25.5077 29.4131V28.6449C25.5077 28.3638 25.2786 28.1328 24.9956 28.1328H23.4381C23.1551 28.1328 22.926 28.3619 22.926 28.6449V29.4131Z" fill="white"/>
<path d="M34.6812 26.3389C34.5426 26.3909 34.4213 26.4332 34.3096 26.4717C31.8088 27.3342 29.1193 27.8579 26.3124 28.0331V29.0245C26.3124 29.8928 25.6059 30.5993 24.7357 30.5993H23.6961C22.8278 30.5993 22.1213 29.8928 22.1213 29.0245V28.0311C19.0891 27.8425 16.2071 27.2476 13.5484 26.2638C13.4714 26.2426 13.3328 26.1887 12.9978 26.054L12.9555 26.0366C12.9362 26.0289 12.917 26.0212 12.8997 26.0135V32.4764C12.8997 33.1887 13.4791 33.7662 14.1895 33.7662H34.2442C34.9546 33.7662 35.534 33.1868 35.534 32.4764V26.0039C35.4436 26.0405 35.3473 26.079 35.2453 26.1194L34.6812 26.3389Z" fill="white"/>
<path d="M34.7486 17.3057H13.6813C12.9921 17.3057 12.4299 17.8659 12.4299 18.557V24.1478C12.4299 24.2787 12.5608 24.4808 12.6821 24.5347C12.686 24.5367 12.9132 24.6368 13.2828 24.7831C15.953 25.8458 19.0044 26.51 22.1232 26.714V25.7745C22.1232 25.1508 23.0646 24.7253 23.6961 24.7253H24.7357C25.4692 24.7253 26.3067 25.2066 26.2893 25.9382V26.7121C28.9981 26.5369 31.6105 26.0306 34.0189 25.2008C34.7794 24.939 35.74 24.5309 35.7497 24.5251C35.869 24.475 35.9999 24.2768 35.9999 24.1478V18.557C35.9999 17.8659 35.4378 17.3057 34.7486 17.3057Z" fill="white"/>
</svg>
