<svg width="48" height="48" viewBox="0 0 48 48" fill="none" xmlns="http://www.w3.org/2000/svg">
<circle cx="24" cy="24" r="22.5" stroke="white" stroke-width="3"/>
<path d="M22.8572 14.311C19.5461 14.6348 16.4191 16.132 16.2793 19.7521C16.1211 23.8246 19.513 25.0166 22.8572 25.8297V30.3474C21.209 29.6263 21.1538 27.7023 21.1538 27.7023L15.5398 28.3387C15.9739 32.2825 19.3732 33.7357 22.8572 33.9675V35.4759H24.0271V12.8799H22.8535V14.311H22.8572ZM22.8572 20.9073C22.7431 20.8595 22.6328 20.8117 22.5334 20.7602C21.0766 20.0097 21.2752 18.4866 22.8572 17.9384V20.9073Z" fill="white"/>
<path d="M31.4365 24.3101C29.7589 22.8275 27.4743 22.169 25.5466 21.676V18.0228C26.6981 18.5673 26.9298 19.7004 26.9298 19.7004L32.3893 18.7991C31.7713 16.2827 29.1114 14.6088 25.5466 14.2961V12.876H24.6011V35.4719H25.5502V33.9157C27.4853 33.7244 29.196 33.2315 30.1121 32.6796C33.0258 30.9321 34.192 26.7455 31.4365 24.3101ZM25.5466 30.4907V26.5652C26.8894 27.0288 27.3492 27.4739 27.5663 28.2281C27.8275 29.1368 27.1726 30.1449 25.5466 30.4907Z" fill="white"/>
</svg>
