<svg width="24" height="24" viewBox="0 0 24 24" fill="none" xmlns="http://www.w3.org/2000/svg">
<path d="M20.7072 14.704C20.592 13.9036 19.974 13.2796 19.1784 13.0936C16.086 12.3688 15.3108 10.588 15.18 8.61279C14.6316 8.51079 13.656 8.40039 12 8.40039C10.344 8.40039 9.36844 8.51079 8.82003 8.61279C8.68924 10.588 7.91404 12.3688 4.82164 13.0936C4.02604 13.2808 3.40803 13.9036 3.29283 14.704L2.69643 18.8344C2.48643 20.2888 3.55443 21.6004 5.04003 21.6004H18.96C20.4444 21.6004 21.5136 20.2888 21.3036 18.8344L20.7072 14.704ZM12 18.5908C10.326 18.5908 8.96884 17.2468 8.96884 15.5908C8.96884 13.9348 10.326 12.5908 12 12.5908C13.674 12.5908 15.0312 13.9348 15.0312 15.5908C15.0312 17.2468 13.6728 18.5908 12 18.5908ZM23.94 7.20039C23.9112 5.40039 19.3296 2.40159 12 2.40039C4.66923 2.40159 0.0876344 5.40039 0.0600344 7.20039C0.0324344 9.00039 0.0852345 11.3428 3.10203 10.9528C6.63124 10.4956 6.41403 9.26319 6.41403 7.50159C6.41403 6.27279 9.28444 5.97639 12 5.97639C14.7156 5.97639 17.5848 6.27279 17.586 7.50159C17.586 9.26319 17.3688 10.4956 20.898 10.9528C23.9136 11.3428 23.9676 9.00039 23.94 7.20039Z" fill="#FFE0EF"/>
</svg>
