<svg width="40" height="40" viewBox="0 0 40 40" fill="none" xmlns="http://www.w3.org/2000/svg">
<g clip-path="url(#clip0)">
<path d="M20 5C11.7157 5 5 11.7157 5 20C5 28.2843 11.7157 35 20 35C28.2843 35 35 28.2843 35 20C35 11.7157 28.2843 5 20 5ZM14.6094 10.9583C14.9184 10.94 15.1978 11.1248 15.4095 11.4526L17.4603 15.3418C17.6763 15.8026 17.5535 16.2961 17.2315 16.6253L16.2921 17.5647C16.2341 17.6441 16.196 17.7336 16.1951 17.832C16.5553 19.2264 17.648 20.5126 18.6121 21.3971C19.5762 22.2816 20.6123 23.4791 21.9574 23.7628C22.1237 23.8092 22.3273 23.8258 22.4463 23.7152L23.5376 22.6038C23.9143 22.3183 24.4593 22.1799 24.8615 22.4134H24.8798L28.5803 24.5978C29.1235 24.9383 29.1798 25.5964 28.7908 25.9967L26.2421 28.5254C25.8657 28.9114 25.3656 29.0412 24.8798 29.0417C22.7311 28.9774 20.7009 27.9228 19.0333 26.839C16.296 24.8477 13.7852 22.3779 12.2089 19.3939C11.6043 18.1427 10.8942 16.5462 10.9619 15.1496C10.968 14.6242 11.1101 14.1095 11.4801 13.7708L14.0289 11.222C14.2275 11.053 14.4239 10.9692 14.6094 10.9583Z" fill="#7E7E7E"/>
</g>
<defs>
<clipPath id="clip0">
<rect width="40" height="40" fill="white"/>
</clipPath>
</defs>
</svg>
