<svg width="30" height="30" viewBox="0 0 30 30" fill="none" xmlns="http://www.w3.org/2000/svg">
<path d="M1.87952 8.24812L14.9994 14.8072L28.1193 8.24812C28.0707 7.41214 27.7044 6.62637 27.0953 6.05173C26.4862 5.47709 25.6804 5.15707 24.843 5.15723H5.1558C4.31841 5.15707 3.51265 5.47709 2.90354 6.05173C2.29444 6.62637 1.92809 7.41214 1.87952 8.24812Z" fill="#7E7E7E"/>
<path d="M28.1249 11.9121L15.0001 18.4745L1.87526 11.9121V21.5621C1.87526 22.4324 2.22096 23.2669 2.8363 23.8823C3.45165 24.4976 4.28623 24.8433 5.15646 24.8433H24.8437C25.7139 24.8433 26.5485 24.4976 27.1639 23.8823C27.7792 23.2669 28.1249 22.4324 28.1249 21.5621V11.9121Z" fill="#7E7E7E"/>
</svg>
