<svg width="68" height="47" viewBox="0 0 68 47" fill="none" xmlns="http://www.w3.org/2000/svg">
<path d="M45.4561 35.1176C45.2405 35.3962 40.6249 29.8569 40.4554 29.4079C40.2858 28.959 39.3761 9.30426 39.5422 9.13813C39.7083 8.97199 40.4556 8.97198 40.8712 9.13811C41.2867 9.30425 41.7296 9.46486 42.6159 9.55349C43.5022 9.64212 44.1974 9.46198 44.2774 9.71963C44.3567 9.97527 44.4644 14.0172 44.6921 18.3592C45.0713 25.5866 45.5907 34.9435 45.4561 35.1176Z" fill="#D1D0D0"/>
<path d="M28.7598 40.1513C28.4922 40.4209 24.691 34.3626 24.5541 33.8793C24.4172 33.396 25.0869 14.7872 25.4675 14.274C25.7928 13.8354 26.332 14.1122 27.1201 14.0757L27.5442 14.0248C27.9925 13.9361 28.4357 13.8647 28.7904 13.8586C29.2041 13.8516 29.588 13.4286 29.539 14.0248C29.4899 14.6211 29.0275 39.8817 28.7598 40.1513Z" fill="#D1D0D0"/>
<path d="M51.3251 42.442C51.8368 42.2206 52.627 41.8599 52.627 41.8599C52.627 41.8599 53.557 41.5274 53.6498 41.3611C53.7426 41.1948 53.3557 41.0646 53.1849 40.8622C52.851 40.4665 52.7058 40.2167 52.441 39.7813C52.0058 39.0659 51.7674 38.6503 51.5111 37.8689C51.1816 36.864 51.2128 36.2533 51.1392 35.2082C51.0639 34.1388 51.1392 33.5359 51.1392 32.4643C51.1392 31.3278 51.064 30.6887 51.1392 29.5542C51.2127 28.4445 51.2989 27.8225 51.5111 26.7272C51.7081 25.7104 51.8943 25.1534 52.162 24.1496C52.4051 23.238 52.5363 22.7254 52.8129 21.8215C52.9525 21.3655 53.278 20.7406 53.1849 20.6574C53.0917 20.5743 52.4598 20.3289 51.9761 20.1586C51.2705 19.9102 50.8639 19.7732 50.1163 19.6597C49.3994 19.5508 49.1866 19.5396 49.0008 19.6227C48.815 19.7059 48.5352 20.0292 48.2566 20.6574C47.9779 21.2857 48.0709 21.2025 47.513 22.1171C46.9551 23.0317 47.1749 22.7823 46.5831 23.6969C45.9914 24.6115 46.0252 24.6577 45.2813 25.6925C44.5374 26.7272 43.8865 27.7711 43.6075 28.0206C43.3286 28.27 42.2127 28.7689 41.7476 28.6857C41.2825 28.6026 41.2342 28.5195 40.8179 28.1037C40.4016 27.688 40.167 27.0228 39.981 26.7734C39.7951 26.5239 39.4747 25.3608 39.1442 24.5284C38.7899 23.6363 38.2143 21.7845 38.2143 21.7845C38.2143 21.7845 37.7879 19.9868 37.3772 18.4956C37.1624 17.7156 37.0936 17.333 36.9123 16.5463C36.5286 14.8816 36.407 13.9543 36.2614 12.2596C36.1277 10.7042 36.0833 9.74531 36.0752 8.18537C36.0662 6.43075 36.0426 5.44982 36.0752 3.69543C36.1018 2.2669 36.1684 0.1201 36.0752 0.036954C35.9821 -0.0461925 35.1685 0.036954 34.5875 0.036954C33.8612 0.036954 33.4527 -0.0020189 32.7277 0.036954C31.8869 0.0821524 30.6818 0.203248 30.589 0.286395C30.4962 0.369542 30.7703 2.36342 30.868 3.69543C30.9964 5.4478 31.0359 6.43204 31.1469 8.18537C31.2539 9.87396 31.278 10.8229 31.4259 12.509C31.5456 13.8748 31.5716 14.3823 31.6119 15.7518C31.6539 17.1815 31.6401 18.2297 31.6119 19.6597C31.5939 20.5687 31.6523 21.0793 31.6119 21.9878C31.5742 22.8339 31.5633 23.3118 31.4259 24.1496C31.2801 25.0382 31.183 25.5418 30.868 26.3946C30.5823 27.1678 30.3642 27.5872 29.9381 28.307C29.6409 28.809 29.4702 29.0918 29.1012 29.5542C28.6229 30.1534 28.2707 30.4317 27.7064 30.9677C27.1784 31.4692 27.0006 31.9068 26.3116 32.2149C26.0034 32.3526 25.8161 32.5058 25.4747 32.4643C25.1846 32.4291 24.8072 32.6383 24.5884 32.4643C24.2721 32.2126 23.6746 31.5127 23.6746 31.5127L23.0101 29.8232C23.0101 29.8232 22.6016 28.5832 22.5116 27.8295C22.4383 27.2152 22.3455 26.2511 22.3455 26.2511L22.0963 24.1496L21.9301 21.4889V19.2729C21.9301 19.2729 22.0083 18.7525 22.0131 18.5253C22.0242 18.0048 21.9401 17.7777 21.847 17.6946C21.7538 17.6114 21.0163 17.7776 21.0163 17.7776L19.9364 17.9438C19.9364 17.9438 18.7661 17.9666 18.6866 17.9967C18.6071 18.0269 18.0914 18.3591 18.0361 18.4956C17.9241 18.7721 17.963 18.7841 17.9431 19.0776C17.9188 19.4342 17.9431 19.6813 17.9431 20.0385V21.4889C17.9431 22.2033 17.9261 22.6501 17.9431 23.3643C17.9608 24.1117 17.9114 24.5315 17.8501 25.2767C17.7965 25.928 17.6641 26.9397 17.6641 26.9397L17.3851 28.7689L17.1992 31.5127L17.0289 33.7277L16.6966 35.9706V37.6321L16.4474 39.2105L16.1151 40.4566L15.6997 41.6196C15.6997 41.6196 15.1083 43.2809 15.2013 43.4472C15.2943 43.6135 17.1087 44.12 17.4778 44.2712C18.1154 44.5324 18.4925 44.6388 19.1516 44.8532C20.2631 45.2149 20.891 45.413 22.0342 45.6847C23.4734 46.0267 24.3158 46.1414 25.7651 46.3388L25.8466 46.3499C27.0757 46.5173 27.7696 46.5868 29.0082 46.6825C30.4572 46.7944 31.2734 46.841 32.7277 46.8488C33.9266 46.8552 34.603 46.8692 35.7963 46.7656C36.9231 46.6679 37.5522 46.5539 38.6549 46.3542L38.6789 46.3499C40.1118 46.0904 40.9018 45.8845 42.3054 45.5184C43.5511 45.1935 44.2419 44.9864 45.4669 44.6038C46.454 44.2955 47.0072 44.1204 47.9776 43.7723C49.3053 43.296 50.0374 42.9992 51.3251 42.442Z" fill="#D1D0D0"/>
<path d="M51.7534 35.7216L51.0057 35.5924L50.8396 34.5586L51.7534 34.817C51.7534 34.817 52.6672 35.2047 52.6672 35.3339C52.6672 35.4632 51.7534 35.7216 51.7534 35.7216Z" fill="#D1D0D0"/>
<path d="M51.9194 38.0478L51.1718 37.9186L51.0056 36.8848L51.9194 37.1432C51.9194 37.1432 52.8332 37.5309 52.8332 37.6601C52.8332 37.7893 51.9194 38.0478 51.9194 38.0478Z" fill="#D1D0D0"/>
<path d="M12.2988 39.3274C12.387 39.6929 11.0963 42.3802 10.6984 42.7894C10.3006 43.1987 1.35235 45.4085 1.19594 45.3143C1.12459 45.2713 1.40234 44.52 1.66034 43.6971C1.80373 43.2397 1.8453 42.7602 1.99263 42.3679C2.16129 41.9188 2.34822 41.584 2.42385 41.5274C2.68445 41.3323 12.2106 38.9619 12.2988 39.3274Z" fill="#D1D0D0"/>
<path d="M14.4992 29.9018C14.5747 30.1334 11.6854 32.0226 11.4744 32.0721C11.2633 32.1216 2.90613 29.9894 2.33342 29.516C2.33342 29.516 3.07258 28.8264 3.40456 28.5771C3.73654 28.3278 4.10236 27.6744 4.40144 27.4141C4.89479 26.9846 5.09262 26.8963 5.2073 26.8825C5.51956 26.8447 14.4237 29.6702 14.4992 29.9018Z" fill="#D1D0D0"/>
<path d="M15.4311 19.7273C15.3914 19.9902 11.7756 20.6134 11.5537 20.5711C11.3318 20.5287 4.19012 14.258 4.18671 14.0642C4.18331 13.8705 7.83203 12.5967 8.14336 12.6947C8.45469 12.7928 15.4707 19.4645 15.4311 19.7273Z" fill="#D1D0D0"/>
<path d="M65.4964 39.9592C65.2063 40.0796 55.8323 38.8543 55.8323 38.8543C56.3194 38.1293 56.9839 37.3817 56.9839 37.3817C57.3161 37.1325 57.5654 36.7171 57.8146 36.3017C58.0638 35.8864 57.9896 35.7343 58.1929 35.6442C58.3962 35.5541 67.4769 36.1038 67.5969 36.2621C67.6589 36.3439 66.8947 37.2119 66.3713 38.1293L65.879 39.1589C65.6967 39.5973 65.5787 39.925 65.4964 39.9592Z" fill="#D1D0D0"/>
<path d="M57.2134 27.7255C56.9501 27.6115 56.7587 23.8979 56.8292 23.6931C56.8997 23.4883 64.1747 18.3019 64.3729 18.354C64.4339 18.3701 64.4806 18.8111 64.5898 19.3637L64.6728 19.7456C64.766 20.1344 64.9747 20.6376 65.0568 21.0493C65.2258 21.8956 65.3417 22.4986 65.2837 22.6145C65.1454 22.8908 57.4767 27.8395 57.2134 27.7255Z" fill="#D1D0D0"/>
<path d="M45.7724 40.6226C46.2965 40.7676 46.5588 41.0718 47.1015 41.038C48.1557 40.9722 48.4615 39.9913 48.9291 39.0442C49.5209 37.8459 49.2067 36.9735 49.2614 35.6382C49.3013 34.6658 49.3037 34.1184 49.2614 33.146C49.2261 32.3332 49.1668 31.8797 49.0953 31.0692C49.0351 30.3875 49.0255 30.0022 48.9291 29.3247C48.8315 28.6381 48.7627 27.5801 48.5968 27.5801C48.431 27.5801 48.2521 28.8181 47.9323 29.5739C47.6043 30.349 47.3422 30.7478 46.9354 31.4846C46.6825 31.9425 46.706 32.3574 46.2708 32.6476C46.0147 32.8183 45.8189 32.9818 45.5231 32.8968C45.2357 32.8142 45.198 32.5591 45.0247 32.3153C44.5605 31.6622 44.5946 31.1403 44.277 30.4046C43.7596 29.2058 43.1137 27.3309 42.7817 27.414C42.4497 27.4971 42.4465 28.283 42.2002 28.8262C41.8227 29.6588 41.5456 30.0939 41.1203 30.9031C40.8299 31.4555 40.6215 32.2322 40.3726 32.3153C40.1237 32.3984 39.3007 31.5677 38.6281 31.0692C37.7365 30.4085 37.167 30.1121 36.3851 29.3247C35.3513 28.2837 34.391 26.251 34.2252 26.251C34.0594 26.251 33.8118 26.9551 33.5606 27.414C32.8012 28.8015 32.5477 29.6669 31.8161 31.0692C31.1441 32.3571 30.1543 34.1429 29.9885 34.3091C29.8226 34.4752 29.517 34.1957 29.2408 34.0598C28.7451 33.8159 28.5458 33.5423 28.1609 33.146C27.4774 32.4426 26.9975 31.0692 26.7486 31.0692C26.4997 31.0692 26.367 32.124 26.1671 32.8137C25.981 33.4561 26.0484 33.8758 25.7517 34.4752C25.4349 35.1156 24.7546 35.7213 24.5887 35.8875C24.4229 36.0536 23.7841 35.8648 23.3426 35.6382C22.7912 35.3552 22.5116 34.7244 22.2627 34.4752C22.0138 34.226 21.4316 34.0598 21.3489 34.0598C21.2661 34.0598 20.8526 35.043 20.6843 35.7213C20.4806 36.5424 20.5499 37.0358 20.5181 37.8812C20.4877 38.6917 20.4236 39.1525 20.5181 39.958C20.5916 40.5836 20.6012 41.3703 20.8504 41.5364C21.0997 41.7026 21.861 41.2256 22.5119 41.038C23.0943 40.8701 24.0072 40.6226 24.0072 40.6226C24.0072 40.6226 25.3231 40.3666 26.1671 40.2072C27.0425 40.042 27.5302 39.9311 28.4101 39.7919C29.7972 39.5723 30.5828 39.495 31.9822 39.3765C33.051 39.2861 33.6512 39.225 34.7236 39.2104C36.3809 39.1877 37.3133 39.2748 38.9604 39.4596C40.2325 39.6023 40.938 39.7446 42.2002 39.958C43.5993 40.1946 44.4048 40.2442 45.7724 40.6226Z" fill="black"/>
<path d="M19.6873 38.4629C19.6873 38.4629 22.7027 37.5159 24.6716 37.0506C28.1859 36.2203 30.2181 36.0121 33.8097 35.6384C37.3322 35.2719 39.3242 35.2263 42.8646 35.14C45.6863 35.0711 50.092 35.14 50.092 35.14" stroke="#D1D0D0" stroke-width="1.32917"/>
<path d="M19.6873 40.7891C19.6873 40.7891 22.7027 39.8421 24.6716 39.3768C28.1859 38.5464 30.2181 38.3383 33.8097 37.9646C37.3322 37.598 39.3242 37.5525 42.8646 37.4661C45.6863 37.3973 50.092 37.4661 50.092 37.4661" stroke="#D1D0D0" stroke-width="1.32917"/>
</svg>
