<svg width="29" height="26" viewBox="0 0 29 26" fill="none" xmlns="http://www.w3.org/2000/svg">
<g style="mix-blend-mode:difference" clip-path="url(#clip0)">
<path d="M14.1159 7.52922L4.83335 15.2404V23.5629C4.83335 23.7784 4.91823 23.985 5.0693 24.1374C5.22037 24.2898 5.42526 24.3754 5.63891 24.3754L11.2808 24.3607C11.4938 24.3596 11.6976 24.2735 11.8478 24.1213C11.998 23.969 12.0824 23.763 12.0823 23.5482V18.6879C12.0823 18.4724 12.1672 18.2657 12.3183 18.1134C12.4694 17.961 12.6743 17.8754 12.8879 17.8754H16.1101C16.3238 17.8754 16.5287 17.961 16.6797 18.1134C16.8308 18.2657 16.9157 18.4724 16.9157 18.6879V23.5446C16.9153 23.6515 16.9359 23.7575 16.9763 23.8563C17.0166 23.9552 17.0759 24.0451 17.1507 24.1208C17.2256 24.1965 17.3145 24.2566 17.4124 24.2976C17.5103 24.3386 17.6152 24.3596 17.7212 24.3596L23.3611 24.3754C23.5748 24.3754 23.7797 24.2898 23.9307 24.1374C24.0818 23.985 24.1667 23.7784 24.1667 23.5629V15.2348L14.8862 7.52922C14.7771 7.44052 14.6412 7.39215 14.501 7.39215C14.3609 7.39215 14.225 7.44052 14.1159 7.52922ZM28.7785 12.7704L24.5695 9.27102V2.2373C24.5695 2.07569 24.5058 1.92069 24.3925 1.80641C24.2792 1.69213 24.1255 1.62793 23.9653 1.62793H21.1459C20.9856 1.62793 20.8319 1.69213 20.7186 1.80641C20.6053 1.92069 20.5417 2.07569 20.5417 2.2373V5.92453L16.0341 2.18398C15.6015 1.82495 15.0587 1.62865 14.4985 1.62865C13.9383 1.62865 13.3955 1.82495 12.9629 2.18398L0.218529 12.7704C0.157351 12.8214 0.106736 12.884 0.0695754 12.9548C0.0324151 13.0255 0.0094381 13.1029 0.0019572 13.1826C-0.00552369 13.2623 0.00263815 13.3427 0.0259764 13.4192C0.0493146 13.4958 0.0873718 13.5669 0.137974 13.6286L1.42183 15.2028C1.47229 15.2647 1.53436 15.3159 1.60449 15.3536C1.67461 15.3912 1.75141 15.4146 1.83049 15.4223C1.90957 15.43 1.98938 15.4218 2.06535 15.3984C2.14131 15.3749 2.21194 15.3366 2.2732 15.2855L14.1159 5.44719C14.225 5.35849 14.3609 5.31011 14.501 5.31011C14.6412 5.31011 14.7771 5.35849 14.8862 5.44719L26.7294 15.2855C26.7905 15.3366 26.861 15.375 26.9369 15.3985C27.0128 15.422 27.0925 15.4303 27.1715 15.4227C27.2505 15.4152 27.3273 15.392 27.3974 15.3545C27.4675 15.3171 27.5297 15.266 27.5802 15.2043L28.8641 13.6301C28.9146 13.568 28.9525 13.4966 28.9756 13.4197C28.9987 13.3429 29.0064 13.2622 28.9985 13.1823C28.9905 13.1024 28.967 13.0249 28.9292 12.9542C28.8915 12.8835 28.8403 12.821 28.7785 12.7704Z" fill="white"/>
</g>
<defs>
<clipPath id="clip0">
<rect width="29" height="26" fill="white"/>
</clipPath>
</defs>
</svg>
